<svg version="1.1" id="Layer_1" xmlns="http://www.w3.org/2000/svg" x="0" y="0" viewBox="0 0 800 800" xml:space="preserve"><path fill="#662D91" stroke="#000" stroke-width=".25" stroke-miterlimit="10" d="M328.9 169.3C163.3 169.3 29 303.6 29 469.2s134.3 299.9 299.9 299.9 299.9-134.3 299.9-299.9-134.2-299.9-299.9-299.9zm0 479.4c-99.1 0-179.5-80.4-179.5-179.5s80.4-179.5 179.5-179.5 179.5 80.4 179.5 179.5-80.3 179.5-179.5 179.5z"/><linearGradient id="SVGID_1_" gradientUnits="userSpaceOnUse" x1="566.02" y1="212.071" x2="706.43" y2="212.071" gradientTransform="scale(-1 1) rotate(86.193 -70.07 -323.977)"><stop offset=".177" stop-color="#662d91"/><stop offset=".335" stop-color="#692d91"/><stop offset=".793" stop-color="#93278f"/></linearGradient><path fill="url(#SVGID_1_)" stroke="#000" stroke-width=".25" stroke-miterlimit="10" d="M367.3 354.7l382.8 4.1c11 .1 19.8 9.3 19.7 20.6l-.8 78.4c-.1 11.2-9.1 20.3-20.1 20.1l-382.9-4c-11-.1-19.8-9.3-19.7-20.6l.8-78.4c.1-11.3 9.2-20.3 20.2-20.2z"/><linearGradient id="SVGID_2_" gradientUnits="userSpaceOnUse" x1="-23.299" y1="24.348" x2="596.477" y2="24.348" gradientTransform="scale(1 -1) rotate(-86.296 -71.35 -112.719)"><stop offset=".128" stop-color="#662d91"/><stop offset=".793" stop-color="#93278f"/></linearGradient><path fill="url(#SVGID_2_)" stroke="#000" stroke-width=".25" stroke-miterlimit="10" d="M49.3 153.1l78-.1c11.2 0 20.2 9.3 20.3 20.7l.4 574.6c0 11.4-9 20.7-20.2 20.7l-78 .1c-11.2 0-20.2-9.3-20.3-20.7l-.4-574.6c0-11.4 9-20.7 20.2-20.7z"/><ellipse fill="#662D91" stroke="#000" stroke-width=".25" stroke-miterlimit="10" cx="88.5" cy="80.4" rx="48.4" ry="49.5"/><path fill="none" d="M172.9 212.8c17.9-10.5-15 15.1 17.9-10.5m411.4 152.4"/><linearGradient id="SVGID_3_" gradientUnits="userSpaceOnUse" x1="547.5" y1="681.8" x2="547.5" y2="681.8" gradientTransform="matrix(1 0 0 -1 0 802)"><stop offset=".177" stop-color="#662d91"/><stop offset=".335" stop-color="#692d91"/><stop offset=".793" stop-color="#93278f"/></linearGradient></svg>