<svg id="Слой_1" data-name="Слой 1" xmlns="http://www.w3.org/2000/svg" viewBox="0 0 120 120"><defs><linearGradient id="Безымянный_градиент_3" x1="307.19" y1="407.88" x2="320.49" y2="407.88" gradientTransform="rotate(94 359.333 125.994)" gradientUnits="userSpaceOnUse"><stop offset=".18" stop-color="#662d91"/><stop offset=".34" stop-color="#692d91"/><stop offset=".79" stop-color="#93278f"/></linearGradient><linearGradient id="Безымянный_градиент_2" x1="-140.54" y1="122.2" x2="-81.78" y2="122.2" gradientTransform="rotate(86.3 -6.335 173.708)" gradientUnits="userSpaceOnUse"><stop offset=".13" stop-color="#662d91"/><stop offset=".79" stop-color="#93278f"/></linearGradient><style>.cls-2{fill:none}.cls-3{fill:#662d91;stroke:#000;stroke-miterlimit:10;stroke-width:.25px}</style></defs><rect width="120" height="120" rx="20.85" fill="#161616"/><path class="cls-2" d="M79 9c.29-.17-.25.24.29-.17"/><path class="cls-3" d="M61 38.12a28.44 28.44 0 1028.35 28.44A28.39 28.39 0 0061 38.12zm0 45.46a17 17 0 1117-17 17 17 0 01-17 17z"/><path d="M64.64 55.7l36.17.39a1.92 1.92 0 011.87 2l-.08 7.43a1.9 1.9 0 01-1.9 1.91L64.52 67a1.91 1.91 0 01-1.86-2l.07-7.43a1.92 1.92 0 011.91-1.87z" fill="url(#Безымянный_градиент_3)" stroke="#000" stroke-miterlimit="10" stroke-width=".25"/><path d="M34.59 36.59H42a2 2 0 011.92 2v54.49A1.93 1.93 0 0142 95h-7.36a2 2 0 01-1.92-2V38.51a1.93 1.93 0 011.87-1.92z" fill="url(#Безымянный_градиент_2)" stroke="#000" stroke-miterlimit="10" stroke-width=".25"/><ellipse class="cls-3" cx="38.3" cy="29.69" rx="4.57" ry="4.69"/><path class="cls-2" d="M55.27 42.25c1.7-1-1.41 1.43 1.7-1"/></svg>