<svg version="1.1" id="Capa_1" xmlns="http://www.w3.org/2000/svg" x="0" y="0" viewBox="0 0 512 512" xml:space="preserve"><style>.st0{fill:#3c416b}.st2{fill:#292e4c}.st3{fill:#ebba16}.st4{fill:#fff}.st5{fill:#dd352e}.st7{fill:#75348b}.st9{fill:#25ae88}</style><path class="st0" d="M370.76 503.17H141.24c-9.75 0-17.65-7.9-17.65-17.65 0-9.75 7.9-17.65 17.65-17.65h229.52c9.75 0 17.65 7.9 17.65 17.65 0 9.75-7.9 17.65-17.65 17.65z"/><path d="M300.14 397.24v-17.65h-88.28v17.65c0 39.04-13.93 70.62-52.97 70.62H353.1c-39.03 0-52.96-31.58-52.96-70.62z" fill="#afb6bb"/><path class="st2" d="M485.51 397.24H26.49C11.86 397.24 0 385.38 0 370.75v-52.96h512v52.96c0 14.63-11.86 26.49-26.49 26.49z"/><path class="st0" d="M282.48 370.76h-52.97c-4.87 0-8.83-3.95-8.83-8.83s3.96-8.83 8.83-8.83h52.97c4.87 0 8.83 3.95 8.83 8.83s-3.95 8.83-8.83 8.83z"/><path class="st2" d="M441.38 8.83H26.49C11.86 8.83 0 20.69 0 35.32v291.3h512V35.32c0-14.63-11.86-26.49-26.49-26.49h-44.13z"/><path class="st0" d="M238.35 44.14H476.7v282.48H238.35z"/><path class="st3" d="M35.31 44.14H256v282.48H35.31z"/><path class="st4" d="M132.4 300.14c-1.32 0-2.68-.3-3.95-.93-4.36-2.18-6.13-7.49-3.95-11.85L151 234.4c2.18-4.36 7.49-6.13 11.85-3.95 4.36 2.18 6.13 7.49 3.95 11.85l-26.48 52.96a8.841 8.841 0 01-7.92 4.88zm-61.78-26.49c-2.26 0-4.52-.86-6.24-2.59a8.818 8.818 0 010-12.48l26.48-26.48c3.44-3.45 9.04-3.45 12.48 0a8.818 8.818 0 010 12.48l-26.48 26.48a8.766 8.766 0 01-6.24 2.59z"/><path class="st4" d="M97.1 300.14c-2.26 0-4.52-.86-6.24-2.59l-26.48-26.48a8.818 8.818 0 010-12.48c3.44-3.45 9.04-3.45 12.48 0l26.48 26.48a8.818 8.818 0 010 12.48 8.808 8.808 0 01-6.24 2.59zm123.59-26.49c-2.26 0-4.52-.86-6.24-2.59l-26.48-26.48a8.818 8.818 0 010-12.48c3.44-3.45 9.04-3.45 12.48 0l26.48 26.48a8.818 8.818 0 010 12.48 8.766 8.766 0 01-6.24 2.59z"/><path class="st4" d="M194.21 300.14c-2.26 0-4.52-.86-6.24-2.59a8.818 8.818 0 010-12.48l26.48-26.48c3.44-3.45 9.04-3.45 12.48 0a8.818 8.818 0 010 12.48l-26.48 26.48a8.808 8.808 0 01-6.24 2.59zm-44.14-150.07c-4.87 0-8.83-3.96-8.83-8.83V79.45c0-4.87 3.96-8.83 8.83-8.83s8.83 3.96 8.83 8.83v61.79c0 4.87-3.96 8.83-8.83 8.83zm0 52.96c-4.87 0-8.83-3.96-8.83-8.83v-17.65c0-4.87 3.96-8.83 8.83-8.83s8.83 3.96 8.83 8.83v17.65c0 4.88-3.96 8.83-8.83 8.83z"/><path class="st5" d="M379.59 88.28h-88.28c-4.87 0-8.83-3.96-8.83-8.83s3.95-8.83 8.83-8.83h88.28c4.87 0 8.83 3.96 8.83 8.83s-3.96 8.83-8.83 8.83z"/><path d="M441.38 88.28H414.9c-4.87 0-8.83-3.96-8.83-8.83s3.95-8.83 8.83-8.83h26.48c4.87 0 8.83 3.96 8.83 8.83s-3.96 8.83-8.83 8.83z" fill="#366db6"/><path class="st7" d="M441.38 123.59H353.1c-4.87 0-8.83-3.96-8.83-8.83s3.95-8.83 8.83-8.83h88.28c4.87 0 8.83 3.96 8.83 8.83s-3.96 8.83-8.83 8.83z"/><path d="M317.79 123.59h-26.48c-4.87 0-8.83-3.96-8.83-8.83s3.95-8.83 8.83-8.83h26.48c4.87 0 8.83 3.96 8.83 8.83s-3.95 8.83-8.83 8.83z" fill="#57abc1"/><path class="st9" d="M379.59 158.9h-88.28c-4.87 0-8.83-3.96-8.83-8.83s3.95-8.83 8.83-8.83h88.28c4.87 0 8.83 3.96 8.83 8.83s-3.96 8.83-8.83 8.83z"/><path d="M441.38 158.9H414.9c-4.87 0-8.83-3.96-8.83-8.83s3.95-8.83 8.83-8.83h26.48c4.87 0 8.83 3.96 8.83 8.83s-3.96 8.83-8.83 8.83z" fill="#f76363"/><path d="M441.38 194.21H353.1c-4.87 0-8.83-3.96-8.83-8.83s3.95-8.83 8.83-8.83h88.28c4.87 0 8.83 3.96 8.83 8.83s-3.96 8.83-8.83 8.83z" fill="#bf5a45"/><path d="M317.79 194.21h-26.48c-4.87 0-8.83-3.96-8.83-8.83s3.95-8.83 8.83-8.83h26.48c4.87 0 8.83 3.96 8.83 8.83s-3.95 8.83-8.83 8.83z" fill="#f2ecbf"/><path class="st9" d="M441.38 300.14H353.1c-4.87 0-8.83-3.95-8.83-8.83 0-4.87 3.95-8.83 8.83-8.83h88.28c4.87 0 8.83 3.95 8.83 8.83s-3.96 8.83-8.83 8.83z"/><path class="st5" d="M317.79 300.14h-26.48c-4.87 0-8.83-3.95-8.83-8.83 0-4.87 3.95-8.83 8.83-8.83h26.48c4.87 0 8.83 3.95 8.83 8.83s-3.95 8.83-8.83 8.83z"/><path class="st7" d="M379.59 229.52h-88.28c-4.87 0-8.83-3.96-8.83-8.83s3.95-8.83 8.83-8.83h88.28c4.87 0 8.83 3.96 8.83 8.83s-3.96 8.83-8.83 8.83z"/><path class="st3" d="M441.38 229.52H414.9c-4.87 0-8.83-3.96-8.83-8.83s3.95-8.83 8.83-8.83h26.48c4.87 0 8.83 3.96 8.83 8.83s-3.96 8.83-8.83 8.83z"/><path d="M441.38 264.83H353.1c-4.87 0-8.83-3.95-8.83-8.83s3.95-8.83 8.83-8.83h88.28c4.87 0 8.83 3.96 8.83 8.83s-3.96 8.83-8.83 8.83z" fill="#ed8a19"/><path d="M317.79 264.83h-26.48c-4.87 0-8.83-3.95-8.83-8.83s3.95-8.83 8.83-8.83h26.48c4.87 0 8.83 3.96 8.83 8.83s-3.95 8.83-8.83 8.83z" fill="#c5411e"/></svg>