<svg width="77" height="21" fill="none" xmlns="http://www.w3.org/2000/svg"><path d="M4.853 16.572h7.756V20H.396V1.516h4.457v15.056zM22.029 20c-.152-.28-.288-.69-.406-1.231-.787.99-1.887 1.485-3.3 1.485-1.296 0-2.396-.39-3.302-1.168-.905-.787-1.358-1.773-1.358-2.958 0-1.49.55-2.615 1.65-3.377 1.1-.762 2.7-1.143 4.8-1.143h1.32v-.723c0-1.261-.546-1.892-1.638-1.892-1.016 0-1.524.5-1.524 1.498h-4.278c0-1.329.563-2.408 1.689-3.237 1.134-.83 2.577-1.244 4.329-1.244 1.752 0 3.136.427 4.151 1.282 1.016.855 1.536 2.027 1.562 3.517v6.08c.017 1.262.211 2.227.584 2.895V20h-4.279zm-2.678-2.793c.533 0 .973-.114 1.32-.343.355-.228.61-.486.762-.774v-2.196h-1.244c-1.49 0-2.235.668-2.235 2.005 0 .39.131.707.394.953.262.236.596.355 1.003.355zM32.033 6.264l.14 1.612c.948-1.244 2.255-1.866 3.923-1.866 1.43 0 2.496.427 3.199 1.282.71.855 1.079 2.141 1.104 3.86V20h-4.29v-8.67c0-.695-.14-1.203-.42-1.524-.279-.33-.787-.495-1.523-.495-.838 0-1.46.33-1.866.99V20h-4.278V6.264h4.011zM42.24 13.03c0-2.175.47-3.889 1.41-5.141.939-1.253 2.25-1.88 3.935-1.88 1.227 0 2.26.483 3.098 1.448V.5h4.29V20h-3.846l-.216-1.473c-.88 1.151-1.997 1.727-3.351 1.727-1.634 0-2.929-.626-3.885-1.879-.957-1.253-1.435-3.034-1.435-5.345zm4.279.267c0 2.437.71 3.656 2.132 3.656.948 0 1.625-.398 2.032-1.193v-5.23c-.39-.813-1.058-1.22-2.006-1.22-1.32 0-2.036 1.067-2.146 3.2l-.012.787zM61.918 20h-4.291V6.264h4.291V20zM57.373 2.722c0-.61.22-1.109.66-1.498.44-.39 1.012-.584 1.714-.584.703 0 1.274.194 1.714.584.44.389.66.888.66 1.498 0 .609-.22 1.108-.66 1.498-.44.39-1.011.584-1.714.584-.702 0-1.274-.195-1.714-.584-.44-.39-.66-.889-.66-1.498zm13.838 17.532c-2.108 0-3.813-.626-5.116-1.879-1.304-1.261-1.955-2.899-1.955-4.913v-.356c0-1.405.258-2.644.774-3.72.525-1.074 1.287-1.904 2.285-2.488.999-.592 2.184-.888 3.555-.888 1.93 0 3.453.6 4.57 1.803C76.441 9.005 77 10.672 77 12.814v1.662h-8.506c.153.77.487 1.376 1.003 1.816.516.44 1.185.66 2.006.66 1.354 0 2.412-.474 3.174-1.422l1.955 2.31c-.533.737-1.29 1.325-2.273 1.765a7.677 7.677 0 01-3.148.648zM70.728 9.31c-1.252 0-1.997.829-2.234 2.488h4.317v-.33c.016-.686-.157-1.215-.521-1.587-.364-.381-.884-.571-1.562-.571z" fill="#37447E"/></svg>