<svg xmlns="http://www.w3.org/2000/svg" xmlns:xlink="http://www.w3.org/1999/xlink" viewBox="0 0 597.28 344.71"><style>.st1{fill:none;stroke:#fff;stroke-width:.5;stroke-miterlimit:10}.st21{fill:#5a6275}.st31{fill:#ff7300}.st37{fill:none;stroke:#4e5687;stroke-width:.25;stroke-miterlimit:10}</style><pattern x="-76.36" y="-77.65" width="10" height="119.5" patternUnits="userSpaceOnUse" id="New_Pattern" viewBox="0 -119.5 10 119.5" overflow="visible"><path fill="none" d="M0-119.5h10V0H0z"/><path class="st1" d="M9-119.5V0M7-119.5V0M5-119.5V0M3-119.5V0M1-119.5V0"/></pattern><g id="OBJECTS"><radialGradient id="SVGID_1_" cx="162.304" cy="165.352" r="281.016" gradientUnits="userSpaceOnUse"><stop offset="0" stop-color="#2e3957"/><stop offset="1" stop-color="#0e111a"/></radialGradient><path fill="url(#SVGID_1_)" d="M597.28 344.71H0V0h597.28z"/><path d="M0 280.59v56.96c0 3.93 3.22 7.15 7.15 7.15h582.98c3.93 0 7.15-3.22 7.15-7.15v-56.96H0z" fill="#131621"/><pattern id="SVGID_2_" xlink:href="#New_Pattern" patternTransform="rotate(45.001 -7866.345 -7674.043)"/><circle cx="252.01" cy="99.87" r="43.45" opacity=".5" fill="url(#SVGID_2_)"/><pattern id="SVGID_3_" xlink:href="#New_Pattern" patternTransform="rotate(45.001 -7802.429 -7651.75)"/><path fill="url(#SVGID_3_)" d="M542.89 224.43h54.39v56.16h-54.39z"/><pattern id="SVGID_4_" xlink:href="#New_Pattern" patternTransform="rotate(45.001 -7809.604 -7667.536)"/><path fill="url(#SVGID_4_)" d="M0 33.26h19.89v113.98H0z"/><linearGradient id="SVGID_5_" gradientUnits="userSpaceOnUse" x1="6981.296" y1="216.886" x2="7029.205" y2="216.886" gradientTransform="matrix(-1 0 0 1 7167.008 0)"><stop offset="0" stop-color="#1c1f33"/><stop offset="1" stop-color="#0e101a"/></linearGradient><path fill="url(#SVGID_5_)" d="M137.91 219.91l47.8-.23-.1-5.82-47.81.13z"/><linearGradient id="SVGID_6_" gradientUnits="userSpaceOnUse" x1="6996.258" y1="304.718" x2="7007.758" y2="252.968" gradientTransform="matrix(-1 0 0 1 7167.008 0)"><stop offset="0" stop-color="#2b304f"/><stop offset="1" stop-color="#1d2136"/></linearGradient><path d="M132.8 281.05l1.02-49.28c.03-1.42.11-2.79.22-4.07.12-1.28.27-2.46.45-3.47.18-1.02.39-1.87.62-2.49.23-.62.47-1.01.72-1.1l2.07-.74 47.81-.23-2.96.73c-.35.09-.7.47-1.03 1.08-.33.61-.63 1.45-.9 2.45-.27 1-.5 2.15-.67 3.41-.18 1.25-.3 2.61-.35 4l-1.83 48.51c-.02.59-.03 1.17-.03 1.74 0 .57.02 1.12.06 1.65.03.53.08 1.04.14 1.52.06.48.13.94.21 1.36.08.42.18.8.28 1.13.1.33.22.62.34.86.12.24.25.43.39.57.14.14.28.23.43.26l12.61 2.65-49.4 1.51-8.88-2.82c-.1-.03-.21-.12-.3-.26-.1-.14-.19-.34-.28-.58-.09-.24-.17-.54-.24-.88-.07-.34-.14-.72-.21-1.15-.06-.43-.11-.89-.16-1.38-.04-.49-.08-1.01-.1-1.55-.03-.54-.04-1.1-.05-1.68 0-.56.01-1.15.02-1.75z" fill="url(#SVGID_6_)"/><path d="M178.44 267.54l1.37-36.19c.05-1.39.17-2.75.35-4 .18-1.26.41-2.42.67-3.41.27-.99.57-1.82.89-2.42l-44.02-1.53-1.87.67c-.25.09-.49.48-.72 1.1-.23.62-.44 1.47-.62 2.49-.18 1.01-.34 2.19-.45 3.47-.12 1.27-.2 2.65-.22 4.07l-.99 47.59 45.61-11.84z" opacity=".4" fill="#3c416b"/><linearGradient id="SVGID_7_" gradientUnits="userSpaceOnUse" x1="6999.148" y1="294.365" x2="7002.315" y2="325.033" gradientTransform="matrix(-1 0 0 1 7167.008 0)"><stop offset="0" stop-color="#1c1f33"/><stop offset="1" stop-color="#0e101a"/></linearGradient><path fill="url(#SVGID_7_)" d="M143.11 299.25l49.4-1.61-.11-6.03-49.4 1.51z"/><radialGradient id="SVGID_8_" cx="6999.473" cy="292.372" r="16.381" gradientTransform="matrix(-1 0 0 1 7167.008 0)" gradientUnits="userSpaceOnUse"><stop offset="0" stop-color="#798294"/><stop offset=".076" stop-color="#506c8f"/><stop offset=".083" stop-color="#486588"/><stop offset=".106" stop-color="#345275"/><stop offset=".132" stop-color="#264468"/><stop offset=".164" stop-color="#1e3c60"/><stop offset=".216" stop-color="#1b3a5e"/><stop offset=".282" stop-color="#152c48"/><stop offset=".38" stop-color="#0d1c2e"/><stop offset=".487" stop-color="#071019"/><stop offset=".609" stop-color="#03070b"/><stop offset=".756" stop-color="#010203"/><stop offset="1"/></radialGradient><path d="M190.69 291.67l-46.31 1.41s37.94-.43 46.31-1.41z" opacity=".9" fill="url(#SVGID_8_)"/><linearGradient id="SVGID_9_" gradientUnits="userSpaceOnUse" x1="7029.347" y1="259.307" x2="7017.097" y2="288.432" gradientTransform="matrix(-1 0 0 1 7167.008 0)"><stop offset="0" stop-color="#05070a"/><stop offset="1" stop-color="#080a0f"/></linearGradient><path d="M135.73 214.84c-.36.15-.71.71-1.03 1.6-.32.89-.62 2.1-.87 3.54s-.47 3.11-.63 4.92c-.16 1.81-.27 3.78-.31 5.81l-1 48.87c-.02 1.01-.02 2.02-.01 3a70.628 70.628 0 00.28 5.6 52 52 0 00.28 2.48c.11.78.23 1.48.36 2.1.13.62.27 1.16.42 1.6.15.45.31.81.47 1.07.17.26.34.43.52.5l8.89 3.31-.11-6.13-8.88-2.82c-.1-.03-.21-.12-.3-.26-.1-.14-.19-.34-.28-.58-.09-.24-.17-.54-.24-.88-.07-.34-.14-.72-.21-1.15-.06-.43-.11-.89-.16-1.38-.04-.49-.08-1.01-.1-1.55-.03-.54-.04-1.1-.05-1.68-.01-.58 0-1.17.01-1.77l1.02-49.28c.03-1.42.11-2.79.22-4.07.12-1.28.27-2.46.45-3.47.18-1.02.39-1.87.62-2.49.23-.62.47-1.01.72-1.1l2.07-.74-.1-5.92-2.05.87z" fill="url(#SVGID_9_)"/><linearGradient id="SVGID_10_" gradientUnits="userSpaceOnUse" x1="7128.153" y1="74.162" x2="7123.82" y2="222.162" gradientTransform="matrix(-1 0 0 1 7167.008 0)"><stop offset="0" stop-color="#1c1f33"/><stop offset="1" stop-color="#0e101a"/></linearGradient><path d="M34.15 90.21c.17-.75.44-1.45.79-2.07.35-.62.79-1.17 1.29-1.62.5-.46 1.08-.82 1.7-1.07 2.2-.9 4.4-1.79 6.61-2.69-.63.26-1.2.62-1.71 1.08-.51.46-.94 1.01-1.29 1.63s-.62 1.33-.79 2.08c-.17.76-.24 1.58-.19 2.43l7.65 142.63-6.76 1.66-7.49-141.64c-.05-.85.02-1.67.19-2.42z" fill="url(#SVGID_10_)"/><radialGradient id="SVGID_11_" cx="7117.912" cy="232.681" r="120.783" gradientTransform="matrix(-1 0 0 1 7167.008 0)" gradientUnits="userSpaceOnUse"><stop offset="0" stop-color="#798294"/><stop offset=".222" stop-color="#506c8f"/><stop offset=".234" stop-color="#486588"/><stop offset=".278" stop-color="#345275"/><stop offset=".327" stop-color="#264468"/><stop offset=".386" stop-color="#1e3c60"/><stop offset=".485" stop-color="#1b3a5e"/><stop offset=".528" stop-color="#152c48"/><stop offset=".592" stop-color="#0d1c2e"/><stop offset=".663" stop-color="#071019"/><stop offset=".743" stop-color="#03070b"/><stop offset=".84" stop-color="#010203"/><stop offset="1"/></radialGradient><path d="M40.46 91.25c-.03-.64.02-1.25.11-1.83 0 .19-.02.37-.01.56l7.65 142.63-.27.07-7.48-141.43z" opacity=".7" fill="url(#SVGID_11_)"/><path d="M47.33 82.36a5.92 5.92 0 00-2.77.39c-.84.34-1.59.87-2.2 1.56-.61.69-1.1 1.54-1.41 2.49-.31.96-.46 2.03-.4 3.18l7.65 142.63 226.63 4.04-9.96-126.6c-.08-1.02-.32-2-.68-2.91-.36-.91-.84-1.74-1.41-2.46s-1.23-1.32-1.95-1.75c-.72-.44-1.49-.72-2.28-.79L47.33 82.36z" fill="#3c416b"/><linearGradient id="SVGID_12_" gradientUnits="userSpaceOnUse" x1="6896.053" y1="247.445" x2="7125.564" y2="247.445" gradientTransform="matrix(-1 0 0 1 7167.008 0)"><stop offset="0" stop-color="#05070a"/><stop offset="1" stop-color="#080a0f"/></linearGradient><path d="M48.2 232.61l1.01 18.89a9.999 9.999 0 002.48 6.1c.71.78 1.53 1.41 2.43 1.85.9.44 1.87.68 2.88.69l213.95.85-7.46 1.3-213.3-.68c-1.01 0-1.98-.25-2.87-.68-.9-.44-1.72-1.06-2.42-1.84a9.5 9.5 0 01-1.71-2.72c-.42-1.02-.69-2.15-.75-3.33l-.99-18.76 6.75-1.67z" fill="url(#SVGID_12_)"/><linearGradient id="SVGID_13_" gradientUnits="userSpaceOnUse" x1="7007.773" y1="248.513" x2="7086.106" y2="343.847" gradientTransform="matrix(-1 0 0 1 7167.008 0)"><stop offset="0" stop-color="#2b304f"/><stop offset="1" stop-color="#1d2136"/></linearGradient><path d="M48.2 232.61l1.01 18.89a9.999 9.999 0 002.48 6.1c.71.78 1.53 1.41 2.43 1.85.9.44 1.87.68 2.88.69l213.95.85c.8 0 1.55-.21 2.21-.59.66-.38 1.24-.94 1.71-1.63s.83-1.51 1.05-2.42c.22-.91.3-1.91.22-2.96l-1.32-16.74-226.62-4.04z" fill="url(#SVGID_13_)"/><path d="M55.65 193.23l2.35.05-.95-17.65-2.35-.09zm-4.29-80l2.34.18-.93-17.22-2.33-.2zm31.8 24.2l8.62.53-.15-2.44-8.61-.55zm44.63.39l.16 2.38 49 3.04-.17-2.3z" fill="#5486eb"/><path d="M97.8 163.68l.15 2.46 26.28 1.13-.16-2.41zm7.04 16.71l20.29.68-.16-2.42-20.29-.72zm-4.33 28.08l26.42.39-.16-2.45-26.41-.43zm6.93 14.26l20.39.1-.16-2.45-20.38-.13zm6.52-72.09l-23.08-1.26.15 2.46 23.08 1.22z" fill="#da646d"/><path fill="#eecd4f" d="M122.3 137.47l.16 2.39-25.3-1.57-.15-2.43z"/><path class="st21" d="M62.56 108l8.81.71-.14-2.45-8.81-.72zm.78 14.09l8.82.63-.14-2.46-8.82-.64zm.79 14.16l8.84.54-.14-2.47-8.84-.56zm1.57 28.49l8.88.38-.15-2.49-8.87-.4zm.8 14.35l8.89.3-.15-2.5-8.88-.32zm1.6 28.9l8.92.13-.15-2.53-8.91-.14zm.8 14.54l8.94.05-.15-2.53-8.93-.06zm-3.99-72.06l8.86.46-.15-2.48-8.84-.48zm2.39 43.04l8.9.21-.14-2.51-8.9-.23zm46.4-83.76l.15 2.38 33.06 2.67-.16-2.33z"/><path d="M81.53 109.53l22.38 1.8-.15-2.4-22.37-1.83zm75.7 3.8l.17 2.31 15.89 1.28-.17-2.29z" fill="#b74dd0"/><path d="M130.65 181.26l25.03.84-.17-2.37-25.02-.89zm2.73 41.6l25.15.13-.17-2.4-25.15-.17zm45.78-107.73l.17 2.28 62.71 5.05-.19-2.18z" fill="#a4d05f"/><linearGradient id="SVGID_14_" gradientUnits="userSpaceOnUse" x1="7096.568" y1="184.37" x2="6937.803" y2="71.143" gradientTransform="matrix(-1 0 0 1 7167.008 0)"><stop offset="0" stop-color="#fff" stop-opacity="0"/><stop offset="1" stop-color="#ced0d4"/></linearGradient><path d="M100.32 87.32l71.15 6.66L70.33 260.19l-13.32-.05c-1.01 0-1.98-.25-2.88-.69-.9-.44-1.72-1.07-2.43-1.85a9.413 9.413 0 01-1.72-2.75c-.43-1.03-.69-2.17-.76-3.35l-1.01-18.89-2.94-54.81 55.05-90.48z" opacity=".5" fill="url(#SVGID_14_)"/><linearGradient id="SVGID_15_" gradientUnits="userSpaceOnUse" x1="6972.87" y1="218.254" x2="6829.297" y2="115.861" gradientTransform="matrix(-1 0 0 1 7167.008 0)"><stop offset="0" stop-color="#fff" stop-opacity="0"/><stop offset="1" stop-color="#ced0d4"/></linearGradient><path d="M235.08 260.84l-75.02-.3 96.51-158.6 1.99.19c.79.07 1.56.35 2.28.79.71.44 1.37 1.04 1.95 1.75.57.72 1.05 1.55 1.41 2.46.36.91.6 1.89.68 2.91l7.1 90.18-36.9 60.62z" opacity=".5" fill="url(#SVGID_15_)"/><radialGradient id="SVGID_16_" cx="6896.705" cy="179.111" r="32.412" gradientTransform="matrix(-1 0 0 1 7167.008 0)" gradientUnits="userSpaceOnUse"><stop offset="0" stop-color="#798294"/><stop offset=".076" stop-color="#506c8f"/><stop offset=".083" stop-color="#486588"/><stop offset=".106" stop-color="#345275"/><stop offset=".132" stop-color="#264468"/><stop offset=".164" stop-color="#1e3c60"/><stop offset=".216" stop-color="#1b3a5e"/><stop offset=".282" stop-color="#152c48"/><stop offset=".38" stop-color="#0d1c2e"/><stop offset=".487" stop-color="#071019"/><stop offset=".609" stop-color="#03070b"/><stop offset=".756" stop-color="#010203"/><stop offset="1"/></radialGradient><path d="M266.71 133.41l7.19 91.39c0 .01-4.8-49.26-7.19-91.39z" opacity=".9" fill="url(#SVGID_16_)"/><radialGradient id="SVGID_17_" cx="7022.716" cy="91.433" r="56.121" gradientTransform="matrix(-1 0 0 1 7167.008 0)" gradientUnits="userSpaceOnUse"><stop offset="0" stop-color="#798294"/><stop offset=".076" stop-color="#506c8f"/><stop offset=".083" stop-color="#486588"/><stop offset=".106" stop-color="#345275"/><stop offset=".132" stop-color="#264468"/><stop offset=".164" stop-color="#1e3c60"/><stop offset=".216" stop-color="#1b3a5e"/><stop offset=".282" stop-color="#152c48"/><stop offset=".38" stop-color="#0d1c2e"/><stop offset=".487" stop-color="#071019"/><stop offset=".609" stop-color="#03070b"/><stop offset=".756" stop-color="#010203"/><stop offset="1"/></radialGradient><path d="M223.31 98.83L65.27 84.04s88.38 9.55 158.04 14.79z" opacity=".9" fill="url(#SVGID_17_)"/><linearGradient id="SVGID_18_" gradientUnits="userSpaceOnUse" x1="32.49" y1="225.864" x2="115.451" y2="225.864"><stop offset="0" stop-color="#05070a"/><stop offset="1" stop-color="#080a0f"/></linearGradient><path d="M112.1 301.05l-56.62 2.81c-4.93.25-9.3-3.94-9.7-9.32l-10.47-140.3c-.28-3.73 1.58-6.78 4.47-8.02l-2.76 1.18c-2.91 1.25-4.77 4.31-4.5 8.05l10.43 140.71c.4 5.4 4.79 9.59 9.75 9.34l56.9-2.9c1.23-.06 2.37-.44 3.37-1.05l2.49-1.54c-1 .6-2.13.98-3.36 1.04z" fill="url(#SVGID_18_)"/><linearGradient id="SVGID_19_" gradientUnits="userSpaceOnUse" x1="35.283" y1="224.746" x2="119.368" y2="224.746"><stop offset="0" stop-color="#1c1f33"/><stop offset="1" stop-color="#0e101a"/></linearGradient><path d="M99.36 150.33c4.38.37 8.26 4.6 8.67 9.44l11.29 131.72c.43 5.05-2.8 9.33-7.23 9.56l-56.62 2.81c-4.93.25-9.3-3.94-9.7-9.32L35.3 154.24c-.38-5.15 3.29-9 8.15-8.59l55.91 4.68z" fill="url(#SVGID_19_)"/><path class="st31" d="M106.36 238.76c1.57.02 2.95 1.47 3.08 3.25l.67 9.12c.13 1.78-1.04 3.23-2.62 3.23l-57.24.06c-1.75 0-3.26-1.52-3.38-3.41l-.61-9.63c-.12-1.87 1.2-3.37 2.95-3.35l57.15.73zm1.47 20.26c1.58-.01 2.96 1.43 3.09 3.22l.67 9.18c.13 1.79-1.04 3.27-2.62 3.3l-57.36 1.1c-1.75.04-3.27-1.48-3.39-3.37l-.61-9.7c-.12-1.89 1.2-3.42 2.95-3.43l57.27-.3zM73.78 169.3c7.08.51 13.63 4.06 18.52 9.35 4.86 5.26 8.13 12.31 8.68 19.91.55 7.62-1.73 14.44-5.89 19.33-4.2 4.93-10.36 7.93-17.47 7.76-7.21-.17-14.03-3.55-19.18-8.89-5.19-5.38-8.68-12.72-9.19-20.69-.04-.64.28-1.17.78-1.39.18-.08.38-.12.59-.11.24.01.47.08.67.2.49.28.85.82.89 1.43.46 7.09 3.55 13.6 8.17 18.4 4.59 4.76 10.64 7.78 17.06 7.95 6.35.16 11.83-2.49 15.6-6.88 3.73-4.36 5.78-10.44 5.28-17.25-.49-6.8-3.41-13.07-7.76-17.78-4.38-4.73-10.22-7.88-16.54-8.32-.54-.04-1.04-.41-1.3-.92a1.83 1.83 0 01-.2-.7c-.02-.22.01-.42.08-.6.18-.51.64-.85 1.21-.8z"/><path class="st21" d="M72.56 170.11c-.06.18-.09.39-.08.6.02.25.09.48.2.7-12.23-.17-21.6 9.92-21.4 23.37-.2-.12-.43-.19-.67-.2-.21-.01-.41.03-.59.11-.22-14.18 9.67-24.8 22.54-24.58z"/><linearGradient id="SVGID_20_" gradientUnits="userSpaceOnUse" x1="65.256" y1="152.336" x2="79.91" y2="152.336"><stop offset="0" stop-color="#05070a"/><stop offset="1" stop-color="#080a0f"/></linearGradient><path d="M79.32 152.33c.3.03.56.31.59.64.02.33-.2.58-.51.55l-13.54-1.17c-.31-.03-.58-.32-.6-.65-.02-.33.21-.58.52-.55l13.54 1.18z" fill="url(#SVGID_20_)"/><path d="M63.83 189.11l.33 5.08 2.65.13-.16-2.42 4.92.26-4.62 13.77 2.84.11 4.4-13.7-.18-2.67zm23.1 13.06l-.11-1.6c-.1-1.45-.51-2.6-1.24-3.45-.72-.84-1.69-1.29-2.89-1.35-.74-.04-1.34.08-1.8.35-.46.27-.75.67-.89 1.18l-.29-4.79 6.02.32-.17-2.54-8.46-.46.52 9.09 2.53.12c.14-.34.37-.6.68-.78.31-.18.68-.26 1.1-.24.72.03 1.27.26 1.67.67.39.42.62 1 .67 1.75l.11 1.6c.05.75-.09 1.32-.44 1.71-.35.39-.87.57-1.58.54-.65-.03-1.16-.2-1.55-.53-.39-.33-.63-.77-.72-1.35l-2.59-.11c.17 1.32.71 2.38 1.6 3.18.9.8 2.04 1.22 3.43 1.28 1.48.06 2.61-.32 3.4-1.15.77-.8 1.11-1.95 1-3.44z" fill="#e4e8f0"/><path d="M107.15 241.75c-.02-.29-.24-.53-.5-.53-.25 0-.44.23-.42.52.02.29.24.53.5.53s.45-.24.42-.52zm.16 2.06c-.02-.29-.25-.52-.5-.53-.26 0-.45.23-.43.52.02.29.24.53.5.53.25.01.45-.23.43-.52zm-.35 1.55c-.26 0-.45.23-.43.52.02.29.25.53.5.53s.44-.24.42-.53c-.01-.29-.24-.52-.49-.52zm-17.95-1.17c.26 0 .46-.23.44-.53-.02-.29-.25-.54-.51-.54l-36.79-.32c-.28 0-.49.24-.47.54.02.31.26.55.54.56l36.79.29zm-8.91 4.47l-27.58-.11c-.28 0-.5.24-.48.55.02.3.27.55.55.55l27.58.08c.27 0 .47-.24.45-.54-.02-.28-.26-.53-.52-.53zm9.03-2.75l-36.8-.23c-.28 0-.49.24-.48.55.02.3.26.55.55.55l36.8.2c.26 0 .46-.23.44-.53-.01-.29-.24-.53-.51-.54zm19.5 16.11c-.02-.29-.25-.52-.5-.52-.26 0-.45.24-.42.53.02.29.25.53.5.52.25-.01.44-.24.42-.53zm.15 2.08c-.02-.29-.25-.53-.5-.53-.26 0-.45.24-.43.54.02.29.25.52.5.52.26 0 .45-.24.43-.53zm-.35 1.56c-.26 0-.45.24-.43.53.02.29.25.53.5.53.26 0 .45-.24.43-.54-.02-.29-.24-.52-.5-.52zm-17.98-.85c.26 0 .46-.25.44-.54-.02-.3-.25-.54-.52-.53l-36.87.34c-.28 0-.5.25-.47.56.02.3.26.55.55.54l36.87-.37zm.12 1.73l-36.88.43c-.28 0-.5.25-.47.56.02.31.26.55.55.54l36.88-.46c.27 0 .46-.25.44-.54-.02-.29-.26-.53-.52-.53zm-9.05 2.94l-27.64.39c-.28 0-.49.26-.48.56.02.31.26.55.55.55l27.64-.42c.27 0 .47-.25.45-.55-.02-.29-.25-.53-.52-.53zM43.01 156.94c.11.01.22.06.31.16.17.18.19.46.04.62l-1.26 1.31 1.44 1.53c.17.19.19.47.04.63-.08.08-.18.12-.29.11a.47.47 0 01-.31-.16l-1.76-1.87a.55.55 0 01-.14-.33.38.38 0 01.1-.3l1.54-1.61c.08-.07.18-.1.29-.09zm38.85 130.99c.1 0 .21-.05.28-.14l1.46-1.81c.15-.18.13-.47-.04-.64a.418.418 0 00-.29-.12c-.1 0-.2.05-.28.14l-1.2 1.49-1.4-1.41a.377.377 0 00-.3-.12c-.1 0-.2.05-.28.14-.15.18-.13.46.04.64l1.71 1.72c.09.07.2.11.3.11zm1.94.99a.418.418 0 00-.29-.12c-.1 0-.21.05-.28.14l-1.2 1.49-1.4-1.41a.441.441 0 00-.3-.12c-.1 0-.21.05-.28.14-.15.18-.13.47.04.64l1.71 1.72c.08.08.19.13.29.12a.4.4 0 00.28-.14l1.46-1.82c.17-.18.15-.46-.03-.64z" fill="#fff"/><path class="st31" d="M80.77 162.2c-.05.03-.11.04-.2.03-.22-.02-.34-.15-.35-.41l-.01-.13 1.01.08-.02-.33a.803.803 0 00-.37-.65.773.773 0 00-.37-.12.685.685 0 00-.36.06c-.1.05-.18.13-.23.23-.05.1-.07.23-.06.36l.03.46c.01.14.05.27.11.38.06.11.15.2.26.27.11.07.24.11.37.12.18.01.33-.02.44-.1.11-.08.19-.2.2-.35l-.37-.03c-.01.06-.04.1-.08.13zm-.59-.83c-.01-.12.01-.22.06-.28.05-.06.13-.09.24-.08.11.01.19.05.25.12.06.07.09.17.1.3v.06l-.65-.05v-.07zm-17.38-2.01l-.66-.05-.01-.13c0-.05 0-.09.03-.11.02-.03.06-.04.11-.03l.51.04-.03-.37-.52-.04c-.16-.01-.28.02-.37.11-.09.09-.13.21-.12.36l.01.14-.47-.04.02.38.47.04.09 1.41.39.03-.09-1.41.66.05-.02-.38zm1.48 1.51l-.1-1.45-.89-.08.02.38.53.04.07 1.08-.6-.05.03.38 1.49.12-.03-.38zm-.35-1.75l.06.01c.06 0 .12-.01.16-.05.04-.04.06-.09.05-.16a.26.26 0 00-.07-.17.236.236 0 00-.16-.07l-.06-.01c-.07 0-.12.01-.16.05-.04.04-.05.09-.05.16.01.07.03.12.07.17.03.04.09.07.16.07zm2.21 1.9c-.06 0-.11-.03-.15-.07a.211.211 0 01-.06-.16l-.12-1.84-.91-.07.02.38.52.04.1 1.46a.654.654 0 00.6.64l.56.04-.03-.38-.53-.04zm1.8.17c-.05.03-.12.04-.2.03-.23-.02-.35-.16-.37-.41l-.01-.13 1.04.08-.02-.33a.935.935 0 00-.11-.38.776.776 0 00-.64-.39.742.742 0 00-.37.06c-.1.05-.18.13-.23.23-.05.1-.07.23-.06.37l.03.46c.01.14.05.28.11.38.07.11.16.2.27.27.11.07.23.11.38.12.18.01.33-.02.45-.1s.19-.2.21-.36l-.38-.03c-.02.06-.05.11-.1.13zm-.6-.84c-.01-.12.01-.22.07-.29.05-.06.13-.09.25-.08.11.01.19.05.25.12.06.07.09.17.1.3v.07l-.67-.05v-.07zm2.69-.32a.573.573 0 00-.42-.21.426.426 0 00-.3.08c-.08.06-.12.15-.12.27h-.01l-.02-.35-.37-.03.12 1.83.38.03-.08-1.15c-.01-.11.01-.2.06-.26.05-.06.12-.08.22-.07.09.01.17.04.23.11s.09.15.1.26l.08 1.16.38.03-.08-1.2c0-.21-.06-.37-.17-.5zm1.82.13a.783.783 0 00-.51-.2c-.19-.02-.35.02-.46.11-.12.09-.18.22-.19.39l.37.03c.01-.07.04-.12.09-.16.05-.04.12-.05.21-.04.1.01.17.04.22.09.05.06.09.12.09.22l.01.15-.42-.03c-.2-.01-.36.02-.46.11-.1.09-.15.22-.14.4.01.17.07.3.18.41.11.11.25.17.42.18.14.01.25-.01.33-.07.09-.06.14-.14.15-.25h.01l.02.32.37.03-.09-1.23a.655.655 0 00-.2-.46zm-.22 1.3c-.07.05-.15.07-.26.06a.4.4 0 01-.23-.09.252.252 0 01-.09-.2c0-.08.01-.15.06-.19.05-.05.1-.07.18-.06l.42.03.02.22c-.01.1-.04.18-.1.23zm2.2-1.18a.352.352 0 00-.25-.15.212.212 0 00-.19.06.3.3 0 00-.08.19h-.01a.422.422 0 00-.11-.21.31.31 0 00-.18-.09.212.212 0 00-.19.06.3.3 0 00-.08.19h-.02l-.02-.25-.31-.02.12 1.82.34.03-.09-1.36c-.01-.13.03-.2.12-.19.05 0 .09.02.11.06.03.04.04.09.05.16l.09 1.36.28.02-.09-1.36c0-.07 0-.12.02-.15.03-.03.06-.04.11-.04.04 0 .08.02.11.06.03.04.04.09.05.16l.09 1.36.33.02-.09-1.38c0-.14-.04-.26-.11-.35zm1.48 1.49c-.05.03-.12.04-.2.03-.22-.02-.35-.15-.36-.41l-.01-.13 1.03.08-.02-.33a.935.935 0 00-.11-.38.746.746 0 00-.26-.27.773.773 0 00-.37-.12.685.685 0 00-.36.06c-.1.05-.18.13-.23.23-.05.1-.07.23-.06.37l.03.46a.803.803 0 00.37.65c.11.07.23.11.37.12.18.01.33-.02.45-.1.12-.09.19-.2.2-.36l-.38-.03c-.02.06-.05.11-.09.13zm-.6-.84c-.01-.12.01-.22.07-.29.05-.06.13-.09.24-.08.11.01.19.05.25.12.06.07.09.17.1.3v.06l-.66-.04v-.07zm2.23.76l-.08-.01c-.08 0-.14.02-.18.07-.05.05-.06.12-.06.21 0 .08.03.15.09.21s.12.09.2.1l.08.01c.07.01.14-.02.18-.07.05-.05.06-.12.06-.2a.398.398 0 00-.09-.22.298.298 0 00-.2-.1zm2.01.34c-.1-.01-.16-.07-.17-.18l-.06-.9.64.05-.02-.37-.64-.05-.03-.49-.38-.03.03.49-.45-.04.03.37.45.04.06.89c.01.17.06.31.16.42.1.1.22.16.39.17l.48.04-.02-.37-.47-.04zm3.5-.42l-.22-.05c-.08-.02-.14-.04-.17-.08a.182.182 0 01-.06-.14c0-.07.02-.11.05-.14.04-.03.1-.04.19-.03l.11.01c.07 0 .13.02.17.06.05.03.07.08.08.13l.37.03a.616.616 0 00-.2-.38.82.82 0 00-.45-.17l-.11-.01c-.2-.02-.35.02-.45.1-.1.08-.15.21-.13.38.01.16.07.29.16.37.09.09.24.16.43.2l.21.05c.09.02.15.05.19.09.04.04.07.09.07.15s-.02.12-.06.15c-.04.04-.11.05-.2.05l-.13-.01c-.08 0-.14-.03-.19-.07a.19.19 0 01-.08-.15l-.38-.03c.01.16.08.3.21.4.13.1.28.17.47.18l.13.01c.21.02.37-.02.47-.1.1-.09.15-.22.14-.4a.579.579 0 00-.16-.38c-.11-.11-.26-.17-.46-.22zm2.37.88l-.45-.04c-.1 0-.16-.07-.16-.18l-.06-.89.63.05-.03-.37-.63-.05-.04-.49-.38-.03.03.49-.45-.04.02.37.45.04.06.89c.01.17.07.31.16.41.1.1.23.16.38.17l.48.04-.01-.37z"/><linearGradient id="SVGID_21_" gradientUnits="userSpaceOnUse" x1="62.779" y1="203.924" x2="87.501" y2="165.114"><stop offset="0" stop-color="#fff" stop-opacity="0"/><stop offset="1" stop-color="#ced0d4"/></linearGradient><path d="M109.77 179.98L70.26 147.9l-26.8-2.24c-4.86-.41-8.53 3.44-8.15 8.59l.43 5.71 77.53 60.84-3.5-40.82z" opacity=".5" fill="url(#SVGID_21_)"/><linearGradient id="SVGID_22_" gradientUnits="userSpaceOnUse" x1="66.839" y1="269.414" x2="87.141" y2="231.711"><stop offset="0" stop-color="#fff" stop-opacity="0"/><stop offset="1" stop-color="#ced0d4"/></linearGradient><path d="M43 257.3l61.13 44.14 7.97-.39c4.43-.22 7.66-4.51 7.23-9.56l-2.88-33.6-77.82-59.13L43 257.3z" opacity=".5" fill="url(#SVGID_22_)"/><path class="st1" d="M35.45 72.56h6.37m274.46 173.18h6.37m253.61-161.7h6.38m-3.19-3.19v6.37m-3.19 158.52h6.38m-3.19-3.19v6.38m-544-6.78h6.37"/><path class="st31" d="M253.7 86.12l-3.38-1.95 3.38-1.95z"/><path class="st37" d="M181.23 317.76a1.04 1.04 0 111.04-1.04c.01.58-.46 1.04-1.04 1.04z"/><path d="M181.23 317.21a.49.49 0 11.002-.982.49.49 0 01-.002.982z" fill="#ffbc00"/><path class="st37" d="M172.54 317.76a1.04 1.04 0 11-.002-2.082 1.04 1.04 0 01.002 2.082zm-8.7 0a1.04 1.04 0 11-.002-2.082 1.04 1.04 0 01.002 2.082zm-8.7 0a1.04 1.04 0 11-.002-2.082 1.04 1.04 0 01.002 2.082zm-8.7 0a1.04 1.04 0 11-.002-2.082 1.04 1.04 0 01.002 2.082z"/><path class="st31" d="M0 195.49h2.64v54.97H0z"/></g></svg>