<svg version="1.1" id="Capa_1" xmlns="http://www.w3.org/2000/svg" x="0" y="0" viewBox="0 0 512 512" xml:space="preserve"><path fill="#36afad" d="M.018 95.451h86.774v242.967H.018z"/><path d="M173.565 43.387H86.791v295.031h78.096a172.77 172.77 0 018.677-53.8V43.387z" fill="#195c85"/><path d="M344.57 89.316c-3.384-3.384-8.886-3.384-12.27 0l-43.387 43.387 12.27 12.27 37.252-37.252 28.575 28.575c3.384 3.384 8.886 3.384 12.27 0l63.284-63.284v39.794h17.355V52.064h-.078c.13-4.66-3.54-8.547-8.2-8.677H390.5v17.355h39.794l-57.149 57.149-28.575-28.575z" fill="#36afad"/><path d="M8.678 381.805h138.838v17.355H8.678zm0 34.709h138.838v17.355H8.678zm0 34.71h138.838v17.355H8.678z" fill="#195c85"/><path d="M260.339 183.657V0h-86.774v284.618a173.967 173.967 0 0186.774-100.961z" fill="#cfdfe8"/><path d="M347.113 165.131a144.486 144.486 0 00-17.354 0v173.287a8.68 8.68 0 008.677 8.677h173.287a144.486 144.486 0 000-17.354c-4.478-88.996-75.624-160.133-164.61-164.61z" fill="#195c85"/><path d="M494.368 347.095H338.435a8.68 8.68 0 01-8.677-8.677V165.131a172.084 172.084 0 00-69.419 18.526c-85.524 43.161-119.869 147.472-76.708 232.996s147.472 119.869 232.996 76.708c55.691-28.106 92.006-83.954 95.095-146.266h-17.354z" fill="#fdbd40"/></svg>