<svg version="1.1" id="Capa_1" xmlns="http://www.w3.org/2000/svg" x="0" y="0" viewBox="0 0 512 512" xml:space="preserve"><path d="M124.714 378.534L88.597 399.36v.069L59.33 382.616l-.069-41.652 29.267 16.744zm187.156 91.537v24.908l-28.298 16.329-29.267-16.813-.069-41.652 29.267 16.813 14.599 8.372zm141.492-81.643v24.839l-28.298 16.329-21.587-12.385 21.587-12.454z" fill="#c9ced1"/><path fill="#445c71" d="M467.961 380.679l-14.599 8.441-28.298 16.329-21.587 12.454-91.607 52.86-13.768 7.957-14.599-8.372-29.267-16.813-129.522-74.309L88.528 358.4l-43.866-25.185-.208-78.391-.208-78.392-.207-78.391L213.829 0l253.509 145.505.416 156.783z"/><path fill="#668892" d="M297.894 400.329L44.454 254.824l-.208-78.392 253.44 145.505z"/><path fill="#a5b4b4" d="M311.87 470.763v24.908L283.572 512l-.069-41.652 14.599 8.372z"/><g fill="#74e1c5"><ellipse transform="rotate(-120.331 83.524 316.417)" cx="83.527" cy="316.415" rx="20.611" ry="11.901"/><ellipse transform="rotate(-120.331 83.293 238.04)" cx="83.295" cy="238.038" rx="20.611" ry="11.901"/></g><path d="M273.484 367.385a6.919 6.919 0 01-6.919-6.899l-.088-26.676a6.919 6.919 0 016.899-6.939h.02a6.919 6.919 0 016.919 6.899l.088 26.676a6.918 6.918 0 01-6.899 6.939h-.02zm-19.5-11.189a6.919 6.919 0 01-6.919-6.899l-.088-26.682a6.918 6.918 0 016.899-6.939h.02a6.919 6.919 0 016.919 6.899l.088 26.682a6.92 6.92 0 01-6.899 6.939h-.02zm-19.5-11.189a6.919 6.919 0 01-6.919-6.899l-.088-26.682a6.918 6.918 0 016.898-6.939h.02a6.919 6.919 0 016.919 6.899l.088 26.682a6.918 6.918 0 01-6.898 6.939h-.02zm-19.5-11.189a6.919 6.919 0 01-6.919-6.899l-.088-26.682a6.92 6.92 0 016.899-6.939h.02a6.92 6.92 0 016.919 6.899l.088 26.682a6.918 6.918 0 01-6.898 6.939h-.021zm-19.5-11.196a6.919 6.919 0 01-6.919-6.899l-.088-26.676a6.918 6.918 0 016.898-6.939h.02a6.919 6.919 0 016.919 6.899l.088 26.676a6.92 6.92 0 01-6.899 6.939h-.019zm-19.5-11.19a6.919 6.919 0 01-6.919-6.899l-.088-26.676a6.92 6.92 0 016.899-6.939h.02a6.919 6.919 0 016.919 6.899l.088 26.676a6.918 6.918 0 01-6.898 6.939h-.021z" fill="#445c71"/><path fill="#394f63" d="M467.546 223.896l-169.86 98.041-.207-78.391L44.039 98.041 213.829 0l253.509 145.505z"/><path fill="#4f6f7f" d="M467.754 302.288l-169.86 98.041-.208-78.392 169.86-98.041z"/><path d="M467.961 380.679l-14.599 8.441-28.298 16.329-21.587 12.454-91.607 52.86-13.768 7.957-.208-78.391 169.86-98.041zm0-157.495l-14.599 8.441-28.298 16.328-21.587 12.454-91.607 52.861-13.768 7.957-.208-78.392 169.86-98.041z" fill="#394f63"/><ellipse transform="rotate(-120.331 83.146 159.608)" cx="83.147" cy="159.606" rx="20.611" ry="11.901" fill="#74e1c5"/><path d="M273.687 445.784a6.919 6.919 0 01-6.919-6.899l-.088-26.682a6.92 6.92 0 016.899-6.939h.02a6.919 6.919 0 016.919 6.899l.088 26.682a6.92 6.92 0 01-6.899 6.939h-.02zm-19.5-11.189a6.919 6.919 0 01-6.919-6.899l-.088-26.682a6.92 6.92 0 016.899-6.939h.02a6.919 6.919 0 016.919 6.899l.088 26.682a6.919 6.919 0 01-6.899 6.939h-.02zm-19.5-11.19a6.919 6.919 0 01-6.919-6.899l-.088-26.682a6.919 6.919 0 016.899-6.939h.02a6.919 6.919 0 016.919 6.899l.088 26.682a6.92 6.92 0 01-6.899 6.939h-.02zm-19.5-11.189a6.919 6.919 0 01-6.919-6.899l-.088-26.682a6.92 6.92 0 016.899-6.939 7.007 7.007 0 016.939 6.899l.088 26.682a6.919 6.919 0 01-6.899 6.939h-.02zm-19.494-11.195a6.919 6.919 0 01-6.919-6.899l-.088-26.676a6.92 6.92 0 016.899-6.939h.02a6.919 6.919 0 016.919 6.899l.088 26.676a6.919 6.919 0 01-6.899 6.939h-.02zm-19.5-11.19a6.919 6.919 0 01-6.919-6.899l-.088-26.682a6.919 6.919 0 016.899-6.939h.02a6.919 6.919 0 016.919 6.899l.088 26.682a6.92 6.92 0 01-6.899 6.939h-.02zm97.081-100.845a6.919 6.919 0 01-6.919-6.899l-.088-26.676a6.92 6.92 0 016.899-6.939h.02a6.919 6.919 0 016.919 6.899l.088 26.676a6.92 6.92 0 01-6.899 6.939h-.02zm-19.5-11.189a6.919 6.919 0 01-6.919-6.899l-.088-26.682a6.919 6.919 0 016.899-6.939h.02a6.919 6.919 0 016.919 6.899l.088 26.682a6.92 6.92 0 01-6.899 6.939h-.02zm-19.492-11.189a6.919 6.919 0 01-6.919-6.899l-.088-26.682a6.92 6.92 0 016.899-6.939h.02a6.919 6.919 0 016.919 6.899l.088 26.682a6.92 6.92 0 01-6.899 6.939h-.02zm-19.501-11.189a6.919 6.919 0 01-6.919-6.899l-.088-26.682a6.92 6.92 0 016.899-6.939h.02a6.919 6.919 0 016.919 6.899l.088 26.682a6.92 6.92 0 01-6.899 6.939h-.02zm-19.5-11.189a6.919 6.919 0 01-6.919-6.899l-.088-26.682a6.92 6.92 0 016.899-6.939h.02a6.919 6.919 0 016.919 6.899l.088 26.682a6.919 6.919 0 01-6.899 6.939h-.02zm-19.5-11.196a6.919 6.919 0 01-6.919-6.899l-.088-26.676a6.919 6.919 0 016.899-6.939h.02a6.919 6.919 0 016.919 6.899l.088 26.676a6.92 6.92 0 01-6.899 6.939h-.02z" fill="#668892"/><path d="M453.362 389.12v24.839l-28.298 16.329v-24.839zm-328.648-9.894l-36.117 20.826-.069-41.652z" fill="#a5b4b4"/></svg>