<svg version="1.1" id="Capa_1" xmlns="http://www.w3.org/2000/svg" x="0" y="0" viewBox="0 0 512.009 512.009" xml:space="preserve"><path d="M511.92 341.343a64.192 64.192 0 01-28.8 53.333H28.72c-29.455-19.538-37.495-59.255-17.957-88.711a64 64 0 0153.157-28.623h384c35.302.106 63.894 28.698 64 64.001z" fill="#455a64"/><path d="M511.92 448.009c-.105 35.302-28.698 63.895-64 64h-384C28.574 511.911-.001 483.178.097 447.832a64 64 0 0128.623-53.157h454.4a64.196 64.196 0 0128.8 53.334z" fill="#607d8b"/><path d="M75.013 469.343c-5.891 0-10.667-4.776-10.667-10.667-.001-5.809 4.646-10.551 10.453-10.667h.213c5.891 0 10.667 4.776 10.667 10.667s-4.775 10.667-10.666 10.667z" fill="#ffc107"/><path d="M447.92 469.343c-11.782 0-21.333-9.551-21.333-21.333 0-11.782 9.551-21.333 21.333-21.333s21.333 9.551 21.333 21.333c0 11.782-9.551 21.333-21.333 21.333z" fill="#4caf50"/><path d="M117.68 469.343c-5.891 0-10.667-4.776-10.667-10.667-.001-5.809 4.646-10.551 10.453-10.667h.213c5.891 0 10.667 4.776 10.667 10.667s-4.775 10.667-10.666 10.667zM75.013 362.676c-5.891 0-10.667-4.776-10.667-10.667-.001-5.809 4.646-10.551 10.453-10.667h.213c5.891 0 10.667 4.776 10.667 10.667.001 5.892-4.775 10.667-10.666 10.667z" fill="#ffc107"/><path d="M447.92 362.676c-11.782 0-21.333-9.551-21.333-21.333s9.551-21.333 21.333-21.333 21.333 9.551 21.333 21.333-9.551 21.333-21.333 21.333z" fill="#4caf50"/><path d="M117.68 362.676c-5.891 0-10.667-4.776-10.667-10.667-.001-5.809 4.646-10.551 10.453-10.667h.213c5.891 0 10.667 4.776 10.667 10.667 0 5.892-4.775 10.667-10.666 10.667z" fill="#ffc107"/><path d="M367.258 78.239C345.874 30.382 298.224-.311 245.807.01 177.946-.8 120.78 50.515 114.287 118.069c-34.577 4.507-60.584 33.742-61.035 68.608.585 38.815 32.48 69.832 71.296 69.333h242.517c49.797.665 90.736-39.101 91.52-88.896-.794-49.711-41.613-89.433-91.327-88.875z" fill="#bbdefb"/></svg>