<svg xmlns="http://www.w3.org/2000/svg" viewBox="0 0 750 500"><style>.st0{fill:#1a2030}.st1{fill:#fcf1eb}.st2{fill:#d1b8ac}.st3{fill:#f8f8f8}.st7{fill:#e77a42}.st9{fill:#c2adb9}.st10{fill:#e35d44}.st11{fill:#fff5f2}.st12{fill:#abc5c6}.st13{fill:#f7f6f5}.st14{fill:#e5e1dc}.st15{fill:#8a9fa0}.st16{fill:#7e3a2d}.st20{fill:#efefef}.st21{fill:#ebf7f7}.st22{fill:none;stroke:#7e3a2d;stroke-width:2;stroke-linecap:round;stroke-linejoin:round;stroke-miterlimit:10}.st23{fill:#ffeaac}.st24{fill:#424242}.st25{fill:#252727}.st26{fill:#456997}.st27{fill:#254f79}.st28{fill:#ffa07f}.st29{fill:#ff7d6f}.st30{fill:#ffbf90}.st31{fill:#ffdd9d}.st32{fill:#fc5b68}.st34{fill:#cf4a57}.st37{fill:#fff}.st39{fill:#e37b3c}.st41{fill:#af97a6}.st43{fill:#b74030}.st44{fill:#ffeede}.st45{fill:#55062c}.st46{fill:#161818}</style><g id="BACKGROUND"><path class="st0" d="M0 0h750v500H0z"/><path class="st1" d="M86.25 365.46c0 1.13-.91 2.04-2.04 2.04s-2.04-.91-2.04-2.04.91-2.04 2.04-2.04 2.04.91 2.04 2.04z"/></g><g id="OBJECTS"><ellipse class="st2" cx="192.73" cy="461.89" rx="61.29" ry="11.31"/><path class="st3" d="M178.43 241.84c-18.04 6.17-31.55 21.87-39.43 39.23-7.89 17.36-10.9 36.47-13.84 55.32-11-.91-22.32 3.04-30.36 10.61-8.04 7.56-12.69 18.61-12.46 29.65-19.19.36-37.07 15.49-40.61 34.36h163.74l-27.04-169.17z"/><circle class="st3" cx="69" cy="327.44" r="4.59"/><path class="st3" d="M579.14 241.84c18.04 6.17 31.55 21.87 39.43 39.23 7.89 17.36 10.9 36.47 13.84 55.32 11-.91 22.32 3.04 30.36 10.61 8.04 7.56 12.69 18.61 12.46 29.65 19.19.36 37.07 15.49 40.61 34.36H552.1l27.04-169.17zm104.85 85.6a4.59 4.59 0 109.18 0c0-2.54-2.05-4.59-4.59-4.59s-4.59 2.05-4.59 4.59z"/><path class="st0" d="M0 408.11h750V500H0z"/><ellipse class="st2" cx="371.31" cy="422.63" rx="301.67" ry="10.16"/><ellipse class="st2" cx="532.47" cy="457.99" rx="145.77" ry="11.31"/><path d="M186.07 287.26l-8.98-7.02c.28-2.45.28-4.93 0-7.38l8.99-7.03a4.409 4.409 0 001.06-5.62l-9.34-16.15a4.42 4.42 0 00-5.4-1.95l-10.59 4.26a36.326 36.326 0 00-6.36-3.69l-1.62-11.25a4.338 4.338 0 00-4.32-3.75h-18.73c-2.16-.01-4 1.57-4.3 3.71l-1.63 11.28a37.311 37.311 0 00-6.35 3.7l-10.62-4.27c-2.01-.79-4.3.02-5.36 1.91l-9.35 16.18a4.375 4.375 0 001.06 5.64l8.98 7.02c-.28 2.45-.28 4.93 0 7.38l-8.99 7.02a4.398 4.398 0 00-1.07 5.61l9.34 16.16a4.416 4.416 0 005.4 1.95l10.59-4.26c1.99 1.44 4.12 2.68 6.36 3.7l1.63 11.24a4.326 4.326 0 004.3 3.75h18.73c2.16.02 4.01-1.57 4.31-3.71l1.63-11.28c2.23-1.02 4.36-2.26 6.35-3.7l10.63 4.27c2.01.79 4.3-.02 5.36-1.91l9.38-16.25c1.05-1.85.59-4.21-1.09-5.56zm-45.94 9.65c-11.24 0-20.36-9.11-20.36-20.36 0-11.24 9.11-20.36 20.36-20.36s20.36 9.11 20.36 20.36c-.01 11.24-9.12 20.35-20.36 20.36zm472.51-166.79l-11.59-9.06c.36-3.16.36-6.36 0-9.52l11.6-9.07a5.687 5.687 0 001.37-7.24l-12.06-20.84a5.704 5.704 0 00-6.97-2.51l-13.66 5.49a46.667 46.667 0 00-8.21-4.76l-2.1-14.51a5.575 5.575 0 00-5.58-4.83h-24.16a5.567 5.567 0 00-5.55 4.79l-2.1 14.55a48.486 48.486 0 00-8.19 4.77l-13.7-5.51c-2.6-1.02-5.55.03-6.92 2.46l-12.07 20.88a5.645 5.645 0 001.37 7.28l11.59 9.06c-.36 3.16-.36 6.36 0 9.52l-11.6 9.06a5.678 5.678 0 00-1.38 7.24l12.05 20.84a5.692 5.692 0 006.97 2.51l13.66-5.49c2.57 1.86 5.32 3.46 8.21 4.77l2.1 14.5a5.572 5.572 0 005.55 4.84h24.16c2.79.02 5.17-2.03 5.56-4.79l2.1-14.55c2.88-1.32 5.63-2.92 8.19-4.77l13.71 5.51c2.6 1.02 5.55-.03 6.92-2.46l12.1-20.96c1.4-2.42.8-5.46-1.37-7.2zm-59.26 12.45c-14.51 0-26.27-11.76-26.27-26.27s11.76-26.27 26.27-26.27 26.27 11.76 26.27 26.27c-.03 14.51-11.77 26.26-26.27 26.27z" fill="#e2c4b3"/><circle transform="rotate(-45.001 133.302 82.004)" cx="133.3" cy="82" fill="#ddb49f" r="23.15"/><path fill="none" stroke="#fff" stroke-miterlimit="10" d="M130.06 69.5l2.71 16.97 13.73-2.19"/><path class="st7" d="M398.85 60.78h41.49v50.84h-41.49zm-4.67 5.52v3.68h4.67v-9.19a5.566 5.566 0 00-4.67 5.51z"/><path class="st7" d="M403.54 75.49h6.57v6.57h-6.57zm9.82 0h22.29v1.64h-22.29zm0 4.93h22.29v1.64h-22.29zm-9.82 9.93h6.57v6.57h-6.57zm9.82 0h22.29v1.64h-22.29zm0 4.93h22.29v1.64h-22.29z"/><path class="st7" d="M407.38 80.14l-2.73-2.36 1.1-1.28 1.4 1.22 2.86-3.6 1.32 1.05zm0 14.48l-2.73-2.36 1.1-1.27 1.4 1.21 2.86-3.6 1.32 1.05z"/><path fill="#f6ded4" d="M392.18 56.64h41.49v50.84h-41.49z"/><path class="st9" d="M387.51 62.16v3.68h4.67v-9.19a5.575 5.575 0 00-4.67 5.51z"/><path class="st10" d="M396.87 71.35h6.57v6.57h-6.57z"/><path class="st9" d="M406.7 71.35h22.29v1.64H406.7zm0 4.93h22.29v1.64H406.7z"/><path class="st10" d="M396.87 86.2h6.57v6.57h-6.57z"/><path class="st9" d="M406.7 86.2h22.29v1.64H406.7zm0 4.94h22.29v1.64H406.7z"/><path class="st11" d="M400.72 75.99l-2.73-2.36 1.1-1.27 1.4 1.21 2.86-3.59 1.31 1.04zm0 14.49l-2.73-2.36 1.1-1.28 1.4 1.22 2.86-3.6 1.31 1.05z"/><path class="st12" d="M570.98 399.25H183.9c-5.36 0-9.7-4.34-9.7-9.7V134.87c0-5.36 4.34-9.7 9.7-9.7h387.08c5.36 0 9.7 4.34 9.7 9.7v254.68c0 5.36-4.34 9.7-9.7 9.7z"/><path transform="rotate(90 377.442 262.208)" class="st13" d="M253.24 71.8h248.4v380.81h-248.4z"/><path class="st14" d="M515.34 369.86H276.48c-6.39 0-11.58-5.18-11.58-11.58V188.05c0-6.39 5.18-11.58 11.58-11.58h238.86c6.39 0 11.58 5.18 11.58 11.58v170.23c0 6.4-5.18 11.58-11.58 11.58z"/><path class="st15" d="M609.21 422.49H145.67v-10.11c0-9.5 7.7-17.19 17.19-17.19h426.56c10.93 0 19.79 8.86 19.79 19.79v7.51z"/><path class="st12" d="M215.26 164.01h288.41v190.51H215.26z"/><path class="st16" d="M501.09 171.15H218c-2.57 0-4.66-2.09-4.66-4.66v-2.78c0-2.57 2.09-4.66 4.66-4.66h283.09c2.57 0 4.66 2.09 4.66 4.66v2.78c0 2.57-2.09 4.66-4.66 4.66z"/><path fill="none" d="M263.11 199.02h40.96v2.74h-40.96z"/><circle transform="rotate(-80.422 343.878 281.348)" cx="343.9" cy="281.36" fill="#86b2b2" r="51.28"/><ellipse transform="rotate(-69.788 353.393 269.787)" cx="353.4" cy="269.78" rx="37.28" ry="98.39" fill="none" stroke="#fff" stroke-miterlimit="10" stroke-dasharray="4.0012,4.0012"/><path class="st20" d="M387.49 340.57h.08l.23.03 14.3.06c.85 0 1.54-.71 1.55-1.58l.06-15.18c.42-.57 1.18-.85 1.87-.49 1.27.67 2.71 1.05 4.23 1.05 7.2.01 12.52-8.34 7.33-16.16a4 4 0 00-.99-1.02c-3.75-2.67-7.58-2.69-10.53-1.16-.67.34-1.4.12-1.83-.4l.06-15.08c.01-.85-.65-1.54-1.46-1.58l-.5-.1-13.6-.01c-.98-.17-1.61-1.28-1.12-2.22.67-1.33 1.06-2.84 1.07-4.45.02-5.43-4.3-9.83-9.6-9.72-5.3-.14-9.64 4.24-9.65 9.67 0 1.61.38 3.12 1.06 4.46.48.95-.15 2.05-1.14 2.22l-13.61-.06-.49.09c-.58.02-1.08.39-1.32.91.08.24.13.49.13.76l-.03 15.57-.85-.17c-.39.17-.83.2-1.25-.02l-.26-.12c-.46 0-.93.04-1.42.11l-.12.02-.12-.02c-.54-.1-1.02-.19-1.48-.19-4.36.01-7.98 3.38-8.52 7.76-.05.38-.08.76-.08 1.15 0 1.57.42 3.25 1.33 4.95.2.37.39.74.64 1.11.21.31.49.6.79.81 2 1.42 3.97 1.99 5.8 1.99.49 0 .97-.04 1.44-.12l.12-.02.12.02c.4.07.71.13.99.16.24-.1.48-.2.72-.32.5-.26 1.03-.17 1.44.1l.68-.14-.02 15.81c0 .2-.04.4-.08.59.25.52.76.9 1.37.9l14.3.01.22-.03h.09c1.22 0 1.89-1.38 1.24-2.44-1.89-3.07-2.13-7.3.52-11.43.58-.7 1.24-1.31 1.99-1.82 1.8-1.08 3.62-1.57 5.33-1.59 1.71.03 3.52.53 5.31 1.61.74.51 1.41 1.12 1.98 1.83 2.63 4.14 2.36 8.38.46 11.44-.67 1.06 0 2.45 1.22 2.45z"/><path class="st16" d="M359.24 257.03l-.04.08-.02.03-.13.31c-.05.34.17.72.5.85l13.37 1.91c.19.03.34.1.51.17.47.09.87.31 1.19.63l.15-.41 2.24-15.01c.5-.51 1.29-.67 1.92-.22 1.16.84 2.53 1.42 4.04 1.64 7.13 1.04 13.59-6.45 9.57-14.94a3.98 3.98 0 00-.83-1.15c-3.32-3.18-7.12-3.75-10.26-2.66-.7.24-1.4-.08-1.75-.66l2.23-14.92c.12-.84-.42-1.62-1.23-1.77l-.48-.16-13.46-1.96c-.95-.31-1.41-1.5-.79-2.36a9.925 9.925 0 001.7-4.25c.8-5.37-2.85-10.34-8.11-10.99-5.22-.9-10.15 2.81-10.94 8.18-.23 1.59-.07 3.14.41 4.56.34 1-.45 2.01-1.44 2.03l-13.46-2.01-.5.02c-.82-.08-1.56.51-1.68 1.35l-2.18 14.92c-.5.45-1.26.56-1.86.12-2.69-1.95-6.49-2.5-10.59-.42-.42.21-.81.51-1.13.86-6.3 6.96-2.27 16 4.85 17.06 1.51.23 2.99.07 4.34-.41.73-.25 1.45.14 1.77.77l-2.19 15.02c-.03.19-.01.37.03.55.39-.21.84-.3 1.31-.26.17-.02.34-.05.53-.02l13.36 1.96c.35-.02.68-.33.72-.66l-.03-.34-.01-.04-.01-.04-.01-.05c-.48-1.48-.65-3.09-.42-4.74l.01-.04v-.03c.15-1.04.49-1.98.88-2.86 1.85-4.08 6.11-6.69 10.69-6.02l.24.04.2.03c4.58.66 7.93 4.37 8.54 8.81.13.95.18 1.94.03 2.99v.02c-.26 1.67-.89 3.19-1.78 4.49z"/><path class="st7" d="M315.05 283.73c1.56-1.98 3.79-3.43 6.44-3.91l.15.79-.14-.79c.64-.11 1.23-.1 1.77-.11.52-.16 1.05-.31 1.58-.41.26-.05.53-.08.8-.1l-2.53-14.3a.823.823 0 00-.84-.7h-.06l-.12.02-.12-.02h-.25l-14.23 2.57h-.07c-1.15 0-2.08-.78-2.37-1.84l-.08-.21c-.06-.34-.04-.69.06-1.05h-.01l.02-.09.01-.03c.4-1.39.51-2.88.24-4.4v-.02c-.16-.89-.48-1.73-.88-2.55-1.8-3.64-5.69-5.83-9.74-5.1l-.21.04h-.04l-.22.03c-1.9.34-3.54 1.28-4.8 2.6a9.48 9.48 0 00-2.58 5.56c-.06.52-.07 1.03-.05 1.54.01.38.03.77.1 1.15v.03c.27 1.52.89 2.88 1.76 4.04l.03.03.02.04.03.04h-.01c.21.3.35.63.41.96v.2c.1 1.1-.51 2.16-1.59 2.56l-.07.02-14.24 2.52-.11.04-.12.05-.11.06-.12.03c-.4.09-.69.5-.61.97l2.88 15.99-.15.26a2.44 2.44 0 01-1.67 1.2c-.36.06-.75.05-1.12-.08a8.847 8.847 0 00-4.2-.27c-1.91.34-3.89 1.33-5.73 3.2-.28.28-.52.63-.67 1-1.05 2.41-1.27 4.68-.92 6.67.92 5.13 5.68 8.54 10.6 7.67h.02c1.45-.26 2.75-.85 3.85-1.7.3-.23.65-.38 1-.44.79-.14 1.57.15 2.12.67l.19.19 2.89 16.05c.09.48.52.77.94.69l14.82-2.67.23-.08.06-.01.09-.02c.24-.05.37-.16.49-.32.1-.17.15-.4.11-.62l-.23-.47c-1.34-1.49-2.3-3.38-2.68-5.52-.4-2.24-.16-4.75.91-7.34l.02-.05.02-.04c.51-.9 1.14-1.73 1.88-2.45l.02-.02.01-.02c1.78-1.55 3.71-2.47 5.63-2.85h.03c1.93-.31 4.06-.12 6.26.73l.02.01.02.01c.94.42 1.82.98 2.6 1.65l.04.03.03.03c1.9 2.06 3 4.33 3.39 6.58.38 2.13.14 4.23-.6 6.1l-.06.52c.04.22.16.42.32.54.16.11.33.17.57.13l.14-.03h.06l.18-.01 14.84-2.62c.42-.07.72-.5.64-.98l-2.56-14.5c-.33.1-.67.2-1.03.26-.61.11-1.12.06-1.54.06-.51.17-1.02.32-1.56.42-2.17.39-4.6.11-7.12-1.02l-.28-.11c-.54-.26-1.04-.61-1.46-1.05a14.61 14.61 0 01-2.5-3.52c-.19-.38-.35-.76-.49-1.15-.27-.71-.49-1.42-.61-2.12-.62-3.24.27-6.43 2.16-8.84z"/><path class="st20" d="M368.45 184.16H246.22c-.59 0-1.07-.48-1.07-1.07V88.72c0-.59.48-1.07 1.07-1.07h122.23c.59 0 1.07.48 1.07 1.07v94.37c0 .59-.48 1.07-1.07 1.07z"/><path class="st7" d="M368.45 87.64H246.22c-.59 0-1.07-.48-1.07-1.07v-11.2c0-.59.48-1.07 1.07-1.07h122.23c.59 0 1.07.48 1.07 1.07v11.2c0 .59-.48 1.07-1.07 1.07z"/><circle class="st12" cx="251.8" cy="81.1" r="3.03"/><circle class="st21" cx="264.82" cy="81.1" r="3.03"/><path class="st21" d="M280.88 81.1a3.03 3.03 0 01-3.04 3.03c-1.68 0-3.03-1.36-3.03-3.03s1.36-3.04 3.03-3.04c1.68 0 3.04 1.36 3.04 3.04z"/><path class="st22" d="M352.28 107.33l-20.13 33.27c-.4.66-1.35.7-1.8.06l-15.4-21.8c-.45-.63-1.4-.6-1.8.07l-22.94 38.31c-.49.81-1.71.64-1.96-.27l-7-25.78c-.26-.97-1.59-1.08-2.01-.17l-16.17 34.93"/><path class="st12" d="M317.92 115.56c0 2.46-2 4.46-4.46 4.46s-4.46-2-4.46-4.46 2-4.46 4.46-4.46 4.46 1.99 4.46 4.46zm38.82-11.41c0 2.46-2 4.46-4.46 4.46s-4.46-2-4.46-4.46 2-4.46 4.46-4.46c2.47 0 4.46 1.99 4.46 4.46zm2.74 59.8h-27.57a1.071 1.071 0 010-2.14h27.57a1.071 1.071 0 010 2.14zm0 5.23h-27.57a1.071 1.071 0 010-2.14h27.57c.59 0 1.07.48 1.07 1.07 0 .58-.48 1.07-1.07 1.07zm0 5.22h-27.57a1.071 1.071 0 010-2.14h27.57a1.071 1.071 0 010 2.14z"/><path class="st23" d="M191.95 217.61l-7.02-2.43"/><path class="st24" d="M205.18 448.36c-1.17 4.71-2.17 13.83-2.37 15.74l-.01.97-.03 3.18 5.55.09 1.11-3.44.49-1.52.98 1.48 2.36 3.55 28.48.47.05-4.15c-.02-.2-.07-.41-.12-.63-.17-.54-.49-1.08-1.1-1.4-2.48-1.31-11.61-5.4-14.04-7.63-1.88-1.72-3.46-5.37-4.08-6.92l-17.27.21z"/><path class="st25" d="M220.7 454.72c-.03.05-.05.1-.08.14-.19.36-.32.92.13 1.14.23.12.5.09.75.04.86-.16 1.65-.54 2.42-.98.82-.48 1.69-.99 2.23-1.83.56-.86-.18-1.69-1.11-1.5-1.62.33-3.45 1.48-4.34 2.99zm2.9 2.27c-.03.05-.05.09-.08.14-.19.36-.32.92.13 1.14.23.12.5.09.75.04.86-.16 1.65-.54 2.42-.98.82-.48 1.69-.99 2.23-1.83.56-.86-.18-1.69-1.11-1.5-1.62.33-3.45 1.49-4.34 2.99zm3.59 1.53c-.03.05-.05.1-.08.14-.19.36-.32.92.13 1.14.23.12.5.09.75.04.86-.16 1.65-.54 2.42-.98.82-.48 1.69-.99 2.23-1.83.56-.86-.18-1.69-1.11-1.5-1.62.33-3.45 1.48-4.34 2.99zm14.48 5.59l-30.78.76 2.36 3.55 28.48.47.05-4.15c-.01-.2-.05-.42-.11-.63zm-38.87.96l-.03 3.18 5.54.09 1.12-3.43z"/><path class="st24" d="M161.78 464.75s8.43 6.26 10.77 6.51 14.7-2.57 14.74-4.13c.01-.55-.2-2.49-.52-4.83-.59-4.35-1.53-10.07-2.02-10.85-.75-1.19.2-8.19.2-8.19s-12.61-3.24-14.38-2.7c-1.37.42-5.86 14.6-7.84 21.05-.59 1.91-.95 3.14-.95 3.14z"/><path class="st25" d="M161.78 464.75s8.43 6.26 10.77 6.51 14.7-2.57 14.74-4.13c.01-.55-.2-2.49-.52-4.83-4.04 1.47-12.68 4.36-15.48 3.28-1.9-.74-5.51-2.46-8.56-3.97-.59 1.91-.95 3.14-.95 3.14zm10.51-10.3c1.01.42 2.1.62 3.2.75 1.18.14 2.45.28 3.6-.06 1.19-.35.99-1.5-.11-1.94-1.9-.77-4.61-1-6.59-.34l-.18.06c-.45.17-.98.54-.67 1.01.16.25.46.4.75.52zm6.59 2.37c-1.9-.77-4.61-1-6.59-.34l-.18.06c-.45.17-.98.54-.67 1.01.16.24.46.39.75.51 1.01.42 2.1.62 3.2.75 1.18.14 2.45.28 3.6-.06 1.18-.33.98-1.48-.11-1.93z"/><path class="st25" d="M178.36 460.13c-1.9-.77-4.61-1-6.59-.34l-.18.06c-.45.17-.98.54-.67 1.01.16.24.46.39.75.51 1.01.42 2.1.62 3.2.75 1.18.14 2.45.28 3.6-.06 1.18-.34.99-1.49-.11-1.93z"/><path class="st26" d="M162.28 444.32l5.01.52 20.78 2.17s12.88-60.87 13.5-65.04c.35-2.33 1.41-20.56 2.28-36.16.25-4.53.48-8.84.68-12.47.34-6.23.56-10.49.56-10.49l-5.07.3-22 1.29 1.05 53.85-16.79 66.03z"/><path class="st26" d="M200 323.05s.01.04.01.1c.12.66.79 4.64 1.74 10.23.62 3.62 1.34 7.91 2.09 12.43 2.67 15.96 5.73 34.73 5.63 36.36-.16 2.88-7.54 67.98-7.54 67.98l25.5.63s5.57-61.64 5.97-64.72c.3-2.32-2.79-37.75-4.34-54.94-.49-5.56-.82-9.22-.82-9.22l-21.07.86-7.17.29z"/><path class="st27" d="M162.28 444.32l5.01.52 14.63-63.35.02-49.06c7.15.71 13.81.98 19.82.95.94 0 1.86-.02 2.77-.04 10.83-.21 19.35-1.32 24.55-2.22-.49-5.56-.82-9.22-.82-9.22L200 323.05s.01.04.01.1l-22 1.29 1.05 53.85-16.78 66.03z"/><path class="st27" d="M202.95 340.42L214 382.34l-8.61 67.9-3.43-.08s7.38-65.1 7.54-67.98c.09-1.63-2.97-20.4-5.63-36.36-.24-1.38-.92-5.4-.92-5.4z"/><path class="st10" d="M175.46 332.02l54.5-2.17s-.89-8.77-2.27-20.62c-2.07-17.63-5.27-42.04-8.39-54.49-.78-3.13-1.55-5.5-2.31-6.82-3.47-3.67-6.17-5.81-6.55-6.11-.02-.01-.02-.02-.03-.02 0-.01-.01-.01-.01-.01h-.01l-.1-.07c-.26-.16-.53-.32-.8-.47-.9-.53-1.82-1-2.74-1.41-.28-.13-.58-.26-.87-.38-.03-.02-.06-.02-.09-.04-.29-.12-.59-.24-.88-.35-.62-.24-1.23-.46-1.83-.66-.2-.07-.4-.13-.6-.2-.6-.19-1.19-.36-1.77-.51-.77-.21-1.53-.39-2.24-.54-.18-.04-.36-.07-.54-.11-.41-.09-.83-.16-1.22-.23-.21-.04-.41-.07-.61-.11-.89-.14-1.71-.24-2.4-.31-.34-.04-.66-.07-.94-.09-1.15-.09-1.82-.1-1.82-.1l-4.01 1.54c-2 1.02-4.06 2.28-4.78 2.79-7.16 5.07-9.39 22.75-9.62 41.23-.28 24.45 2.93 50.26 2.93 50.26z"/><path class="st10" d="M174.49 322.85s-4.08 6.89.97 9.17c5.05 2.28 31.83 2.65 31.83 2.65s23.13-2.92 24.06-5.91c.93-2.99-2.85-7.82-2.85-7.82l-54.01 1.91zm59.18-44.79l-2.61.95-14.11 5.11-6.55-17.53v-24.81l.01.01c.49.38 18.72 14.6 23.26 36.27z"/><path class="st28" d="M186.94 237.77c1.67 3.13 5.95 10.02 11.79 11.36l1.75-2.45 2.48 2.4c4.28-1.02 6.38-4.31 7.42-7.29-.29-.19-.59-.37-.89-.54-.9-.53-1.81-.99-2.74-1.41-.28-.13-.58-.26-.87-.38-.03-.02-.06-.02-.09-.04-.29-.12-.59-.24-.88-.35-.62-.24-1.23-.46-1.83-.66-.2-.07-.4-.13-.6-.2-.6-.19-1.19-.36-1.77-.51-.77-.2-1.53-.38-2.24-.54-.18-.04-.36-.07-.54-.11-.41-.09-.83-.16-1.22-.23-.21-.04-.41-.07-.61-.11-.89-.14-1.71-.24-2.4-.31-.34-.04-.66-.07-.94-.09-1.15-.09-1.82-.1-1.82-.1l-4 1.56z"/><path class="st28" d="M190.95 236.23c.28.28 12.66 9.44 12.66 9.44s-.28-5.64-.42-8.58c-.04-.91-.07-1.56-.07-1.7 0-1.17 1-6.26 1-6.26l-12.49-5.71s-.2 2.58-.39 5.42c-.22 3.41-.44 7.23-.29 7.39z"/><path class="st29" d="M191.25 228.82c3.47 2.52 11.11 8.03 11.87 8.25.02.01.05.01.07.01-.04-.91-.07-1.56-.07-1.7 0-1.17 1-6.26 1-6.26l-12.49-5.71c.01 0-.19 2.57-.38 5.41z"/><path class="st28" d="M189.93 223.84s.31.9 1.71 2.14c.28.25.62.52 1 .8 1.47 1.05 15.18 6.93 17.29 6.65 2.11-.28 4.1-7.54 4.21-8.31.68-4.69 2.55-19.17 2.55-19.17-5.21-15.78-23.81-7.61-25.92-6.06-2.11 1.55-.84 23.95-.84 23.95z"/><path class="st30" d="M191.64 225.98c.28.25.62.52 1 .8 1.47 1.05 15.18 6.93 17.29 6.65 2.11-.28 4.1-7.54 4.21-8.31-1.32 3.19-2.8 7.6-4.3 7.46-2.24-.22-16.54-5.73-18.2-6.6z"/><path class="st31" d="M215.26 209.19s-3.71-2-4.43-.2c-.71 1.81-.08 1.67-.08 1.67l4.51-1.47zM195 208s5.5-4.5 7.06-2.3c.91 1.29.02 1.9.02 1.9l-7.08.4z"/><path class="st25" d="M197.8 213.69c0 1.46.74 2.64 1.64 2.64.91 0 1.64-1.18 1.64-2.64s-.74-2.64-1.64-2.64c-.91.01-1.64 1.19-1.64 2.64z"/><path class="st11" d="M196.23 212.22s.58.91 1.58 1.31c1 .41 2.05.16 2.05.16s-.58-.91-1.58-1.31c-1.01-.41-2.05-.16-2.05-.16z"/><path class="st25" d="M213.34 214.68c0 1.1-.55 1.99-1.24 1.99-.68 0-1.24-.89-1.24-1.99s.55-1.99 1.24-1.99c.68 0 1.24.9 1.24 1.99z"/><path class="st11" d="M214.4 213.72s-.43.59-1.15.88c-.71.29-1.43.17-1.43.17s.43-.59 1.15-.88c.71-.29 1.43-.17 1.43-.17z"/><path class="st32" d="M200.98 226.02c1.25.63 2.77.67 4.05.12-.44.65-1.07 1.03-1.85 1-.78-.03-1.67-.54-2.2-1.12z"/><path class="st29" d="M212.11 220.78c.22.58 1.46.64 2.79.15 1.32-.5 2.22-1.37 2-1.94-.22-.58-1.46-.64-2.79-.15-1.31.49-2.21 1.36-2 1.94zm-16.64-2.7c-.23.87 1.21 2 3.2 2.51 2 .52 3.8.23 4.02-.64.23-.87-1.21-2-3.2-2.51-1.99-.52-3.79-.23-4.02.64z"/><path class="st32" d="M198.05 222.1l.24.32c.15.21.4.49.74.82.67.64 1.8 1.38 3.21 1.74 1.41.35 2.75.23 3.65-.02.45-.12.8-.25 1.04-.37.23-.11.36-.17.36-.17s-.14.03-.39.07c-.25.05-.62.1-1.06.14-.9.07-2.13.02-3.43-.31-1.3-.33-2.41-.86-3.17-1.35-.38-.24-.68-.46-.87-.62-.2-.16-.32-.25-.32-.25z"/><path class="st29" d="M203.83 219.01c1.46 1.14 3.61 1.32 5.24.42-.26 1.26-1.5 2.29-2.78 2.2-1.29-.09-2.39-1.33-2.46-2.62z"/><path class="st32" d="M206.67 221.29c.35-.06.76-.2 1.15-.42.39-.23.73-.56.81-.97.1-.4-.1-.74-.45-1-.24-.17-.51-.25-.77-.29-.11-.02-.21-.02-.31-.02-.01-.13 0-.27 0-.43.02-.67.09-1.56.32-2.55.43-1.9 1.25-3.31 1.34-3.47-.01.19-.12 1.8-.55 3.65-.2.89-.43 1.69-.63 2.31.3-.02.62.03.95.2.28.13.54.34.74.65.2.32.26.74.17 1.11-.16.77-.79 1.22-1.3 1.43-.53.21-1.04.25-1.45.2a3 3 0 01-.93-.24c-.15-.07-.25-.13-.29-.15.09.02.56.1 1.2-.01z"/><path d="M221.01 217.95c-1.19.7-2.72.73-3.94.08-1.22-.66-2.09-1.97-2.25-3.39-.17-1.52.42-2.99.69-4.49.28-1.5.11-3.3-1.11-4.14-.81-.55-1.84-.52-2.8-.59-2.15-.14-4.3-.88-5.95-2.33-1.65-1.45-2.79-3.67-2.76-5.92-.19 1.46-1.06 2.81-2.29 3.55-2.24 1.34-5.42.67-7.25 2.58-1.29 1.36-1.38 3.49-1.43 5.4-.05 1.92-.27 4.08-1.71 5.27-1.18.98-2.89.99-4.3.41-1.21-.5-2.23-1.37-3.2-2.28-.15-.14-.3-.3-.45-.44 1.56-.8 2.06-2.81 2.04-4.63-.03-2.51-.74-4.97-.33-7.48.36-2.26 1.44-4.4 3.03-5.97 2.33-2.3 5.67-3.38 8.85-3.01 1.77.21 3.59.92 4.66 2.42 0-.14.63-.63 1.21-1.03.43-.31.82-.56.91-.61 2.13-1.2 4.58-1.43 6.96-1.37 2.31.05 4.73.42 6.76 1.62 2.93 1.71 4.57 5.23 4.89 8.72.31 3.49-.54 6.98-1.59 10.31-.06.18-.12.36-.18.55-.37 1.17-.71 2.36-.64 3.57.09 1.39.88 2.85 2.18 3.2z" fill="#fbca8c"/><path class="st31" d="M221.03 205.17c-.31 1.84-.81 3.67-1.38 5.44-.06.18-.12.36-.18.55a8.002 8.002 0 01-1.93-2.69c-.78-1.8-.95-3.91-2.05-5.51-1.48-2.15-4.2-2.81-6.59-3.67-2.41-.85-5.02-2.46-5.3-5.1-.97 2.23-3.59 3.03-5.92 3.38-2.32.35-4.91.66-6.45 2.52-1.41 1.69-1.48 4.12-1.71 6.36-.22 2.23-.88 4.73-2.8 5.71-1.25.64-2.67.43-4-.06-.15-.14-.3-.3-.45-.44 1.26-.64 1.83-2.08 1.99-3.57.04-.35.05-.72.05-1.06-.03-2.51-.74-4.97-.33-7.48.36-2.26 1.44-4.4 3.03-5.97 2.33-2.3 5.67-3.38 8.85-3.01 1.77.21 3.59.92 4.66 2.42 0-.14.63-.63 1.21-1.03.43-.31.82-.56.91-.61 2.13-1.2 4.58-1.43 6.96-1.37 2.31.05 4.73.42 6.76 1.62 2.93 1.71 4.57 5.23 4.89 8.72.14 1.61.03 3.24-.22 4.85z"/><path class="st23" d="M221.03 205.17c-.55-.7-1.04-1.46-1.48-2.21-1.68-2.95-2.95-6.26-5.39-8.56-3.8-3.6-10.22-3.66-14.09-.12-2.33-1.16-5.02-1.61-7.52-.95s-4.75 2.52-5.68 5.03c-.54 1.46-.62 3.06-.79 4.62-.17 1.56-.45 3.18-1.31 4.46-.15.23-.32.43-.51.64.04-.35.05-.72.05-1.06-.03-2.51-.74-4.97-.33-7.48.36-2.26 1.44-4.4 3.03-5.97 2.33-2.3 5.67-3.38 8.85-3.01 1.77.21 3.59.92 4.66 2.42 0-.14.63-.63 1.21-1.03.43-.31.82-.56.91-.61 2.13-1.2 4.58-1.43 6.96-1.37 2.31.05 4.73.42 6.76 1.62 2.93 1.71 4.57 5.23 4.89 8.72.14 1.62.03 3.25-.22 4.86z"/><path class="st30" d="M191.95 224.4c-2.82-.22-4.88-1.9-5.98-3.3-.25-.32-.45-.62-.6-.89-.81-1.46-1.04-6.54 1.04-7.72 1.46-.83 2.52.37 3.02 1.16.21.34.33.6.33.6l2.19 10.15z"/><path class="st28" d="M191.95 224.4c-2.82-.22-4.88-1.9-5.98-3.3-.1-.14-.18-.28-.25-.41-.81-1.46-1.04-6.54 1.04-7.72 1.18-.67 2.1-.01 2.67.68.21.34.33.6.33.6l2.19 10.15z"/><path class="st29" d="M185.75 216.52c-.1.41-.04.83.1 1.23.57 1.7 2.27 3 3.9 4.21-.49-.83-.67-1.76-.57-2.67.03-.32.1-.63.11-.95 0-1.27-2.92-4.22-3.54-1.82z"/><path class="st34" d="M190.56 222.45s-.03-.02-.09-.05c-.06-.04-.15-.08-.26-.16-.22-.15-.52-.38-.8-.73s-.54-.81-.66-1.35c-.11-.54-.09-1.18.21-1.79a.94.94 0 01.12-.22l.03-.05c.01-.01 0-.01 0-.01v-.01l-.03-.05-.06-.1c-.04-.06-.07-.13-.11-.19a8.02 8.02 0 00-1.01-1.3c-.18-.18-.35-.35-.51-.48-.17-.13-.35-.21-.53-.23a.891.891 0 00-.45.07c-.11.06-.17.13-.2.18-.03.05-.03.09-.03.09s-.01-.03 0-.09.06-.15.17-.23c.11-.08.28-.16.51-.16.23 0 .48.07.7.2.22.13.42.28.63.45.21.17.42.37.63.59.2.22.4.46.58.72.05.06.09.13.13.2l.06.1.08.14.06.1c-.01.03-.04.07-.06.1l-.08.14a.87.87 0 00-.1.19c-.25.53-.31 1.08-.26 1.58a3.443 3.443 0 001.04 2.07c.09.09.17.15.21.19.06.06.08.09.08.09z"/><path class="st10" d="M207.51 235.08c-.06 2.95 2.63 5.25 3.28 8.13.35 1.56.08 3.2-.28 4.76-.6 2.57-1.54 5.22-3.58 6.9-2.62 2.15-6.48 2.13-9.67.97-3.42-1.25-6.39-3.7-8.27-6.83-2.22-3.71-2.51-7.79-1.97-11.98.08-.66-.09-2.79.33-3.22.51-.51 3.02-.31 3.75-.35 2.57-.13 5.16-.08 7.72.15 2.93.27 5.84.76 8.69 1.47z"/><path class="st10" d="M186.94 237.77s-17.19 4.86-20.16 11.36-12.43 42.87-11.32 47.69c1.11 4.82 5.94 10.2 8.35 11.5 2.41 1.3 25.74-3.13 25.74-3.13l-.69-11.97-15.92-4.82 8.18-38.33 5.82-12.3z"/><path d="M215.63 254.99s.48 1.28 1.24 3.32c.76 2.06 1.79 4.88 2.94 7.98 1.12 3.11 2.13 5.94 2.87 8 .73 2.05 1.18 3.35 1.18 3.35s-.13-1.36-.53-3.52-1.11-5.13-2.25-8.29a53.072 53.072 0 00-3.59-7.8c-1.08-1.91-1.86-3.04-1.86-3.04zm-34.5-3.5s-.21.37-.58 1.05c-.37.67-.88 1.67-1.47 2.91a65.288 65.288 0 00-3.78 10.07 65.154 65.154 0 00-2.03 10.57c-.15 1.37-.23 2.48-.27 3.25-.04.77-.06 1.19-.06 1.19l.99-4.33c.62-2.67 1.55-6.32 2.67-10.31 1.13-4 2.25-7.59 3.11-10.19.87-2.6 1.42-4.21 1.42-4.21zm18.67 34.4c-9.37-3.14-20.06-2.29-29.16 1.04-.47.17-.1.81.37.65 9.47-3.37 18.73-3.15 28.47-.8.65.16.95-.68.32-.89z" fill="#aa1f0c"/><path class="st20" d="M241.24 309.89h-48.67l8.13-33.34h48.67z"/><path class="st12" d="M226.64 292.06c-1.7 0-3.09-1.38-3.09-3.09 0-.72.26-1.38.67-1.9-.41-.12-.84-.2-1.29-.2-2.66 0-4.82 2.16-4.82 4.82s2.16 4.82 4.82 4.82c2.6 0 4.71-2.07 4.8-4.65-.34.12-.7.2-1.09.2z"/><path d="M241.24 309.89h-57.11v-1.51c0-1.76 1.42-3.18 3.18-3.18h53.93v4.69z" fill="#ddd"/><path class="st28" d="M233.27 305.94c.79-.19 3.66 2.75 2.79 1.85-.88-.89-2.6-5.45-1.82-5.92.78-.48 5.76 4.45 5.76 4.45s-2.98-4.7-1.29-5.32c.55-.2 1.43.29 2.36 1.03-.12-1.33.03-2.42.91-2.2 2.06.51 3.14 6.35 3.14 6.35.53 6.88-10.23 4.9-10.23 4.9s-2.41-4.95-1.62-5.14z"/><path class="st10" d="M163.99 205.4l10.15 4.6-10.25.8zm12.77-4.14l.47 6.29-3.18-4.88zm-7.46 15.79l6.03-1.86-4.04 4.19z"/><path class="st11" d="M228.5 232.28l-9.62 5.63 5.27-8.83zm-4 12.81l-5.4-3.25 5.81.22z"/><path class="st13" d="M414.01 222.66c.16.1.37.05.47-.1l1.22-1.92 1.92 2.82c.07.1.21.13.31.06l1.31-.89c.03-.02.05-.04.06-.07.02-.02.03-.05.03-.08.01-.06 0-.12-.04-.17l-1.98-2.91 2.16-.64c.07-.01.14-.07.19-.14.1-.16.05-.37-.1-.47l-7.06-4.5c-.22-.14-.55.05-.52.33l1.87 8.46c.05.14.11.19.16.22z"/><path class="st14" d="M554.61 184.78H536.5c-2.18 0-3.96-1.77-3.96-3.96v-18.11c0-2.18 1.77-3.96 3.96-3.96h18.11c2.18 0 3.96 1.77 3.96 3.96v18.11c-.01 2.18-1.78 3.96-3.96 3.96zm0 36.51H536.5c-2.18 0-3.96-1.77-3.96-3.96v-18.11c0-2.18 1.77-3.96 3.96-3.96h18.11c2.18 0 3.96 1.77 3.96 3.96v18.11c-.01 2.18-1.78 3.96-3.96 3.96zm0 37.68H536.5c-2.18 0-3.96-1.77-3.96-3.96V236.9c0-2.18 1.77-3.96 3.96-3.96h18.11c2.18 0 3.96 1.77 3.96 3.96v18.11a3.969 3.969 0 01-3.96 3.96zm0 36.51H536.5c-2.18 0-3.96-1.77-3.96-3.96v-18.11c0-2.18 1.77-3.96 3.96-3.96h18.11c2.18 0 3.96 1.77 3.96 3.96v18.11c-.01 2.18-1.78 3.96-3.96 3.96zm0 37.31H536.5c-2.18 0-3.96-1.77-3.96-3.96v-18.11c0-2.18 1.77-3.96 3.96-3.96h18.11c2.18 0 3.96 1.77 3.96 3.96v18.11a3.969 3.969 0 01-3.96 3.96zm0 36.51H536.5c-2.18 0-3.96-1.77-3.96-3.96v-18.11c0-2.18 1.77-3.96 3.96-3.96h18.11c2.18 0 3.96 1.77 3.96 3.96v18.11a3.969 3.969 0 01-3.96 3.96z"/><path class="st16" d="M490.75 274.2h90.5v42.53h-90.5z"/><path class="st15" d="M605.27 462.19c-.29-.54-.49-1.28-.06-2.02 1.24-2.15 6.12-9.6 6.87-12.37.58-2.15.01-5.48-.28-6.86l13.1-8.56c3.17 2.68 8.34 8.52 9.42 9.75l-29.05 20.06z"/><path class="st37" d="M607.32 465.06L636.38 445l-2.05-2.87-29.06 20.06zm7.78-18.14c.04.02.09.04.13.06.32.15.69.47.46.86-.12.2-.33.31-.54.4-.73.32-1.51.46-2.3.53-.85.08-1.75.16-2.57-.15-.84-.32-.68-1.27.11-1.61 1.38-.57 3.32-.69 4.71-.09zm-1.08 3.04c.04.02.09.04.13.06.32.15.69.47.46.86-.12.2-.33.31-.54.4-.73.32-1.51.46-2.3.53-.85.08-1.75.16-2.57-.15-.84-.32-.68-1.27.11-1.61 1.37-.57 3.31-.69 4.71-.09zm-1.96 2.87c.04.02.09.04.13.06.32.15.69.47.46.86-.12.2-.33.31-.54.4-.73.32-1.51.46-2.3.53-.85.08-1.75.16-2.57-.15-.84-.32-.68-1.27.11-1.61 1.37-.58 3.31-.69 4.71-.09z"/><path class="st27" d="M575.92 394.46l17.62-17.02 35.03 53.44-18.84 13.06zm-8.57-62.66h24.13c-1.24 13.01-3.12 36.52-1.07 41.43.06.15.53.93 1.3 2.17l-19.74 17.48s-7.06-11.57-7.92-15.93c-2.17-11.11 3.25-42.96 3.3-45.15z"/><path class="st26" d="M614.2 333.13s-21.2 52.55-26.36 64.95l-6.37 52.65-20.24-4.2.5-6.02 4.24-51.38 18.22-56.12 23.87.11 6.14.01z"/><path d="M578.43 388.7c-.6 2.2-2.05 4.16-3.97 5.39-1.28.81-3.04 1.27-4.24.35-1.1-.85-1.22-2.45-1.11-3.84.15-1.77.52-3.51 1.11-5.19.53-1.52 1.31-3.05 2.69-3.87 4.91-2.9 6.41 3.91 5.52 7.16z" fill="#698bb1"/><path class="st15" d="M543.82 457.77c.16-.59.52-1.27 1.34-1.54 2.39-.78 11.1-3.08 13.56-4.63 1.9-1.21 3.76-4.06 4.49-5.27l15.57 2.29c.51 4.07.35 11.81.31 13.43l-35.27-4.28z"/><path class="st37" d="M543.39 461.25l35.25 4.28.44-3.48-35.26-4.28zm18.17-8.32c.02.04.04.09.06.13.13.32.19.81-.25.94-.22.07-.46.01-.68-.06-.76-.24-1.43-.66-2.07-1.12-.68-.5-1.41-1.04-1.8-1.8-.4-.79.36-1.39 1.18-1.12 1.42.48 2.94 1.67 3.56 3.03zm-2.88 1.54c.02.04.04.09.06.13.13.32.19.81-.25.94-.22.07-.46.01-.68-.06-.76-.24-1.43-.66-2.07-1.12-.68-.5-1.41-1.04-1.8-1.8-.4-.79.36-1.39 1.18-1.12 1.42.48 2.94 1.67 3.56 3.03zm-3.42.83c.02.04.04.09.06.13.13.32.19.81-.25.94-.22.07-.46.01-.68-.06-.76-.24-1.43-.66-2.07-1.12-.68-.5-1.41-1.04-1.8-1.8-.4-.79.36-1.39 1.18-1.12 1.42.48 2.94 1.67 3.56 3.03z"/><path class="st27" d="M614.2 333.13s-21.2 52.55-26.36 64.95l-6.37 52.65-20.24-4.2.5-6.02 15.9 1.64s5.23-42.73 6.41-47.28c1.08-4.15 20.58-53.1 24.02-61.75l6.14.01z"/><path class="st10" d="M601.57 183.08l5.63-14.3-8.53-.64zm2.83 4.11l9.36-2.38-2.54-4.68zm-9.28-2.15l-3.7-9.56-4.37 2.17z"/><path class="st39" d="M562.01 332.8c1.87-12.8 7.67-53.28 7.45-60.81-.26-8.98 6.16-21.81 6.16-21.81l8.05-1.72 5.9-1.25 9.59-1.8 5.09.56 5.55.61 1.85 33.47 2.55 55.01-52.19-2.26z"/><path class="st28" d="M537.59 305.79c.96.83-.17 7.14.17 5.21.34-1.92 4.56-8.23 5.88-7.67 1.32.56-.44 11.35-.44 11.35s3.27-8.04 5.59-6.45c.76.52.93 2.08.83 3.93 1.58-1.35 3.1-2.15 3.62-.84 1.22 3.08-5.22 9.73-5.22 9.73-8.25 6.9-15.47-8.55-15.47-8.55s4.08-7.54 5.04-6.71zm23.04-16c.31-1.04 17.62.4 17.62.4a12.284 12.284 0 01-3.42-7.37c0-.03 0-.05-.01-.08-.01-.25.02-.52.22-.66.1-.06.22-.08.33-.09.98-.05 1.91.52 2.58 1.24.67.72 1.15 1.59 1.74 2.38 1.12 1.52 2.74 2.52 4.35 3.51 2.71 1.67 2.87 7.43 2.87 7.43s.45.12 1.05.29l-1.68 8.63-3.78-.77-2.24 1.01c-1.7.51-18.07-2.49-18.19-3.6-.03-.3-.04-.63-.03-.95.01-.49.06-.96.1-1.27.03-.23.05-.37.05-.37s-.26-.56-.47-1.25c-.13-.4-.25-.85-.29-1.25-.05-.43 0-.8.2-1.01.2-.2 1.25-.36 2.63-.49 3.4-.33 8.83-.49 8.59-.82-.34-.45-12.04-3.07-12.04-3.07s-.19-.32-.26-.81c-.04-.3-.03-.65.08-1.03z"/><path class="st30" d="M561.64 296.01c.2-.2 1.25-.36 2.63-.49.55.83.91 1.92 1.48 2.66a9.479 9.479 0 003.33 2.73c2.13 1.04 4.57 1.24 6.94 1.18 2.37-.05 4.74-.34 7.1-.22 1.27.07 2.53.26 3.78.52l-.63 3.47-3.75-1.17-2.24 1.01c-1.7.51-18.07-2.49-18.19-3.6-.03-.3-.04-.63-.03-.95.01-.49.06-.96.1-1.27.03-.23.05-.37.05-.37s-.26-.56-.47-1.25c-.13-.4-.25-.85-.29-1.25-.06-.43-.01-.8.19-1z"/><path class="st34" d="M561.73 298.27c.31.03.63.05.95.07 1.88.09 3.59-.05 4.82-.21 1.15-.16 1.88-.33 1.97-.35-.09-.02-.83-.14-1.97-.29-1.22-.15-2.9-.33-4.75-.42-.45-.02-.88-.04-1.3-.05.03.39.15.84.28 1.25zm.32 2.88c2.99.2 5.42-.15 5.57-.17-.15-.05-2.49-.8-5.48-1.1-.03.31-.08.78-.09 1.27z"/><path class="st39" d="M609.8 246.58s8.08 1.46 10.27 5.79c1.46 2.88 11.88 48.83 6.33 57.14-5.54 8.31-41.56-.74-41.56-.74l2.18-17.01 22.68 2.72.1-47.9z"/><path d="M612.07 251.17c.22-.21.63.08.44.34-1.95 2.59-2.65 5.41-2.83 8.58-.04.73-1.04.7-1.11 0-.35-3.35 1.18-6.61 3.5-8.92zm-23.94 41.1c2.5-1.67 6.14-.52 8.99-.24 3.66.36 7.31.74 10.96 1.17.56-7.59 1.27-15.66 3.69-22.86.04-.12.24-.11.24.03-.3 8.01-1.6 15.97-1.87 24.01-.02.55-.48 1.12-1.07 1.07-4.24-.32-8.47-.73-12.69-1.15-2.68-.27-6.26.05-8.25-1.95-.04-.01-.03-.06 0-.08zm.04 13.28c4.53 1.07 8.82 3.08 13.34 4.22 4.84 1.22 9.76 1.37 14.67 2.1.65.1.44 1.05-.15 1.09-9.4.65-20.06-1.77-28.33-6.32-.61-.33-.18-1.24.47-1.09z" fill="#ce500b"/><path class="st10" d="M471.56 178.67l1.58-15.04 7.74 3.32zm-4.34 2.31l-7.08-6.34 4.34-2.93zm9.08 2.33l7.57-6.66 2.83 3.88z"/><path class="st26" d="M486.19 461.15c-.31-.53-.53-1.25-.14-2 1.14-2.19 5.69-9.77 6.32-12.55.49-2.16-.21-5.44-.56-6.8l12.66-9.02c3.25 2.53 8.62 8.12 9.74 9.29l-28.02 21.08z"/><path class="st37" d="M488.34 463.9l28.02-21.08-2.15-2.75-28.02 21.08zm6.99-18.31c.04.02.09.03.13.05.33.14.7.44.49.83-.11.2-.32.32-.52.42-.71.35-1.48.51-2.26.62-.84.11-1.73.23-2.55-.04-.85-.28-.73-1.23.04-1.6 1.34-.62 3.26-.82 4.67-.28zm-.95 3.06c.04.02.09.03.13.05.33.14.7.44.49.83-.11.2-.32.32-.52.42-.71.35-1.48.51-2.26.62-.84.11-1.73.23-2.55-.04-.85-.28-.73-1.23.04-1.6 1.34-.62 3.26-.82 4.67-.28zm-1.84 2.93c.04.02.09.03.13.05.33.14.7.44.49.83-.11.2-.32.32-.52.42-.71.35-1.48.51-2.26.62-.84.11-1.73.23-2.55-.04-.85-.28-.73-1.23.04-1.6 1.34-.63 3.26-.82 4.67-.28z"/><path class="st41" d="M454.33 395.11l16.8-17.6 36.92 51.62-18.18 13.72zm-11.03-61.84l23.95-.97c-.7 12.96-1.62 36.37.61 41.16.07.14.56.9 1.37 2.1l-18.89 18.14s-7.48-11.19-8.5-15.49c-2.6-10.93 1.49-42.76 1.46-44.94z"/><path class="st9" d="M489.84 332.7s-18.92 53-23.54 65.52l-4.19 52.5-20.25-3.36.25-6 2.13-51.16 15.82-56.43 23.69-.85 6.09-.22z"/><path d="M446.93 397.55c1.37 2.39 4.1 2.2 6.15-.18 1.1-1.28 1.98-2.83 2.31-4.56.33-1.73.06-3.63-.91-5.02-.97-1.39-2.69-2.17-4.22-1.71-1.82.54-2.96 2.56-3.57 4.53-.5 1.61-.77 3.36-.44 5.03.15.75.39 1.39.68 1.91z" fill="#d6c3cf"/><path class="st26" d="M425.03 459.24c.13-.6.46-1.28 1.26-1.58 2.34-.87 10.89-3.5 13.27-5.15 1.84-1.27 3.56-4.18 4.24-5.41l15.54 1.65c.67 4.02.83 11.71.85 13.31l-35.16-2.82z"/><path class="st37" d="M424.74 462.7l35.16 2.83.29-3.47-35.16-2.82zm17.7-8.98c.02.04.04.08.06.13.15.32.22.79-.21.94-.22.08-.46.03-.68-.03-.76-.21-1.45-.59-2.1-1.03-.7-.47-1.44-.97-1.86-1.71-.43-.77.3-1.39 1.12-1.16 1.44.41 3 1.53 3.67 2.86zm-2.8 1.64c.02.04.04.08.06.13.15.32.22.79-.21.94-.22.08-.46.03-.68-.03-.76-.21-1.45-.59-2.1-1.03-.7-.47-1.44-.97-1.86-1.71-.43-.77.3-1.39 1.12-1.16 1.44.41 3 1.53 3.67 2.86zm-3.36.96c.02.04.04.08.06.13.15.32.22.79-.21.94-.22.08-.46.03-.68-.03-.76-.21-1.45-.59-2.1-1.03-.7-.47-1.44-.97-1.86-1.71-.43-.77.3-1.39 1.12-1.16 1.44.41 3 1.53 3.67 2.86z"/><path class="st41" d="M489.84 332.7s-18.92 53-23.54 65.52l-4.19 52.5-20.25-3.36.25-6 15.84.98s3.46-42.61 4.46-47.18c.91-4.16 18.28-53.52 21.35-62.25l6.08-.21z"/><path class="st10" d="M447.34 249.43s-4.54 3.01-6.84 6.18-9.38 34.23-8.5 39.98c1.06 6.87 8.97 18.35 8.97 18.35l6.37-64.51z"/><path class="st43" d="M440.32 288.1c.43-3.43.89-6.85 1.5-10.25 1.33-7.41 2.62-14.79 4.52-22.08.11-.41.69-.23.63.17-1.26 7.62-2.72 15.22-3.63 22.89-.43 3.6-.94 7.2-1.35 10.8-.36 3.15-.33 6.43-1.2 9.48-.23.82-1.35.6-1.42-.19-.33-3.53.51-7.29.95-10.82z"/><path class="st37" d="M614.35 340.4s-12.33-.21-25.23-1.8c-12.9-1.58-27.53-4.09-27.53-4.09s-2.17-5.91.46-7.18c0 0 40.8-1.44 52.61 4.46 1.98 1-.31 8.61-.31 8.61zm-20.95-49.08l-7.05-1.32-1.51 18.77 5.61 1.26zm12.96-47.4c.45.17 2.03 2.55 2.03 2.55s-9.37 10.75-12.51 11.31l-5.85-4.82-6.93 2.17s2.62-5.52 4.29-7.31c0 0 3.47-3.14 5.4-3.3 1.94-.16 10.4-1.81 13.57-.6z"/><path class="st28" d="M604.23 244.75c-.33.19-14.08 5.68-14.08 5.68s1.65-5.18 2.49-7.88c.26-.84.45-1.44.48-1.57.29-1.09.6-6.07.6-6.07l13.01-2.25s-.45 2.44-.97 5.13c-.62 3.25-1.35 6.85-1.53 6.96z"/><path class="st29" d="M605.76 237.79c-3.84 1.49-12.3 4.75-13.06 4.76h-.07c.26-.84.45-1.44.48-1.57.29-1.09.6-6.07.6-6.07l13.01-2.25c.01 0-.44 2.44-.96 5.13z"/><path class="st28" d="M608.21 233.48s-.51.76-2.11 1.57c-.33.17-.7.33-1.13.5-1.62.62-15.82 2.72-17.71 1.94-1.9-.78-1.97-8.02-1.88-8.76.52-4.52 2.33-18.45 2.33-18.45 8.71-13.4 24.01-1.24 25.59.72 1.58 1.96-5.09 22.48-5.09 22.48z"/><path class="st44" d="M600.01 229.45l-9.14-.15s.08 4.39 4.22 4.68 4.92-4.53 4.92-4.53z"/><path class="st30" d="M606.1 235.05c-.33.17-.7.33-1.13.5-1.62.62-15.82 2.72-17.71 1.94-1.9-.78-1.97-8.02-1.88-8.76.44 3.29.74 7.75 2.17 7.99 2.14.36 16.79-1.26 18.55-1.67z"/><path class="st45" d="M587.54 216.25s3.18-2.53 4.16-.94c.98 1.59.36 1.57.36 1.57l-4.52-.63zm19.01 2.17s-3.29-5.99-5.47-4.59c-1.27.82-.7 1.69-.7 1.69l6.17 2.9z"/><path class="st46" d="M601.8 221.69c-.33 1.23-1.21 2.07-1.98 1.87-.77-.2-1.13-1.37-.8-2.6.33-1.23 1.21-2.07 1.98-1.87s1.12 1.36.8 2.6z"/><path class="st44" d="M603.45 220.79s-.69.64-1.63.76-1.77-.32-1.77-.32.69-.64 1.63-.76 1.77.32 1.77.32z"/><path class="st46" d="M587.71 219.22c-.27 1.02.03 1.99.66 2.15.64.17 1.37-.52 1.64-1.55.27-1.02-.03-1.99-.66-2.15-.64-.16-1.37.53-1.64 1.55z"/><path class="st44" d="M586.95 218.06s.26.65.85 1.1c.59.44 1.29.51 1.29.51s-.26-.65-.85-1.1c-.59-.44-1.29-.51-1.29-.51z"/><path class="st29" d="M588.33 225.2c-.34.48-1.52.24-2.63-.54-1.11-.78-1.73-1.81-1.39-2.3.34-.48 1.52-.24 2.63.54 1.11.78 1.73 1.81 1.39 2.3zm16.14 1.57c0 .87-1.61 1.56-3.6 1.55-1.98-.01-3.59-.72-3.58-1.58 0-.87 1.61-1.56 3.6-1.55 1.98 0 3.58.71 3.58 1.58zm-12.57-1.85c1.07.56 2.21 1 3.37 1.32-.47.6-1.25.94-2.01.86-.89-.09-1.64-.38-2.49-.66.39-.38.86-1.04 1.13-1.52z"/><path class="st32" d="M590.44 226.2c1.78-1.85 2.78-4.09 3.56-6.51.01-.04.09-.04.09.01-.09 2.52-1.24 4.7-2.86 6.56.85.25 1.7.39 2.56.61.27.07.19.42-.06.45-1.08.13-2.15-.19-3.14-.59-.22-.08-.33-.34-.15-.53z"/><path class="st30" d="M606.2 233.51c2.68.49 5-.57 6.37-1.6.31-.23.57-.47.77-.68 1.11-1.16 2.57-5.83.92-7.43-1.15-1.12-2.43-.27-3.09.34-.28.26-.45.48-.45.48l-4.52 8.89z"/><path class="st28" d="M606.2 233.51c2.68.49 5-.57 6.37-1.6.12-.11.23-.22.33-.32 1.11-1.16 2.57-5.83.92-7.43-.93-.91-1.95-.52-2.65-.02-.28.26-.45.48-.45.48l-4.52 8.89z"/><path class="st29" d="M613.89 227.7c0 .4-.17.78-.39 1.12-.95 1.44-2.85 2.24-4.65 2.96.66-.65 1.06-1.47 1.18-2.34.04-.3.06-.61.13-.91.3-1.19 3.75-3.21 3.73-.83z"/><path class="st34" d="M607.97 232.03l.1-.03c.06-.02.16-.04.28-.08.24-.08.58-.23.92-.48.35-.25.7-.62.95-1.1.24-.48.37-1.07.25-1.71-.01-.08-.03-.16-.06-.24l-.02-.06v-.01l.01-.01.04-.04.07-.08.15-.15c.2-.19.42-.37.63-.53.21-.16.43-.3.63-.43.21-.13.41-.24.6-.32.19-.08.38-.11.55-.09.17.02.31.1.4.18.09.08.13.16.14.22.01.06 0 .09.01.09 0 0 .02-.03.02-.09s-.02-.15-.1-.26a.955.955 0 00-.44-.28c-.21-.06-.46-.05-.7.01-.24.06-.46.16-.7.27-.24.11-.48.24-.73.39-.24.15-.48.33-.71.53-.06.05-.11.1-.17.15l-.08.08-.11.11-.08.08c.01.03.02.07.03.11l.04.15c.02.07.04.14.05.21.11.55.02 1.08-.14 1.54-.18.45-.44.82-.72 1.1-.28.28-.56.46-.76.58-.1.06-.19.1-.25.13-.07.05-.1.06-.1.06z"/><path d="M587.51 208.35c-1.46-.36-2.92-.71-4.38-1.08 1.05 3.2 4.8 4.73 8.17 4.77 3.37.04 6.68-.99 10.05-1.02 3.37-.04 7.16 1.28 8.43 4.4l-1.3 4.73 1.77 2-.94 5.24s2.57-4.77 5.28-3.18c0 0 1.15-2.03 2.44-4.43 1.64-3.06 3.49-6.71 3.43-7.55-.09-1.5-4.2-3.89-4.2-3.89s-1.19-8.06-12.75-8.79c-2.9-.18-5.78.74-8.68.75-2.91 0-6.11-.99-7.53-3.52-.56 1.62-.31 3.5.6 4.96.3.5.69.95 1.13 1.33a8.215 8.215 0 01-5.03-2.35c-.38 2.93 1.04 6.02 3.51 7.63z" fill="#3f0727"/><path class="st45" d="M587.3 196.78c-.56 1.62-.31 3.5.6 4.96 1.88 1.66 4 3.03 6.3 4.04-1.23.14-2.45.28-3.68.43 1.93 1.6 4.77 1.27 7.19.65 2.41-.62 5-1.45 7.35-.61 2.35.84 3.81 3.12 5.18 5.21 1.36 2.09 3.02 4.3 5.46 4.85-1.33 1-2.66 2.02-3.99 3.02 1.77.15 3.54.31 5.31.47 1.01-1.88 2.1-4 2.77-5.53.42-.96.68-1.69.66-2.02-.09-1.5-4.2-3.89-4.2-3.89s-1.19-8.06-12.75-8.79c-2.9-.18-5.78.74-8.68.75-.86 0-1.74-.08-2.59-.27-2.04-.46-3.93-1.47-4.93-3.27z"/><path d="M598.82 202.48c-.78.41-1.57.82-2.36 1.24 2.18-.42 4.39-.82 6.61-.73 2.22.09 4.48.75 6.13 2.24 1.57 1.41 2.45 3.42 3.79 5.04 1.35 1.62 3.6 2.88 5.52 2-.44.8-.88 1.6-1.33 2.4.88-.14 1.75-.27 2.63-.41.42-.96.68-1.69.66-2.02-.09-1.5-4.2-3.89-4.2-3.89s-1.19-8.06-12.75-8.79c-2.9-.18-5.78.74-8.68.75-.86 0-1.74-.08-2.59-.27 1.98 1.28 4.23 2.13 6.57 2.44z" fill="#6f0a32"/><path class="st28" d="M492.58 309.07s-2.77 5.03-2.9 6.06c-.13 1.03 6.28 9.32 7.44 9.7s13.92-3.68 13.97-7.87l-7.43-.21-11.08-7.68z"/><path class="st10" d="M490.75 337.15c-.09-36.22-4.4-89.84-4.4-89.84l-14.01-4.57-12.29.5s-11.66 4.4-12.69 6.18c-.69 1.18-8.05 55.57-9.49 87.73h52.88z"/><path class="st10" d="M486.34 247.32s3.92.4 7.45 4.73c2.64 3.24 21.52 36.26 21.51 43.68-.01 3.41-11.64 21.02-11.64 21.02l-12.93-7.68 7.39-10.83-14.66-22.97 2.88-27.95z"/><path class="st43" d="M488.52 256.55c.25-.73 1.29-.43 1.15.32-.72 3.99-1.36 7.97-1.59 12.02-.18 3.19.3 6.48-.45 9.59-.14.57-.86.46-1.05 0-2.46-6.26-.14-15.77 1.94-21.93zm12.71 40.56l1.41-1.65c.44-.52.76-1.09 1.51-1.08.27 0 .61.21.65.5.12.8-.33 1.16-.83 1.73-.23.27-.46.53-.69.8.12.05.24.11.37.16.56.2 1.14.35 1.71.52.68.2.4 1.22-.29 1.06-.58-.13-1.16-.29-1.75-.39-.56-.09-1.14-.1-1.7-.19-.71-.12-.77-1.02-.39-1.46z"/><path class="st28" d="M459.75 244.83c.35.21 14.83 6.36 14.83 6.36s-1.63-5.54-2.47-8.42c-.26-.89-.44-1.53-.47-1.68-.28-1.17-.5-6.46-.5-6.46l-13.77-2.69s.42 2.61.91 5.48c.58 3.45 1.28 7.3 1.47 7.41z"/><path class="st29" d="M458.27 237.41c4.05 1.67 12.96 5.33 13.77 5.36h.07c-.26-.89-.44-1.53-.47-1.68-.28-1.17-.5-6.46-.5-6.46l-13.77-2.69c0-.01.42 2.6.9 5.47z"/><path class="st28" d="M455.77 232.77s.53.82 2.21 1.71c.34.18.74.37 1.18.55 1.71.69 16.74 3.26 18.77 2.47 2.03-.78 2.28-8.48 2.2-9.26-.44-4.82-2.04-19.65-2.04-19.65-8.95-14.43-25.47-1.87-27.2.17-1.73 2.06 4.88 24.01 4.88 24.01z"/><path class="st30" d="M457.98 234.49c.34.18.74.37 1.18.55 1.71.69 16.74 3.26 18.77 2.47 2.03-.78 2.28-8.48 2.2-9.26-.55 3.48-.97 8.22-2.49 8.44-2.28.33-17.79-1.73-19.66-2.2z"/><path class="st32" d="M467.28 232.3c1.39.32 2.91.01 4.05-.85-.29.75-.81 1.28-1.6 1.43-.79.16-1.79-.13-2.45-.58z"/><path class="st29" d="M477.08 224.43c.35.52 1.61.29 2.8-.52 1.2-.81 1.88-1.89 1.53-2.41-.35-.52-1.61-.29-2.8.52-1.2.81-1.88 1.89-1.53 2.41zm-17.18 1.29c-.02.92 1.68 1.7 3.78 1.73 2.11.04 3.83-.68 3.84-1.6.02-.92-1.68-1.7-3.78-1.73s-3.82.68-3.84 1.6z"/><path class="st32" d="M463.43 229.1s.11.1.31.26c.2.17.51.4.93.63.82.48 2.12.94 3.6.96 1.49.01 2.79-.43 3.62-.89.42-.23.74-.44.94-.61.2-.16.32-.26.32-.26s-.14.06-.37.17c-.23.11-.59.25-1.02.39-.87.29-2.11.52-3.48.51-1.37-.02-2.6-.28-3.47-.59-.43-.15-.78-.29-1.01-.41-.23-.09-.37-.16-.37-.16z"/><path class="st29" d="M469.55 224.12c-.01-.6-.09-.69.18-1.23.43.83.64.94 1.53 1.24.71.24 1.38-.18 1.68-.35l-.24 1.52c-.27.08-.65.01-.84-.04l-1.69-.45c-.2-.05-.41-.12-.52-.29-.08-.11-.09-.26-.1-.4z"/><path class="st32" d="M469.5 224.54c1.1.84 2.55 1.21 3.92 1.02-.18-2.96-.95-5.88-2.24-8.54.65 2.49.99 5.04 1.06 7.6-.77-.11-1.98.03-2.74-.08z"/><path class="st16" d="M477.5 214.38s-3.18-2.53-4.16-.94c-.98 1.59-.36 1.57-.36 1.57l4.52-.63zm-19 2.18s3.29-5.99 5.47-4.59c1.27.82.7 1.69.7 1.69l-6.17 2.9z"/><path class="st46" d="M463.25 219.82c.33 1.23 1.21 2.07 1.98 1.87.77-.2 1.13-1.37.8-2.6-.33-1.23-1.21-2.07-1.98-1.87-.77.2-1.13 1.37-.8 2.6z"/><path class="st44" d="M461.59 218.92s.69.64 1.63.76 1.77-.32 1.77-.32-.69-.64-1.63-.76-1.77.32-1.77.32z"/><path class="st46" d="M477.34 217.36c.27 1.02-.03 1.99-.66 2.15-.64.17-1.37-.52-1.64-1.55-.27-1.02.03-1.99.66-2.15.63-.17 1.37.53 1.64 1.55z"/><path class="st44" d="M478.09 216.2s-.26.65-.85 1.1c-.59.44-1.29.51-1.29.51s.26-.65.85-1.1c.59-.45 1.29-.51 1.29-.51z"/><path class="st30" d="M457.91 232.85c-2.86.45-5.3-.72-6.73-1.85a7.49 7.49 0 01-.8-.74c-1.15-1.26-2.59-6.25-.81-7.91 1.25-1.17 2.59-.23 3.28.44.29.28.47.52.47.52l4.59 9.54z"/><path class="st28" d="M457.91 232.85c-2.86.45-5.3-.72-6.73-1.85-.13-.12-.24-.24-.35-.35-1.15-1.26-2.59-6.25-.81-7.91 1.01-.95 2.08-.51 2.82.04.29.28.47.52.47.52l4.6 9.55z"/><path class="st29" d="M449.88 226.5c-.01.43.16.83.39 1.2.97 1.56 2.97 2.44 4.88 3.25a4.35 4.35 0 01-1.2-2.51c-.04-.32-.05-.65-.12-.97-.31-1.27-3.92-3.5-3.95-.97z"/><path class="st34" d="M456.07 231.24s-.04-.01-.1-.03l-.3-.09c-.25-.09-.61-.25-.97-.53a3.37 3.37 0 01-.98-1.19c-.24-.51-.37-1.15-.22-1.83.01-.08.04-.17.06-.25l.02-.06v-.01l-.01-.01-.04-.04-.08-.08c-.05-.05-.1-.11-.16-.16-.21-.21-.43-.4-.66-.58-.22-.18-.45-.33-.66-.47a4.05 4.05 0 00-.63-.35c-.2-.09-.4-.12-.58-.11a.85.85 0 00-.43.18.39.39 0 00-.15.23c-.01.06-.01.09-.01.09s-.02-.03-.02-.09.02-.16.11-.27a.92.92 0 01.47-.28c.23-.06.49-.04.74.03s.49.18.74.3.51.27.76.43c.25.17.51.36.75.57.06.05.12.11.18.17l.09.09.12.12.08.09c-.01.04-.02.08-.03.11l-.05.16c-.02.07-.04.14-.05.22-.13.59-.05 1.15.12 1.63.18.48.45.88.74 1.18.29.3.58.5.8.63.11.07.2.11.26.14l.09.06z"/><path d="M478.53 212.6l-.67-.85s-.89-3.9-1.92-4.74c-1.02-.84-4.42 1.14-6.64 1.84-2.22.69-13.32-1.39-14.16-.79-.85.59.66 4.86.66 4.86-.6.71-3.07 3.28-3.07 3.28l2.03 8.51-2.3-1.71c-1.35-1.01-3.26-.04-3.26 1.64v3.14c-1.31-1.11-2.61-2.63-3.74-4.4-1.86-2.91-3.27-6.49-3.47-10.05-.33-5.74 5.34-7.45 5.34-7.45 3.17-11.48 19-13.46 23.48-12.34 4.35 1.09 6.08 3.91 6.18 4.09-.56-.39-4.03-.52-4.03-.52s3.39 1.12 4.91 4.67c.58 1.35.81 3.24.88 5.06.11 2.96-.22 5.76-.22 5.76z" fill="#7c3127"/><path d="M478.74 206.82c-1.77-2.17-3.96-4.5-5.32-4.55-2.56-.1-2.58 2.98-4.35 3.86-1.77.89-13.77-1.98-15.95-.4-2.18 1.58.89 5.64.43 6.02-.46.39-3.67 1.89-3.67 1.89l2.63 6.52c-.15-.07-1.58-.77-3.78-.47-1.29.17-2.48 2.04-3.29 3.67-1.27-1.99-2.34-4.3-2.95-6.7-.28-1.11-.46-2.23-.52-3.36-.33-5.74 5.34-7.45 5.34-7.45 3.17-11.48 19-13.46 23.48-12.34 4.35 1.09 6.08 3.91 6.18 4.09-.56-.39-4.03-.52-4.03-.52s3.39 1.12 4.91 4.67c.05.1.09.21.12.32.5 1.32.71 3.07.77 4.75z" fill="#87342e"/><path d="M477.98 202.08c-2.17-1.35-5.34-3.22-6.52-3.48-1.85-.4-3.5 3.36-5.25 3.66-1.76.3-11.12-1.98-13.7-.82-2.59 1.16-1.37 8.34-1.37 8.34h-3.36l1.41 5.94s-.51-.29-3.39-.7c-1.32-.19-2.46.67-3.3 1.65-.28-1.11-.46-2.23-.52-3.36-.33-5.74 5.34-7.45 5.34-7.45 3.17-11.48 19-13.46 23.48-12.34 4.35 1.09 6.08 3.91 6.18 4.09-.56-.39-4.03-.52-4.03-.52s3.39 1.12 4.91 4.67c.05.1.09.21.12.32z" fill="#913434"/><path class="st10" d="M471.91 243.94c.48-.26 1-.55 1.55-.48.61.08 1.07.6 1.44 1.09 1.34 1.78 2.43 3.74 3.23 5.81.26.66.48 1.4.21 2.05-.39.93-1.55 1.2-2.55 1.27-4.12.28-8.22-.9-12.01-2.56-1.69-.74-3.35-1.59-4.75-2.79-1.17-1-1.04-.29-1.54-1.76-.53-1.58-.53-2.28.49-1.53 2.48 1.83 5.52 1.03 8.49.63 1.89-.24 3.75-.82 5.44-1.73z"/><path class="st7" d="M561.67 260.38a7.62 7.62 0 01-3.59-.87c-.58-.3-1.23-.07-1.58.43l-.01 12.89c0 .74-.58 1.34-1.3 1.34l-12.14-.01-.19-.03h-.08c-1.03.01-1.6-1.17-1.05-2.07 1.61-2.6 1.83-6.2-.42-9.71-.5-.59-1.06-1.11-1.69-1.53-1.53-.92-3.07-1.34-4.53-1.36-1.45.03-2.98.45-4.52 1.37-.63.43-1.19.95-1.68 1.54-2.24 3.52-2.02 7.11-.41 9.71.56.89-.01 2.07-1.05 2.07h-.07l-.18.03-12.15.04c-.72 0-1.31-.59-1.31-1.34l-.02-7.38-.01-5.51c-.36-.5-1-.73-1.58-.43-1.08.57-2.3.88-3.59.88-6.12 0-10.62-7.09-6.21-13.72.22-.34.51-.64.84-.86 3.19-2.26 6.44-2.28 8.95-.97.56.29 1.18.11 1.54-.34l-.03-12.81c-.01-.72.54-1.31 1.24-1.34l.42-.08 11.56.01c.84-.15 1.36-1.09.95-1.89a8.36 8.36 0 01-.9-3.78c-.01-4.6 3.66-8.33 8.16-8.24 4.51-.11 8.19 3.61 8.19 8.22 0 1.37-.33 2.65-.9 3.79-.41.81.13 1.74.96 1.88l11.56-.03.42.07c.24.01.47.09.65.22.36.23.6.65.6 1.12l-.01 12.81c.36.45.99.63 1.55.33 2.5-1.31 5.76-1.3 8.94.96.33.22.62.52.84.86 4.43 6.62-.05 13.72-6.17 13.73z"/><path class="st12" d="M86.06 154.84h64.98c1.34 0 2.43.99 2.43 2.22v25.49c0 1.23-1.09 2.22-2.43 2.22h-8.24l2.99 10.71-17.36-10.71H86.06c-1.34 0-2.43-.99-2.43-2.22v-25.49c-.01-1.22 1.08-2.22 2.43-2.22z"/><circle class="st1" cx="141.47" cy="169.28" r="3.14"/><path class="st1" d="M116.55 169.28c0 1.73 1.41 3.14 3.14 3.14s3.14-1.41 3.14-3.14c0-1.73-1.41-3.14-3.14-3.14s-3.14 1.41-3.14 3.14zm-21.78 0c0 1.73 1.41 3.14 3.14 3.14s3.14-1.41 3.14-3.14c0-1.73-1.41-3.14-3.14-3.14s-3.14 1.41-3.14 3.14z"/><path class="st12" d="M700.56 186.5h-64.98c-1.34 0-2.43 1-2.43 2.22v25.49c0 1.23 1.09 2.22 2.43 2.22h8.24l-2.99 10.71 17.36-10.71h42.37c1.34 0 2.43-.99 2.43-2.22v-25.49c.01-1.23-1.08-2.22-2.43-2.22z"/><path class="st1" d="M648.29 200.93c0 1.73-1.41 3.14-3.14 3.14-1.73 0-3.14-1.41-3.14-3.14 0-1.73 1.41-3.14 3.14-3.14 1.74.01 3.14 1.41 3.14 3.14zm21.78 0c0 1.73-1.41 3.14-3.14 3.14-1.73 0-3.14-1.41-3.14-3.14 0-1.73 1.41-3.14 3.14-3.14 1.74.01 3.14 1.41 3.14 3.14zm21.78 0c0 1.73-1.41 3.14-3.14 3.14-1.73 0-3.14-1.41-3.14-3.14 0-1.73 1.41-3.14 3.14-3.14 1.74.01 3.14 1.41 3.14 3.14z"/><path class="st10" d="M707.13 186.5c0 2.57-2.09 4.66-4.66 4.66-2.57 0-4.66-2.09-4.66-4.66 0-2.57 2.09-4.66 4.66-4.66 2.57 0 4.66 2.09 4.66 4.66z"/><circle transform="rotate(-64.609 661.39 133.74)" class="st10" cx="661.4" cy="133.74" r="15.88"/><path class="st1" d="M654.81 131.87a2.197 2.197 0 01-2.72 1.52 2.197 2.197 0 01-1.52-2.72 2.197 2.197 0 012.72-1.52c1.17.33 1.85 1.55 1.52 2.72zm8.72 2.47a2.197 2.197 0 01-2.72 1.52 2.197 2.197 0 01-1.52-2.72 2.197 2.197 0 012.72-1.52c1.17.32 1.85 1.54 1.52 2.72zm8.71 2.46a2.197 2.197 0 01-2.72 1.52 2.197 2.197 0 01-1.52-2.72 2.197 2.197 0 012.72-1.52c1.17.32 1.86 1.54 1.52 2.72z"/><path class="st10" d="M647.23 140.91l-5.22 8.72 12.88-1.4c.01-.01-3.55-6.19-7.66-7.32"/><circle class="st10" cx="108.07" cy="364.13" r="14.31"/><path class="st1" d="M114 362.46c.3 1.06 1.4 1.67 2.45 1.37 1.06-.3 1.67-1.4 1.37-2.45-.3-1.06-1.4-1.67-2.45-1.37-1.05.29-1.66 1.39-1.37 2.45zm-7.85 2.21c.3 1.06 1.4 1.67 2.45 1.37s1.67-1.4 1.37-2.45c-.3-1.06-1.4-1.67-2.45-1.37-1.05.3-1.66 1.4-1.37 2.45zm-7.85 2.22c.3 1.06 1.4 1.67 2.45 1.37 1.06-.3 1.67-1.4 1.37-2.45-.3-1.06-1.4-1.67-2.45-1.37a1.981 1.981 0 00-1.37 2.45z"/><path class="st10" d="M120.83 370.59l4.7 7.85-11.6-1.26s3.2-5.57 6.9-6.59"/><path class="st16" d="M132.58 132.42c0 1.86-1.51 3.37-3.37 3.37s-3.37-1.51-3.37-3.37 1.51-3.37 3.37-3.37 3.37 1.51 3.37 3.37z"/><path class="st7" d="M76.56 217.63l4.54 2.21c.4.2.4.77 0 .97l-4.54 2.21c-.11.05-.2.14-.25.25l-2.21 4.54c-.2.4-.77.4-.97 0l-2.21-4.54a.507.507 0 00-.25-.25l-4.54-2.21c-.4-.2-.4-.77 0-.97l4.54-2.21c.11-.05.2-.14.25-.25l2.21-4.54c.2-.4.77-.4.97 0l2.21 4.54c.06.11.14.2.25.25zm603.67 33.41l4.54 2.21c.4.2.4.77 0 .97l-4.54 2.21c-.11.05-.2.14-.25.25l-2.21 4.54c-.2.4-.77.4-.97 0l-2.21-4.54a.507.507 0 00-.25-.25l-4.54-2.21c-.4-.2-.4-.77 0-.97l4.54-2.21c.11-.05.2-.14.25-.25l2.21-4.54c.2-.4.77-.4.97 0l2.21 4.54c.06.11.14.2.25.25zM197.94 79.37l4.54 2.21c.4.2.4.77 0 .97l-4.54 2.21c-.11.05-.2.14-.25.25l-2.21 4.54c-.2.4-.77.4-.97 0L192.3 85a.507.507 0 00-.25-.25l-4.54-2.21c-.4-.2-.4-.77 0-.97l4.54-2.21c.11-.05.2-.14.25-.25l2.21-4.54c.2-.4.77-.4.97 0l2.21 4.54c.05.12.14.21.25.26zm126.24-38.28l4.54 2.21c.4.2.4.77 0 .97l-4.54 2.21c-.11.05-.2.14-.25.25l-2.21 4.54c-.2.4-.77.4-.97 0l-2.21-4.54a.507.507 0 00-.25-.25l-4.54-2.21c-.4-.2-.4-.77 0-.97l4.54-2.21c.11-.05.2-.14.25-.25l2.21-4.54c.2-.4.77-.4.97 0l2.21 4.54c.06.11.14.19.25.25zm168.96 4.71c3.39 7.77-.18 16.82-7.95 20.19-7.77 3.39-16.82-.17-20.2-7.94a15.269 15.269 0 01-1.1-8.4l15.17 2.27-8.42-12.82c.71-.48 1.49-.89 2.3-1.25 7.77-3.37 16.82.18 20.2 7.95z"/><path class="st12" d="M462.51 32.49l1.92 3.12 7.18 11.63-14.12-1.27-4.21-.38c-.74-9.8 9.23-13.1 9.23-13.1z"/><path class="st22" d="M233.89 39.02l4.22 4 4.22-4 4.22 4 4.22-4 4.23 4 4.22-4m414.52 245.85l4.22 4 4.22-4 4.22 4 4.22-4 4.23 4 4.22-4m-643.26-9.75l4.22 4 4.22-4 4.22 4 4.22-4 4.23 4 4.22-4"/></g></svg>