<svg height="512" viewBox="0 0 64 64" width="512" xmlns="http://www.w3.org/2000/svg"><path d="M32 8a23.982 23.982 0 00-20.781 12h10.39C23.685 12.828 27.559 8 32 8z" fill="#57a4ff"/><path d="M42.391 20h10.39A23.982 23.982 0 0032 8c4.441 0 8.315 4.828 10.391 12z" fill="#d1e7f8"/><path d="M21.609 20h-10.39A23.874 23.874 0 008 32h12a43.609 43.609 0 011.609-12z" fill="#2488ff"/><path d="M42.391 20A43.609 43.609 0 0144 32h12a23.874 23.874 0 00-3.219-12z" fill="#bddbff"/><path d="M21.609 44h-10.39A23.982 23.982 0 0032 56c-4.441 0-8.315-4.828-10.391-12z" fill="#005ece"/><path d="M20 32H8a23.874 23.874 0 003.219 12h10.39A43.609 43.609 0 0120 32z" fill="#006df0"/><path d="M52.781 44A23.874 23.874 0 0056 32H44a43.609 43.609 0 01-1.609 12z" fill="#9bc9ff"/><path d="M42.391 44C40.315 51.172 36.441 56 32 56a23.982 23.982 0 0020.781-12z" fill="#57a4ff"/><path d="M42.391 20C40.315 12.828 36.441 8 32 8v12z" fill="#c2dff6"/><path d="M32 8c-4.441 0-8.315 4.828-10.391 12H32z" fill="#9bc9ff"/><path d="M32 20H21.609A43.609 43.609 0 0020 32h12z" fill="#57a4ff"/><path d="M32 32h12a43.609 43.609 0 00-1.609-12H32z" fill="#9bc9ff"/><path d="M21.609 44c2.076 7.172 5.95 12 10.391 12V44z" fill="#006df0"/><path d="M32 56c4.441 0 8.315-4.828 10.391-12H32z" fill="#2488ff"/><path d="M32 32v12h10.391A43.609 43.609 0 0044 32z" fill="#57a4ff"/><path d="M32 32H20a43.609 43.609 0 001.609 12H32z" fill="#2488ff"/><path d="M59.37 26.066c.136.63.252 1.277.345 1.923a1 1 0 00.989.858 1.019 1.019 0 00.144-.011A1 1 0 0061.7 27.7c-.1-.692-.224-1.385-.37-2.059a1 1 0 00-1.955.421zM12.543 11.5a1 1 0 00.671-.259c.478-.433.98-.857 1.492-1.259A1 1 0 0013.47 8.4c-.549.431-1.087.886-1.6 1.35a1 1 0 00.672 1.741zM3.41 27.012a1.036 1.036 0 00.206.021 1 1 0 00.978-.8c.132-.631.288-1.269.466-1.9a1 1 0 00-1.925-.533c-.19.672-.358 1.356-.5 2.032a1 1 0 00.775 1.18zM17.433 7.919a1 1 0 00.5-.136 28.1 28.1 0 011.718-.922 1 1 0 10-.882-1.795c-.622.306-1.242.639-1.843.989a1 1 0 00.5 1.864zM8.5 16.008a1 1 0 00.811-.413 28.15 28.15 0 011.2-1.543 1 1 0 10-1.538-1.282 30.405 30.405 0 00-1.286 1.652 1 1 0 00.224 1.4.989.989 0 00.589.186zm-3.432 5.169a.988.988 0 00.405.087 1 1 0 00.914-.6c.262-.59.55-1.182.855-1.758a1 1 0 00-1.768-.936 30.24 30.24 0 00-.915 1.884 1 1 0 00.509 1.323zm50.626-4.101a1 1 0 001.694-1.066 30.477 30.477 0 00-1.178-1.73 1 1 0 10-1.61 1.183c.382.525.752 1.067 1.094 1.613zm-3.619-4.595a1 1 0 101.434-1.394c-.482-.5-.989-.983-1.51-1.449a1 1 0 00-1.334 1.49c.486.435.96.891 1.41 1.353zM4.617 37.876a28.04 28.04 0 01-.341-1.922 1 1 0 10-1.98.281c.1.692.221 1.385.365 2.059a1 1 0 00.977.791.937.937 0 00.21-.022 1 1 0 00.769-1.187zM45.921 7.7c.562.322 1.12.67 1.659 1.031a1 1 0 101.12-1.66 27.885 27.885 0 00-1.778-1.1 1 1 0 00-1 1.735zm11.622 12.813c.265.587.513 1.195.739 1.806a1 1 0 101.875-.694c-.241-.654-.508-1.3-.79-1.933a1 1 0 10-1.824.821zM34.842 4.142c.641.065 1.292.153 1.934.263a1 1 0 10.338-1.971 29.975 29.975 0 00-2.073-.282 1 1 0 10-.2 1.99zm-5.962.024a.977.977 0 00.108-.006c.649-.07 1.3-.117 1.947-.139a1 1 0 00.965-1.036 1.012 1.012 0 00-1.035-.964c-.69.025-1.392.076-2.088.15a1 1 0 00.105 2zm11.687 1.168c.62.2 1.24.422 1.84.663a1 1 0 10.744-1.856c-.644-.259-1.308-.5-1.972-.711a1 1 0 00-.612 1.9zm-17.609.104a1.027 1.027 0 00.312-.05c.612-.2 1.243-.384 1.876-.543a1 1 0 00-.489-1.94 30.38 30.38 0 00-2.011.582 1 1 0 00.312 1.951zM4 32q0-.956.063-1.894a1 1 0 00-.931-1.064.985.985 0 00-1.064.93c-.045.67-.068 1.352-.068 2v.085a.974.974 0 001 .969A1.026 1.026 0 004 32zm36.675 26.63c-.62.2-1.252.383-1.876.538a1 1 0 10.482 1.941 29.01 29.01 0 002.013-.577 1 1 0 10-.619-1.9zm10.068-5.83c-.482.435-.986.858-1.5 1.258a1 1 0 101.232 1.574 29.857 29.857 0 001.6-1.345 1 1 0 00-1.332-1.487zm-4.727 3.446c-.562.325-1.141.634-1.722.919a1 1 0 00.44 1.9.986.986 0 00.439-.1c.623-.3 1.243-.635 1.845-.983a1 1 0 00-1-1.731zm8.643-7.793a31.122 31.122 0 01-1.2 1.541 1 1 0 101.533 1.284c.449-.537.883-1.091 1.288-1.649a1 1 0 10-1.617-1.176zM61 30.879a1 1 0 00-1 1V32c0 .649-.022 1.307-.067 1.952a1 1 0 00.929 1.067h.07a1 1 0 001-.931C61.976 33.4 62 32.7 62 32v-.121a1 1 0 00-1-1zm-.421 6.169a1 1 0 00-1.184.772c-.133.63-.291 1.267-.471 1.9a1 1 0 00.686 1.236.986.986 0 00.277.039 1 1 0 00.961-.725c.192-.673.361-1.357.5-2.033a1 1 0 00-.769-1.189zm-1.669 5.831a1 1 0 00-1.32.507 29.037 29.037 0 01-.859 1.757 1 1 0 00.414 1.352.987.987 0 00.468.117 1 1 0 00.884-.53c.329-.618.639-1.251.919-1.883a1 1 0 00-.506-1.32zM8.273 46.874a1 1 0 00-1.693 1.064c.369.588.764 1.171 1.173 1.731a1 1 0 101.616-1.178 28.493 28.493 0 01-1.096-1.617zm9.755 9.397a28.626 28.626 0 01-1.658-1.036 1 1 0 10-1.118 1.659c.579.39 1.177.763 1.776 1.109a1 1 0 101-1.732zm-6.144-4.794a1 1 0 00-1.437 1.391c.485.5.991.988 1.507 1.452a1 1 0 001.337-1.487 29.01 29.01 0 01-1.407-1.356zm-5.451-8.043c-.266-.592-.513-1.2-.735-1.807a1 1 0 00-1.878.688c.239.65.5 1.3.787 1.936a1 1 0 00.914.592 1 1 0 00.912-1.409zm28.521 16.412c-.646.068-1.3.113-1.947.135a1 1 0 00.033 2h.035a29.285 29.285 0 002.088-.145 1 1 0 00-.209-1.989zm-5.854.006a28.893 28.893 0 01-1.935-.267 1 1 0 00-.341 1.971c.689.119 1.386.215 2.072.285a.9.9 0 00.1.006 1 1 0 00.1-2zm-5.723-1.205c-.618-.2-1.236-.423-1.838-.666a1 1 0 10-.747 1.855c.645.26 1.308.5 1.97.715a1.032 1.032 0 00.308.049 1 1 0 00.307-1.953z"/><path d="M57 32a25 25 0 10-25 25 25.028 25.028 0 0025-25zM9.025 33h9.988a45.27 45.27 0 001.268 10h-8.474a22.844 22.844 0 01-2.782-10zm2.782-12h8.474a45.27 45.27 0 00-1.268 10H9.025a22.844 22.844 0 012.782-10zm43.168 10h-9.988a45.27 45.27 0 00-1.268-10h8.475a22.857 22.857 0 012.781 10zm-11.988 0H33V21h8.61a42.418 42.418 0 011.377 10zM33 19V9.1c3.274.651 6.183 4.452 8.008 9.9zm-2-9.9V19h-8.008c1.825-5.444 4.734-9.245 8.008-9.9zM31 21v10h-9.987a42.47 42.47 0 011.377-10zm-9.987 12H31v10h-8.61a42.47 42.47 0 01-1.377-10zM31 45v9.9c-3.274-.651-6.183-4.452-8.008-9.9zm2 9.9V45h8.008c-1.825 5.444-4.734 9.245-8.008 9.9zM33 43V33h9.987a42.418 42.418 0 01-1.377 10zm11.987-10h9.988a22.857 22.857 0 01-2.781 10h-8.475a45.27 45.27 0 001.268-10zm5.973-14h-7.8a22.35 22.35 0 00-5.07-9.175A23.072 23.072 0 0150.96 19zM25.909 9.825A22.338 22.338 0 0020.84 19h-7.8a23.075 23.075 0 0112.869-9.175zM13.04 45h7.8a22.338 22.338 0 005.069 9.175A23.075 23.075 0 0113.04 45zm25.051 9.175A22.35 22.35 0 0043.161 45h7.8a23.072 23.072 0 01-12.87 9.175z"/></svg>