<svg version="1.1" id="Слой_1" xmlns="http://www.w3.org/2000/svg" x="0" y="0" viewBox="0 0 1920 1059" xml:space="preserve"><style>.st4{opacity:.4;enable-background:new}.st4,.st5{fill:#d6d8e5}.st7{fill:#c4c7d6}.st8{fill:#38226d}.st9{fill:#9c73ff}.st11{fill:#ffcea9}.st12{fill:#ededed}.st13{fill:#e5e5e5}.st14{fill:#f4f4f4}.st16{fill:#3a2c6d}.st21{fill:#b1b4c4}.st22{fill:#9ea1af}.st26{fill:#a298e2}.st27{fill:#f4ce2c}.st28{fill:#4d3bff}.st29{fill:#ff8657}.st30{fill:#c33afc}.st31{fill:#a6ce28}.st33{fill:#28221c}.st36{fill:#99b524}</style><path fill="#191919" d="M0 0h1920v1059H0z"/><linearGradient id="SVGID_1_" gradientUnits="userSpaceOnUse" x1="943" y1="1581.5" x2="943" y2="35" gradientTransform="rotate(180 943 530)"><stop offset="0" stop-color="#662d91" stop-opacity="0"/><stop offset=".61" stop-color="#662d91" stop-opacity=".432"/><stop offset="1" stop-color="#662d91"/></linearGradient><path d="M-150-399h2186l-55.5 1181L-129 979l-21-1378z" fill="url(#SVGID_1_)" fill-opacity=".57"/><path d="M-101-254h586v377.5L-66 228l-35-482z" fill="#662d91" fill-opacity=".25"/><linearGradient id="SVGID_2_" gradientUnits="userSpaceOnUse" x1="1937.807" y1="-70.993" x2="2160.106" y2="381.757" gradientTransform="rotate(180 1908.087 530)"><stop offset="0" stop-color="#662d91"/><stop offset=".974" stop-color="#662d91" stop-opacity="0"/></linearGradient><path d="M2144.3 1000.4l-270.7-429-483.5 237.4 754.2 191.6z" fill="url(#SVGID_2_)"/><g id="Слой_2_1_"><g id="Слой_1-2"><path class="st4" d="M1343.7 690.7l-21.3-12.2 31.9-18.3 21.4 12.2z"/><path class="st5" d="M1344.2 666.1l-17.7-10.2 17.7-10.2 17.7 10.2z"/><path fill="#b1b6c4" d="M1344.2 686.5l-17.7-10.2v-20.4l17.7 10.2z"/><path class="st7" d="M1361.9 676.3l-17.7 10.2v-20.4l17.7-10.2z"/><g id="Men_5"><path class="st8" d="M1368 669.9c1.5.4 3.2.2 4.6-.5 1.1 0 7.1-2.5 7.9-.4.7 1.9-1.9 3.6-3.3 3.9-3 .7-5.2 2.2-6.5 2.5-.9.3-2 .2-2.8-.4-.9-.9-.8-4 .1-5.1z"/><path class="st9" d="M1370.7 674.8c1.2-.3 3.4-1.8 6.5-2.5 1.2-.3 3.1-1.5 3.3-3 .3 1.7-2.1 3.3-3.3 3.6-3 .7-5.2 2.2-6.5 2.5-.9.3-2 .2-2.8-.4-.2-.2-.3-.5-.4-.7.9.6 2.1.9 3.2.5z"/><path class="st8" d="M1357.2 664.1c1.5.4 3.2.2 4.6-.5 1.1 0 7-2.5 7.9-.4.7 1.9-1.9 3.6-3.2 3.9-3 .7-5.2 2.2-6.5 2.5-.9.3-2 .2-2.8-.4-.9-.8-.8-3.9 0-5.1z"/><path class="st9" d="M1359.9 669.1c1.2-.3 3.4-1.8 6.5-2.5 1.1-.3 3.1-1.5 3.3-3 .3 1.7-2.1 3.3-3.3 3.6-3 .7-5.2 2.2-6.5 2.5-.9.3-2 .2-2.8-.4-.2-.2-.3-.4-.4-.7 1 .6 2.1.8 3.2.5z"/><path d="M1340.5 656.7c4.7 2 9 2.4 12.6.4l3.7-2.1c.2 4.8.4 9.4.4 9.4s2.8 2.1 5 .2c0 0 .5-6.7.9-13.3l3.9-2.2c-.1.4-.1.7-.1 1.1 0 1.3.9 19.9.9 19.9s2.9 1.7 5.1-.2c0 0 1.5-21.6 1.8-25 .4-3.9-3.9-5.8-6.7-4.8l-4.2 1.5.2-2.4c.4-3.9-3.9-5.8-6.6-4.8-2.5.9-19.2 7.2-19.2 7.2.1 1.6.3 3.2.6 4.8l-6.6-.6c-.4 6.2 3.6 8.9 8.3 10.9zM1352 646l4.4-2.5c-.1.3-.1.6-.1 1l-4.3 1.5z" fill="#8c50ff"/><path class="st11" d="M1328.6 626.9s.5 8.2 1.6 9.4 4.7 2 4.7 2l2.8 4.6s-2.6-14.7-3.1-15c-.5-.3-6-1-6-1z"/><path id="_Контур_" class="st12" d="M1334 617.8c-1.4-.7-3.1-.2-3.9 1.2-1 1.7-2.1 7.6-2.2 8.6.8 1.1 2.2 1.8 3.6 1.7l2.5-11.5z"/><path id="_Контур_2" class="st11" d="M1335 617.9c1.4.1 2.5.4 2.7 0 .2-.7.3-1.5.3-2.2-.2-.4-.3-.9-.3-.9-1.8-1.1-2.3-3-2.6-5.3-.4-3.9 1.7-7.2 5.5-7.6 3.6-.4 6.3 2.2 7 5.6.4 1.7 1.1 5 .1 7.8-.6 1.6-1.3 2.8-2 3.1-.7 0-1.4-.1-2.1-.2 0 0-.2 1.1-.3 1.8s-.1 1 1.3 1.9c1.4.8-2.1 2.6-4.3 2.4-2.2-.2-4.8-1.5-5.5-3-.9-1.6-.8-3.5.2-3.4z"/><g id="_Группа_"><g id="_Группа_2"><g id="_Группа_3"><path id="_Контур_3" class="st13" d="M1371 643.1c0 .4-.2.8-.6 1l-10.8 6.3c-.4.2-.8.2-1.2 0l-15.2-8.8c-.4-.2-.6-.6-.6-1v-.1l28.4 2.6z"/><path id="_Контур_4" class="st13" d="M1370.5 644.1l-10.8 6.3c-.2.1-.4.2-.6.2v-7.4h12c-.1.3-.3.6-.6.9z"/><g id="_Группа_4"><path id="_Контур_5" class="st14" d="M1359.4 649.7c-.2.1-.6.1-.8 0l-15.8-9.1c-.2-.1-.2-.3 0-.4l11.6-6.7 16.6 9.6-11.6 6.6z"/></g><g id="_Группа_5"><path id="_Контур_6" fill="#bfbfbf" d="M1349.3 643.1h.1l5.1 2.9 2.7-1.6h.1l-5.1-3z"/><path id="_Контур_7" class="st13" d="M1349.4 643.1l5.1 2.9 2.7-1.6-5-2.9z"/></g><path class="st16" d="M1366.7 643.5l.7.4h.2l.7-.4c.1 0 .1-.1 0-.1l-.7-.4h-.2l-.7.4v.1zm-1-.6l.7.4h.2l.7-.4c.1 0 .1-.1 0-.1l-.7-.4h-.2l-.7.4v.1zm-1-.6l.7.4h.2l.7-.4c.1 0 .1-.1 0-.1l-.7-.4h-.2l-.7.4c-.1 0-.1.1 0 .1zm-1.1-.6l.7.4h.2l.7-.4c.1 0 .1-.1 0-.1l-.7-.4h-.2l-.7.4v.1zm-1-.6l.7.4h.2l.7-.4c.1 0 .1-.1 0-.1l-.7-.4h-.2l-.7.4s-.1.1 0 .1zm-1-.6l.7.4h.2l.7-.4c.1 0 .1-.1 0-.1l-.7-.4h-.2l-.7.4c-.1 0-.1.1 0 .1zm-1.1-.6l.7.4h.2l.7-.4c.1 0 .1-.1 0-.1l-.7-.4h-.2l-.7.4v.1zm-1-.6l.7.4h.2l.7-.4c.1 0 .1-.1 0-.1l-.7-.4h-.2l-.7.4c0 .1-.1.1 0 .1zm-1-.6l.7.4h.2l.7-.4c.1 0 .1-.1 0-.1l-.8-.4h-.2l-.7.4c0 .1 0 .1.1.1zm-1.1-.5l.7.4h.2l.7-.4c.1 0 .1-.1 0-.1l-.7-.4h-.2l-.7.4v.1zm-1-.6l.7.4h.2l.7-.4c.1 0 .1-.1 0-.1l-.7-.4h-.2l-.7.4v.1zm-1-.6l.7.4h.2l.7-.4c.1 0 .1-.1 0-.1l-.7-.4h-.2l-.7.4c-.1 0-.1 0 0 .1zm-1-.6l.7.4h.2l.7-.4c.1 0 .1-.1 0-.1l-.7-.4h-.2l-.7.4c-.1 0-.1 0 0 .1zm-1.6-.9l1.2.7h.2l.7-.4c.1 0 .1-.1 0-.1l-1.2-.7h-.2l-.7.4c0-.1-.1-.1 0 .1-.1-.1 0 0 0 0zm11.4 7.7l.7.4h.2l.7-.4c.1 0 .1-.1 0-.1l-.7-.4h-.2l-.7.4v.1zm-1-.6l.7.4h.2l.7-.4c.1 0 .1-.1 0-.1l-.7-.4h-.2l-.7.4c-.1 0-.1.1 0 .1zm-1.1-.6l.7.4h.2l.7-.4c.1 0 .1-.1 0-.1l-.7-.4h-.2l-.7.4v.1zm-1-.6l.7.4h.2l.7-.4c.1 0 .1-.1 0-.1l-.7-.4h-.2l-.7.4c-.1 0-.1.1 0 .1zm-1-.6l.7.4h.2l.7-.4c.1 0 .1-.1 0-.1l-.7-.4h-.2l-.7.4c-.1 0-.1.1 0 .1zm-1.1-.6l.7.4h.2l.7-.4c.1 0 .1-.1 0-.1l-.7-.4h-.2l-.7.4v.1zm-1-.6l.7.4h.2l.7-.4c.1 0 .1-.1 0-.1l-.7-.4h-.2l-.7.4c-.1 0-.1.1 0 .1zm-1-.6l.7.4h.2l.7-.4c.1 0 .1-.1 0-.1l-.7-.4h-.2l-.7.4c-.1 0-.1.1 0 .1zm-1.1-.6l.7.4h.2l.7-.4c.1 0 .1-.1 0-.1l-.7-.4h-.2l-.7.4v.1zm-1-.6l.7.4h.2l.7-.4c.1 0 .1-.1 0-.1l-.7-.4h-.2l-.7.4c-.1 0-.1.1 0 .1zm-1-.6l.7.4h.2l.7-.4c.1 0 .1-.1 0-.1l-.7-.4h-.2l-.7.4c-.1 0-.1.1 0 .1zm-1.1-.6l.7.4h.2l.7-.4c.1 0 .1-.1 0-.1l-.7-.4h-.2l-.7.4v.1zm12.4 7.2l1.2.7h.2l.7-.4c.1 0 .1-.1 0-.1l-1.2-.7h-.2l-.7.4v.1zm-12.5-8.3l.7.4c.1 0 .1.1 0 .1l-.7.4h-.5l-.8.5h-.2l-.5-.3c-.1 0-.1-.1 0-.1l.7-.4.2-.1.1-.1.1-.1.6-.4c.2.1.3.1.3.1zm10 10.3l.7.4h.2l.7-.4c.1 0 .1-.1 0-.1l-.7-.4h-.2l-.7.4v.1zm-1-.6l.7.4h.2l.7-.4c.1 0 .1-.1 0-.1l-.7-.4h-.2l-.7.4c-.1 0-.1.1 0 .1zm-1-.6l.7.4h.2l.7-.4c.1 0 .1-.1 0-.1l-.7-.4h-.2l-.7.4c-.1.1-.1.1 0 .1zm-8.8-5l.7.4h.2l.7-.4c.1 0 .1-.1 0-.1l-.7-.4h-.2l-.7.4c-.1 0-.1 0 0 .1zm-1-.6l.7.4h.2l.7-.4c.1 0 .1-.1 0-.1l-.7-.4h-.2l-.7.4c-.1 0-.1 0 0 .1zm-1.1-.6l.7.4h.2l.7-.4c.1 0 .1-.1 0-.1l-.7-.4h-.2l-.7.4v.1zm-1-.6l.7.4h.2l.7-.4c.1 0 .1-.1 0-.1l-.7-.4h-.2l-.7.4c-.1 0-.1.1 0 .1zm10.6 6.1l1 .6h.2l.7-.4c.1 0 .1-.1 0-.1l-1-.6h-.2l-.7.4c-.1 0-.1.1 0 .1zm-6.5-3.7l1 .6h.2l.7-.4c.1 0 .1-.1 0-.1l-1-.6h-.2l-.7.4v.1zm1.3.7l4.9 2.8h.2l.7-.4c.1 0 .1-.1 0-.1l-4.9-2.8h-.2l-.7.4v.1zm8.7 2.7l.7.4h.2l.7-.4c.1 0 .1-.1 0-.1l-.7-.4h-.2l-.7.4v.1zm-1-.6l.7.4h.2l.7-.4c.1 0 .1-.1 0-.1l-.7-.4h-.2l-.7.4c-.1 0-.1.1 0 .1zm-1-.6l.7.4h.2l.7-.4c.1 0 .1-.1 0-.1l-.7-.4h-.2l-.7.4c-.1 0-.1.1 0 .1zm-1.1-.6l.7.4h.2l.7-.4c.1 0 .1-.1 0-.1l-.7-.4h-.2l-.7.4v.1zm-1-.6l.7.4h.2l.7-.4c.1 0 .1-.1 0-.1l-.7-.4h-.2l-.7.4c-.1.1-.1.1 0 .1zm-1-.5l.7.4h.2l.7-.4c.1 0 .1-.1 0-.1l-.7-.4h-.2l-.7.4c-.1 0-.1 0 0 .1zm-1.1-.6l.7.4h.2l.7-.4c.1 0 .1-.1 0-.1l-.7-.4h-.2l-.7.4v.1zm-1-.6l.7.5h.2l.7-.4c.1 0 .1-.1 0-.1l-.7-.4h-.2l-.7.4c-.1-.1-.1-.1 0 0zm-1-.6l.7.4h.2l.7-.4c.1 0 .1-.1 0-.1l-.7-.4h-.2l-.7.4c-.1 0-.1 0 0 .1zm-1.1-.6l.7.4h.2l.7-.4c.1 0 .1-.1 0-.1l-.7-.4h-.2l-.7.4v.1zm-1-.6l.7.4h.2l.7-.4c.1 0 .1-.1 0-.1l-.7-.4h-.2l-.7.4c-.1 0-.1 0 0 .1zm-1-.6l.7.4h.2l.7-.4c.1 0 .1-.1 0-.1l-.7-.4h-.2l-.7.4c-.1 0-.1 0 0 .1zm12.4 7.1l1.5.9h.2l.7-.4c.1 0 .1-.1 0-.1l-1.5-.9h-.2l-.7.4c-.1 0-.1.1 0 .1zm-1.6.3l.7.4h.2l.7-.4c.1 0 .1-.1 0-.1l-.7-.4h-.2l-.7.4v.1zm-1-.6l.7.4h.2l.7-.4c.1 0 .1-.1 0-.1l-.7-.4h-.2l-.7.4v.1zm-1-.6l.7.4h.2l.7-.4c.1 0 .1-.1 0-.1l-.7-.4h-.2l-.7.4c-.1 0-.1.1 0 .1zm-1-.6l.7.4h.2l.7-.4c.1 0 .1-.1 0-.1l-.7-.4h-.2l-.7.4c-.1 0-.1.1 0 .1zm-1.1-.6l.7.4h.2l.7-.4c.1 0 .1-.1 0-.1l-.7-.4h-.2l-.7.4s-.1.1 0 .1zm-1-.6l.7.4h.2l.7-.4c.1 0 .1-.1 0-.1l-.7-.4h-.2l-.7.4c-.1 0-.1.1 0 .1zm-1.1-.6l.7.4h.2l.7-.4c.1 0 .1-.1 0-.1l-.7-.4h-.2l-.7.4v.1z"/><path class="st16" d="M1355.2 640.3l.7.4h.2l.7-.4c.1 0 .1-.1 0-.1l-.7-.4h-.2l-.7.4s-.1.1 0 .1zm-1-.6l.7.4h.2l.7-.4c.1 0 .1-.1 0-.1l-.7-.4h-.2l-.7.4c-.1 0-.1.1 0 .1zm-1.1-.6l.7.4h.2l.7-.4c.1 0 .1-.1 0-.1l-.7-.4h-.2l-.7.4v.1zm-1-.6l.7.4h.2l.7-.4c.1 0 .1-.1 0-.1l-.7-.4h-.2l-.7.4c0 .1-.1.1 0 .1zm-2.3-1.3l2 1.2h.2l.7-.4c.1 0 .1-.1 0-.1l-2-1.2h-.2l-.7.4c-.1 0-.1.1 0 .1zm13.7 7.9l1 .6h.2l.7-.4c.1 0 .1-.1 0-.1l-1-.6h-.2l-.7.4c-.1 0-.1.1 0 .1z"/></g><g id="_Группа_6"><g id="_Группа_7"><g id="_Группа_8"><path id="_Контур_8" class="st13" d="M1371 643.1l-16.6-9.6v-13l.1-.3.1-.1c.4-.2.8-.2 1.2 0l15.2 8.8c.4.2.6.6.6 1v12.2c-.1.6-.2.7-.6 1z"/><path id="_Контур_9" class="st13" d="M1369.5 630.4l-15.1-9.5v-.4l.1-.3.1-.1c.4-.2.8-.2 1.2 0l15.2 8.8c.2.1.3.3.4.5l-1.9 1z"/><path id="_Контур_10" d="M1354.8 620.1l15.9 9.2c.2.1.3.3.3.5V643l-16.6-9.6v-13.1c0-.1.1-.3.2-.3l.2.1z" fill="#dceeff"/><path id="_Контур_11" class="st14" d="M1354.8 620.1l15.9 9.2c.2.1.3.3.3.5V643l-16.6-9.6v-13.1c0-.1.1-.3.2-.3l.2.1z"/><path id="_Контур_12" fill="#dbdbdb" d="M1371 643.1v-.5l-16.5-9.6v.5z"/></g><path id="_Контур_13" fill="#1e3779" d="M1354.9 632.8v-12l.2.1v11.8z"/><path id="_Контур_14" class="st16" d="M1355.1 620.9v11.8l15.4 8.9v-11.8z"/><path id="_Контур_15" fill="#031f60" d="M1354.9 632.8l15.6 9v-.2l-15.4-8.9z"/></g></g></g></g><path id="_Контур_16" class="st14" d="M1337 618.1c-.4 1 .6 2.2 3.3 3s2.9-.2 2.9-.2c1.8.8 3.5 1.7 5.2 2.7 1.6 1.1 2.3 4.4 2.5 9.9.3 6.3.3 15.7.1 17.4 0 0-3 3-6.8 2.7-3.8-.3-10.3-3.7-11.9-6.3 0-5.6.7-6.5-.2-9.7-2.1-7.3-3.2-10.3-2.1-15.2.8-4 2-4.5 3.6-4.5 1.1-.1 2.3 0 3.4.2z"/><path id="_Контур_17" class="st11" d="M1357.3 640.2c-3.1.8-3.9-1.2-4.3-2.8-1-4-1.5-7.6-2.3-9.8-.9-2.7-1.8-3.1-3.1-3.6-1.5-.6-2.8.7-2.3 4.1.6 3.9 1.6 7.8 2.9 11.6.5 1.7 1.3 3.2 2.6 4.5 1.6 1.3 4.1 1.3 7.8.3 2.2-.7 4.3-1.7 6.3-2.7.8-.4 1.4-.6 3-1.3 1.6-.7 2.9-1.7 4-3.1.8-1.2.9-1.7.8-2-.2-.3-.6-.3-1 .2-.6.8-1.4 1.5-2.3 2.1 0 0 1-1 1.5-1.7.5-.6.9-1.3 1.2-2 .3-.7-.3-1.6-.8-1.1-.4.5-.6 1-1.5 2-.4.5-.9 1-1.5 1.4.5-.7 1-1.4 1.3-2.2.4-.6.5-1.3.5-2 0-.3-.5-.8-1-.1-.5 1-1.1 1.8-1.8 2.6s-1.3 1.2-1.4 1c0-.2.4-.6.7-1.5.3-.9 0-1.8-.5-1.9-.5-.1-.4-.1-.8.7-.5.8-1 1.7-1.4 2.6-.2.8-.7 1.6-1.3 2.2-.6.8-2.3 1.7-5.3 2.5z"/><path id="_Контур_18" class="st12" d="M1346.4 623.4c2.1-.3 3.6.6 4.5 3.8.9 3.2 1.6 5.8 1.6 5.8-.8 1.2-2.1 2-3.5 2.3-2.5.6-3.4-.6-3.4-.6s-.7-3.3-1.1-5.6c-.5-2.3-.7-5.4 1.9-5.7z"/><path class="st16" d="M1347.5 607s3.3-5-3.9-6.1c-5.2-.7-8.5 2.6-8.9 6.2-.4 3.5 1.8 7 3.3 8.5 1.5.4 3.1.2 4.5-.5.1-.9.1-1.9.1-2.8 0 0-2.6-5.3 4.9-5.3z"/></g><path class="st7" d="M1361.9 671v-15.2l-12.1 7 4.7 9.6z"/><path class="st5" d="M1354 656.7l4.6-2.7 3.3 1.9-4.8 2.7z"/><g id="monitor"><path class="st4" d="M1544.5 587.9l-56.9-32.9c-4.1-2.4-3.6-6.5 1.2-9.3l36.9-21.3 71.8 41.5-36.9 21.3c-4.8 2.8-12 3.1-16.1.7z"/><path class="st21" d="M1548.6 585.5l-56.9-32.9c-4.1-2.4-3.6-6.5 1.2-9.2l36.9-21.3 71.8 41.4-36.9 21.3c-4.8 2.8-12 3.1-16.1.7z"/><path class="st21" d="M1601.5 563.5v-2.1l-3.3 1.9zm-112.6-14.8v-2.2l3.5 1.4z"/><path class="st5" d="M1548.6 583.3l-56.9-32.9c-4.1-2.4-3.6-6.5 1.2-9.2l36.9-21.3 71.8 41.5-36.9 21.3c-4.8 2.7-12 3-16.1.6z"/><path class="st22" d="M1529.9 520l-8.8-29.5 72.5 41.7 7.9 29.2z"/><path class="st22" d="M1599.4 562.6l2.1-1.2-3.1-2.5 1 3.7z"/><path class="st21" d="M1527.7 521.1l-8.9-29.5 72.5 41.7 8.1 29.3z"/><path class="st7" d="M1711.9 612.3L1431 450.1c-3.9-2.3-7.1-8.4-7.1-13.6V219.2c0-5.3 3.2-7.7 7.1-5.4l280.9 162.1c3.9 2.3 7.1 8.4 7.1 13.6v217.4c0 5.2-3.2 7.6-7.1 5.4z"/><path class="st7" d="M1713.3 614.5l3.1-1.8-1.3-9.2z"/><path class="st21" d="M1423.3 215.1l3.1-1.8 4.4 2.5s-4.7.7-4.8.7-2.7-1.4-2.7-1.4z"/><path d="M1709.3 613.7l-280.9-162.2c-3.9-2.3-7.1-8.4-7.1-13.6V220.6c0-5.3 3.2-7.7 7.1-5.4l280.9 162.2c3.9 2.3 7.1 8.4 7.1 13.6v217.3c0 5.3-3.2 7.7-7.1 5.4z" fill="#e4e7f2"/><path d="M1708.8 614l-280.9-162.2c-3.9-2.3-7.1-8.4-7.1-13.6V220.9c0-5.3 3.2-7.7 7.1-5.4l280.9 162.2c3.9 2.3 7.1 8.4 7.1 13.6v217.3c0 5.3-3.2 7.7-7.1 5.4z" fill="#201d38"/><linearGradient id="SVGID_3_" gradientUnits="userSpaceOnUse" x1="1424.326" y1="649.916" x2="1712.226" y2="649.916" gradientTransform="matrix(1 0 0 -1 0 1060)"><stop offset=".21" stop-color="#fff" stop-opacity="0"/><stop offset="1" stop-color="#fff" stop-opacity=".2"/></linearGradient><path d="M1712.1 600.8l-287.8-166.1.2-212.9c0-2.2 1.5-3.1 3.4-2L1708.8 382c2 1.3 3.3 3.5 3.4 5.9l-.1 212.9z" opacity=".3" fill="url(#SVGID_3_)"/><path class="st26" d="M1599 355l-19.1-11v-6.9l19.1 11z"/><path class="st27" d="M1643.1 380.5l-40.5-23.5v-6.8l40.5 23.4z"/><path class="st26" d="M1599 377l-19.1-11v-6.9l19.1 11z"/><path class="st28" d="M1616 387l-13.4-7.9v-6.9l13.4 7.9z"/><path class="st26" d="M1599 388l-19.1-11v-6.9l19.1 11z"/><path class="st28" d="M1625.2 403.1l-22.6-13v-6.9l22.6 13.1z"/><path class="st26" d="M1599 399l-19.1-11v-6.9l19.1 11z"/><path class="st29" d="M1662.3 435.5l-59.7-34.4v-6.9l59.7 34.4z"/><path class="st26" d="M1599 366l-19.1-11v-6.9l19.1 11zm78 45l-74.4-42.9v-6.9l74.4 43zm-78-1l-19.1-11v-6.9l19.1 11z"/><path class="st30" d="M1666.9 449.9l-64.3-37.8v-6.9l64.3 37.8z"/><path class="st26" d="M1599 432l-19.1-11v-6.9l19.1 11.1zm78.6 45.4l-75-43.3v-6.9l75 43.4zM1599 443l-19.1-11v-6.8l19.1 11z"/><path class="st30" d="M1625.2 458.2l-22.6-13.1v-6.9l22.6 13.1z"/><path class="st26" d="M1599 454l-19.1-11v-6.8l19.1 11z"/><path class="st28" d="M1648.8 482.9l-46.2-26.8v-6.9l46.2 26.9z"/><path class="st26" d="M1599 421l-19.1-11v-6.9l19.1 11z"/><path class="st28" d="M1610.9 427.9l-8.3-4.8v-6.9l8.3 4.8z"/><path class="st26" d="M1599 465.1l-19.1-11.1v-6.8l19.1 11z"/><path class="st30" d="M1632.4 484.3l-29.8-17.2v-6.9l29.8 17.2z"/><path class="st26" d="M1599 487.1l-19.1-11v-6.9l19.1 11z"/><path class="st29" d="M1646.1 514l-43.5-24.9v-6.9l43.5 24.9z"/><path class="st26" d="M1599 498.1l-19.1-11v-6.9l19.1 11zm9 5.5l-5.4-3.5v-6.8l5.4 3.4zm-9 5.5l-19.1-11v-6.9l19.1 11z"/><path class="st27" d="M1627.6 525.5l-25-14.4v-6.8l25 14.4z"/><path class="st26" d="M1599 476.1l-19.1-11v-6.9l19.1 11z"/><path class="st28" d="M1637.3 498.1l-34.7-20v-6.9l34.7 20z"/><path class="st26" d="M1475.7 286.2l-19.1-11v-6.9l19.1 11z"/><path class="st30" d="M1560.3 335l-81.1-46.7v-6.9l81.1 46.8z"/><path class="st26" d="M1475.7 308.2l-19.1-11v-6.9l19.1 11z"/><path class="st27" d="M1532.9 341.2l-53.7-30.9v-6.9l53.7 30.9z"/><path class="st26" d="M1475.7 319.2l-19.1-11v-6.9l19.1 11z"/><path class="st29" d="M1546 359.8l-66.8-38.5v-6.9l66.8 38.5z"/><path class="st26" d="M1475.7 330.2l-19.1-11v-6.9l19.1 11zm50 28.9l-46.5-26.8v-6.9l46.5 26.8zm-50-61.9l-19.1-11v-6.9l19.1 11z"/><path class="st28" d="M1519.7 322.7l-40.5-23.4v-6.9l40.5 23.4z"/><path class="st26" d="M1475.7 341.2l-19.1-11v-6.9l19.1 11z"/><path class="st30" d="M1503.1 357l-23.9-13.7v-6.9l23.9 13.8z"/><path class="st26" d="M1475.7 363.2l-19.1-11v-6.8l19.1 11z"/><path class="st27" d="M1554.3 408.6l-75.1-43.3v-6.9l75.1 43.4z"/><path class="st26" d="M1475.7 374.2l-19.1-11v-6.8l19.1 11z"/><path class="st29" d="M1501.9 389.4l-22.7-13.1v-6.9l22.7 13.1z"/><path class="st26" d="M1475.7 385.3l-19.1-11.1v-6.8l19.1 11zm70.3 40.5l-66.8-38.5v-6.9L1546 419zm-70.3-73.6l-19.1-11v-6.9l19.1 11.1z"/><path class="st28" d="M1542.4 390.8l-63.2-36.5v-6.9l63.2 36.5z"/><path class="st26" d="M1475.7 396.3l-19.1-11.1v-6.8l19.1 11z"/><path class="st30" d="M1487.6 403.1l-8.4-4.8v-6.9l8.4 4.9z"/><path class="st26" d="M1475.7 418.3l-19.1-11v-6.9l19.1 11z"/><path class="st27" d="M1494.7 429.3l-15.5-9v-6.8l15.5 8.9z"/><path class="st26" d="M1475.7 429.3l-19.1-11v-6.9l19.1 11z"/><path class="st29" d="M1519.7 454.7l-40.5-23.4v-6.8l40.5 23.4z"/><path class="st26" d="M1475.7 440.3l-19.1-11v-6.9l19.1 11zm67.9 39.2l-64.4-37.2v-6.8l64.4 37.1zm-67.9-72.2l-19.1-11v-6.9l19.1 11z"/><path class="st28" d="M1560.3 456.1l-81.1-46.8v-6.9l81.1 46.8z"/></g><ellipse class="st4" cx="1622.1" cy="688.7" rx="41.8" ry="24.2"/><path class="st31" d="M1668.1 685.3v-64.4l-83.5 2.1.2 59.4c-1.6 7.1 2.4 14.6 11.9 20.1 16.3 9.4 42.8 9.4 59.2 0 8.1-4.8 12.2-11 12.2-17.2z"/><ellipse cx="1626.2" cy="620.9" rx="41.8" ry="24.2" fill="#bcd64d"/><path class="st33" d="M1661.5 620.9c0 3.9-3.3 8.1-9 11.3-6.2 3.6-14.7 5.8-23.6 6.1-.9 0-1.8.1-2.7.1-9.9 0-19.5-2.3-26.3-6.2-5.7-3.3-9-7.4-9-11.3s3.3-8.1 9-11.4c6.8-3.9 16.4-6.2 26.3-6.2.9 0 1.8 0 2.7.1 8.9.4 17.4 2.6 23.6 6.1 5.7 3.3 9 7.4 9 11.4z"/><path d="M1661.5 620.9c0 3.9-3.3 8.1-9 11.3-6.2 3.6-14.7 5.8-23.6 6.1-8.9-.4-17.4-2.6-23.6-6.1-5.7-3.3-9-7.5-9-11.3 0-3.9 3.3-8.1 8.9-11.4 6.2-3.6 14.7-5.8 23.6-6.1 8.9.4 17.4 2.6 23.6 6.1 5.8 3.3 9.1 7.4 9.1 11.4z" opacity=".07" fill="#fff"/><path d="M1662 650.7l-8.9-5.1-4.3 2.5 4.3 2.5v1.6l8.3 4.8-.3 1.5c1.2 1 5.5 9 5.5 9l.3-.3V688c0 5.4-3.2 3.6-4.5 2.8l-9.3-5.4-4.3 2.5 4.3 2.5v1.6l9.3 5.4c.9.6 2 1 3 1.4l-.6 2.6 4.8-2.7h.2c2-1.2 2.8-4 2.8-7.3v-21.8c.1-9.1-6.9-16.4-10.6-18.9z" fill="#8da01f"/><path class="st36" d="M1658.1 700l-9.3-5.4v-6.7l9.3 5.4c1.4.8 4.5 2.6 4.5-2.8v-21.6c0-5.1-4.6-8.7-5.4-9.2l-8.5-4.9v-6.6l8.9 5.1c3.7 2.5 10.7 9.8 10.7 18.9v21.7c.1 5.8-2.6 10.4-10.2 6.1z"/><ellipse class="st4" cx="1363.8" cy="568.3" rx="28.8" ry="16.6"/><ellipse class="st5" cx="1367.9" cy="565.2" rx="28.8" ry="16.6"/><path class="st5" d="M1329.3 508.3l10.1 58h57.2l9.8-57.6z"/><ellipse cx="1367.9" cy="507.6" rx="38.6" ry="22.3" fill="#e4e6ef"/><path class="st33" d="M1367.9 525c-9.5 0-18.3-2.1-24.8-5.9-5.6-3.2-8.8-7.4-8.8-11.5s3.2-8.3 8.8-11.5c6.6-3.8 15.4-5.9 24.8-5.9 9.5 0 18.3 2.1 24.8 5.9 5.6 3.2 8.8 7.4 8.8 11.5s-3.2 8.3-8.8 11.5c-6.5 3.8-15.3 5.9-24.8 5.9z"/><path class="st36" d="M1384.5 490c1.1-15.2-5-30-16.4-40.1l-.1-.1v.2c-11.4 10.1-17.5 24.9-16.4 40.1l-22.1-2.1c9.3 35.1 38.6 32.1 38.6 32.1v-.1c2.2.2 29.5 1.6 38.4-32.1l-22 2.1z"/><path class="st31" d="M1368.1 520.1s-2-27.3-38.7-45.7c0 0-8.7 45.4 38.7 45.7z"/><path class="st31" d="M1367.9 520.1s2-27.3 38.7-45.7c-.1 0 8.6 45.4-38.7 45.7z"/></g></g></svg>