<svg xmlns="http://www.w3.org/2000/svg" width="512" height="512"><path d="M32 168H16v-32a40.045 40.045 0 0140-40h272V80h-16a8 8 0 01-5.657-13.657l48-48a8 8 0 0111.314 0l48 48A8 8 0 01408 80h-16v16h32a40.045 40.045 0 0140 40v160h-16V136a24.028 24.028 0 00-24-24h-32v144h-16V72a8 8 0 018-8h4.687L360 35.313 331.313 64H336a8 8 0 018 8v192h-16V112H56a24.028 24.028 0 00-24 24zm24 248h133.247l-19.2 64H152v16h176v-16h-18.047l-10.29-34.3-15.326 4.6 8.911 29.7h-106.5l19.2-64H264v-16H56a24.028 24.028 0 01-24-24v-8h224v-16H32V184H16v192a40.045 40.045 0 0040 40zm240-136V152h-32v184H56v-16h32v-64a8 8 0 018-8h48a8 8 0 018 8v64h16V200a8 8 0 018-8h48a8 8 0 018 8v120h16V144a8 8 0 018-8h48a8 8 0 018 8v136zm-160-16h-32v56h32zm80-56h-32v112h32zM56 128v16h16v-16zm48 0H88v16h16zm16 0v16h16v-16zm368.967 327.033A24.167 24.167 0 01496 472a23.978 23.978 0 01-24 24 24.5 24.5 0 01-16.967-7.033l-38.293-38.292a96.074 96.074 0 1133.935-33.935zM448 368a80 80 0 10-80 80 80.091 80.091 0 0080-80zm29.652 98.348l-36.387-36.389a96.887 96.887 0 01-11.306 11.306l36.389 36.387a7.993 7.993 0 1011.3-11.3zM432 368a64 64 0 11-64-64 64.072 64.072 0 0164 64zm-16 0a48 48 0 10-48 48 48.053 48.053 0 0048-48zm-80 0h16a16.019 16.019 0 0116-16v-16a32.036 32.036 0 00-32 32zM440 64h16a48.053 48.053 0 00-48-48v16a32.036 32.036 0 0132 32z" id="Outline"/></svg>