<svg id="Capa_1" height="512" width="512" xmlns="http://www.w3.org/2000/svg"><path d="M457.393 157.301c15.193 0 27.554-12.361 27.554-27.554V67.356c0-15.193-12.361-27.554-27.554-27.554h-.771V27.554C456.622 12.361 444.261 0 429.069 0H82.932C67.739 0 55.378 12.361 55.378 27.554v12.248h-.771c-15.193 0-27.554 12.361-27.554 27.554v62.391c0 15.193 12.361 27.554 27.554 27.554h.771v24.774h-.771c-15.193 0-27.554 12.361-27.554 27.554v62.391c0 15.193 12.361 27.554 27.554 27.554h.771v24.773h-.771c-15.193 0-27.554 12.361-27.554 27.554v62.391c0 15.193 12.361 27.554 27.554 27.554h.771v12.249c0 14.233 10.849 25.98 24.711 27.408v7.954c0 12.431 10.114 22.544 22.544 22.544h29.217c12.431 0 22.544-10.113 22.544-22.544v-7.807h203.211v7.807c0 12.431 10.113 22.544 22.544 22.544h29.217c12.431 0 22.544-10.113 22.544-22.544v-7.954c13.862-1.427 24.711-13.174 24.711-27.408v-12.249h.771c15.193 0 27.554-12.361 27.554-27.554v-62.391c0-15.193-12.361-27.554-27.554-27.554h-.771v-24.773h.771c15.193 0 27.554-12.361 27.554-27.554v-62.391c0-15.193-12.361-27.554-27.554-27.554h-.771v-24.774zM42.082 129.748V67.356c0-6.906 5.618-12.525 12.525-12.525h72.326c4.151 0 7.515-3.364 7.515-7.515s-3.364-7.515-7.515-7.515H70.407V27.554c0-6.906 5.618-12.524 12.525-12.524h346.137c6.906 0 12.524 5.618 12.524 12.524v12.248H156.991c-4.151 0-7.515 3.364-7.515 7.515s3.364 7.515 7.515 7.515h300.402c6.906 0 12.524 5.618 12.524 12.525v62.391c0 6.906-5.618 12.524-12.524 12.524H54.607c-6.906 0-12.525-5.618-12.525-12.524zm97.283 359.708c0 4.144-3.371 7.515-7.515 7.515h-29.217c-4.144 0-7.515-3.371-7.515-7.515v-7.807h44.247zm270.002 7.515H380.15c-4.144 0-7.515-3.371-7.515-7.515v-7.807h44.247v7.807c0 4.144-3.371 7.515-7.515 7.515zm60.551-145.07v62.391c0 6.906-5.618 12.524-12.524 12.524H213.661c-4.151 0-7.515 3.364-7.515 7.515s3.364 7.515 7.515 7.515h227.932v12.249c0 6.906-5.618 12.524-12.524 12.524H82.932c-6.906 0-12.525-5.618-12.525-12.524v-12.249h113.195c4.151 0 7.515-3.364 7.515-7.515s-3.364-7.515-7.515-7.515H54.607c-6.906 0-12.525-5.618-12.525-12.524v-62.391c0-6.906 5.618-12.525 12.525-12.525h402.787c6.905.001 12.524 5.619 12.524 12.525zm-28.325-27.554H70.407v-24.773h371.186zm0-142.272H293.679c-4.151 0-7.515 3.364-7.515 7.515s3.364 7.515 7.515 7.515h163.714c6.906 0 12.524 5.618 12.524 12.524v62.391c0 6.906-5.618 12.525-12.524 12.525H54.607c-6.906 0-12.525-5.618-12.525-12.525v-62.391c0-6.906 5.618-12.524 12.525-12.524H263.62c4.151 0 7.515-3.364 7.515-7.515s-3.364-7.515-7.515-7.515H70.407v-24.774h371.186z"/><path d="M85.294 121.503H109.3c4.151 0 7.515-3.364 7.515-7.515s-3.364-7.515-7.515-7.515H85.294c-4.151 0-7.515 3.364-7.515 7.515s3.364 7.515 7.515 7.515zm56.668 0h24.007c4.151 0 7.515-3.364 7.515-7.515s-3.364-7.515-7.515-7.515h-24.007c-4.151 0-7.515 3.364-7.515 7.515s3.364 7.515 7.515 7.515zm56.669 0h24.006c4.151 0 7.515-3.364 7.515-7.515s-3.364-7.515-7.515-7.515h-24.006c-4.151 0-7.515 3.364-7.515 7.515s3.364 7.515 7.515 7.515zM85.294 90.631H109.3c4.151 0 7.515-3.364 7.515-7.515s-3.364-7.515-7.515-7.515H85.294c-4.151 0-7.515 3.364-7.515 7.515s3.364 7.515 7.515 7.515zm56.668 0h24.007c4.151 0 7.515-3.364 7.515-7.515s-3.364-7.515-7.515-7.515h-24.007c-4.151 0-7.515 3.364-7.515 7.515s3.364 7.515 7.515 7.515zm56.669 0h24.006c4.151 0 7.515-3.364 7.515-7.515s-3.364-7.515-7.515-7.515h-24.006c-4.151 0-7.515 3.364-7.515 7.515s3.364 7.515 7.515 7.515zm202.236 34.202c14.491 0 26.28-11.79 26.28-26.281s-11.789-26.28-26.28-26.28-26.28 11.789-26.28 26.28 11.789 26.281 26.28 26.281zm0-37.532c6.204 0 11.25 5.047 11.25 11.251s-5.047 11.251-11.25 11.251c-6.204 0-11.251-5.047-11.251-11.251s5.047-11.251 11.251-11.251zm-70.983 37.532c14.491 0 26.281-11.79 26.281-26.281s-11.79-26.28-26.281-26.28-26.28 11.789-26.28 26.28 11.789 26.281 26.28 26.281zm0-37.532c6.204 0 11.251 5.047 11.251 11.251s-5.047 11.251-11.251 11.251c-6.203 0-11.25-5.047-11.25-11.251s5.047-11.251 11.25-11.251zM109.299 248.746H85.294c-4.151 0-7.515 3.364-7.515 7.515s3.364 7.515 7.515 7.515H109.3a7.516 7.516 0 00-.001-15.03zm56.67 0h-24.007c-4.151 0-7.515 3.364-7.515 7.515s3.364 7.515 7.515 7.515h24.007a7.516 7.516 0 000-15.03zm56.668 0h-24.006c-4.151 0-7.515 3.364-7.515 7.515s3.364 7.515 7.515 7.515h24.006c4.151 0 7.515-3.364 7.515-7.515s-3.364-7.515-7.515-7.515zm-113.338-30.872H85.294c-4.151 0-7.515 3.364-7.515 7.515s3.364 7.515 7.515 7.515H109.3a7.516 7.516 0 00-.001-15.03zm56.67 0h-24.007c-4.151 0-7.515 3.364-7.515 7.515s3.364 7.515 7.515 7.515h24.007a7.516 7.516 0 000-15.03zm56.668 0h-24.006c-4.151 0-7.515 3.364-7.515 7.515s3.364 7.515 7.515 7.515h24.006c4.151 0 7.515-3.364 7.515-7.515s-3.364-7.515-7.515-7.515zm178.23 49.231c14.491 0 26.28-11.789 26.28-26.28s-11.789-26.28-26.28-26.28-26.28 11.789-26.28 26.28 11.789 26.28 26.28 26.28zm0-37.531c6.204 0 11.25 5.047 11.25 11.251 0 6.203-5.047 11.25-11.25 11.25-6.204 0-11.251-5.047-11.251-11.25 0-6.204 5.047-11.251 11.251-11.251zm-70.983 37.531c14.491 0 26.281-11.789 26.281-26.28s-11.79-26.28-26.281-26.28-26.28 11.789-26.28 26.28c.001 14.491 11.789 26.28 26.28 26.28zm0-37.531c6.204 0 11.251 5.047 11.251 11.251 0 6.203-5.047 11.25-11.251 11.25-6.203 0-11.25-5.047-11.25-11.25 0-6.204 5.047-11.251 11.25-11.251zM109.299 391.019H85.294c-4.151 0-7.515 3.364-7.515 7.515s3.364 7.515 7.515 7.515H109.3a7.515 7.515 0 10-.001-15.03zm56.67 0h-24.007c-4.151 0-7.515 3.364-7.515 7.515s3.364 7.515 7.515 7.515h24.007a7.515 7.515 0 100-15.03zm56.668 0h-24.006c-4.151 0-7.515 3.364-7.515 7.515s3.364 7.515 7.515 7.515h24.006c4.151 0 7.515-3.364 7.515-7.515s-3.364-7.515-7.515-7.515zm-113.338-30.873H85.294c-4.151 0-7.515 3.364-7.515 7.515s3.364 7.515 7.515 7.515H109.3a7.515 7.515 0 10-.001-15.03zm56.67 0h-24.007c-4.151 0-7.515 3.364-7.515 7.515s3.364 7.515 7.515 7.515h24.007a7.515 7.515 0 100-15.03zm56.668 0h-24.006c-4.151 0-7.515 3.364-7.515 7.515s3.364 7.515 7.515 7.515h24.006c4.151 0 7.515-3.364 7.515-7.515s-3.364-7.515-7.515-7.515zm178.23-3.329c-14.491 0-26.28 11.789-26.28 26.28s11.789 26.28 26.28 26.28 26.28-11.789 26.28-26.28-11.789-26.28-26.28-26.28zm0 37.53c-6.204 0-11.251-5.047-11.251-11.251s5.047-11.25 11.251-11.25 11.25 5.047 11.25 11.25c0 6.204-5.047 11.251-11.25 11.251zm-70.983-37.53c-14.491 0-26.28 11.789-26.28 26.28s11.789 26.28 26.28 26.28 26.281-11.789 26.281-26.28-11.789-26.28-26.281-26.28zm0 37.53c-6.203 0-11.25-5.047-11.25-11.251s5.047-11.25 11.25-11.25c6.204 0 11.251 5.047 11.251 11.25.001 6.204-5.046 11.251-11.251 11.251z"/></svg>