<svg height="552" viewBox="0 -24 414 414" width="552" xmlns="http://www.w3.org/2000/svg" xmlns:xlink="http://www.w3.org/1999/xlink"><linearGradient id="a"><stop offset=".322" stop-color="#a163f5"/><stop offset=".466" stop-color="#b074ee"/><stop offset=".752" stop-color="#d8a1dd"/><stop offset=".898" stop-color="#efbad3"/></linearGradient><linearGradient id="b" gradientUnits="userSpaceOnUse" x1="207" x2="207" xlink:href="#a" y1="432.041" y2="-73.368"/><linearGradient id="c" gradientUnits="userSpaceOnUse" x1="295.821" x2="295.821" xlink:href="#a" y1="432.041" y2="-73.368"/><linearGradient id="d" gradientUnits="userSpaceOnUse" x1="100.913" x2="100.913" xlink:href="#a" y1="432.041" y2="-73.368"/><linearGradient id="e" gradientUnits="userSpaceOnUse" x1="50.478" x2="50.478" xlink:href="#a" y1="432.041" y2="-73.368"/><linearGradient id="f" gradientUnits="userSpaceOnUse" x1="151.348" x2="151.348" xlink:href="#a" y1="432.041" y2="-73.368"/><linearGradient id="g" gradientUnits="userSpaceOnUse" x1="124.5" x2="124.5" xlink:href="#a" y1="432.041" y2="-73.368"/><path d="M367 0H47C21.055.027.027 21.055 0 47v271.3c.027 25.946 21.055 46.97 47 47h320c25.945-.03 46.973-21.054 47-47V47c-.027-25.945-21.055-46.973-47-47zM47 14h320c18.219.02 32.98 14.781 33 33v32.73H14V47c.02-18.219 14.781-32.98 33-33zm320 337.3H47c-18.219-.019-32.98-14.784-33-33V93.73h386v224.575c-.02 18.215-14.781 32.98-33 33zm0 0" fill="url(#b)"/><path d="M350.82 244.434H240.824a7.001 7.001 0 000 14h110a7.001 7.001 0 000-14zm0 50.609H240.824a7.001 7.001 0 000 14h110a7.001 7.001 0 000-14zm0-151.828H240.824a7.001 7.001 0 000 14h110a7.001 7.001 0 000-14zm0 50.609H240.824a7.001 7.001 0 000 14h110a7.001 7.001 0 000-14zm0 0" fill="url(#c)"/><path d="M100.914 68.781c12.031 0 21.781-9.754 21.781-21.781 0-12.031-9.754-21.785-21.78-21.785-12.032 0-21.786 9.754-21.786 21.785.016 12.023 9.758 21.77 21.785 21.781zm0-29.562a7.782 7.782 0 010 15.562A7.783 7.783 0 0193.13 47a7.793 7.793 0 017.785-7.781zm0 0" fill="url(#d)"/><path d="M50.477 68.781c12.03.004 21.789-9.75 21.789-21.777.004-12.031-9.75-21.79-21.782-21.79S28.7 34.97 28.7 47c.016 12.023 9.758 21.766 21.778 21.781zm0-29.562a7.782 7.782 0 11.004 15.563A7.783 7.783 0 0142.694 47a7.79 7.79 0 017.782-7.781zm0 0" fill="url(#e)"/><path d="M151.348 68.781c12.03 0 21.785-9.754 21.785-21.781-.004-12.031-9.754-21.785-21.785-21.785S129.562 34.969 129.566 47c.012 12.023 9.758 21.77 21.782 21.781zm0-29.562c4.297 0 7.785 3.484 7.785 7.781s-3.488 7.781-7.785 7.781-7.782-3.484-7.782-7.781a7.787 7.787 0 017.782-7.781zm0 0" fill="url(#f)"/><path d="M188 143.215H61c-3.867 0-7 3.137-7 7v151.828c0 3.867 3.133 7 7 7h127c3.867 0 7-3.133 7-7V150.215c0-3.863-3.133-7-7-7zm-7 151.828H68V157.215h113zm0 0" fill="url(#g)"/></svg>